<?xml version="1.0" encoding="utf-8"?>
<!-- Generator: Adobe Illustrator 16.0.0, SVG Export Plug-In . SVG Version: 6.00 Build 0)  -->
<!DOCTYPE svg PUBLIC "-//W3C//DTD SVG 1.1//EN" "http://www.w3.org/Graphics/SVG/1.1/DTD/svg11.dtd">
<svg version="1.1" id="Layer_1" xmlns="http://www.w3.org/2000/svg" xmlns:xlink="http://www.w3.org/1999/xlink" x="0px" y="0px"
	 width="362.637px" height="229.67px" viewBox="0 0 362.637 229.67" enable-background="new 0 0 362.637 229.67"
	 xml:space="preserve">
<linearGradient id="SVGID_1_" gradientUnits="userSpaceOnUse" x1="183.1504" y1="221.8345" x2="183.1504" y2="7.8359">
	<stop  offset="0" style="stop-color:#240E0A"/>
	<stop  offset="1" style="stop-color:#7D4A20"/>
</linearGradient>
<path fill="url(#SVGID_1_)" d="M337.15,209.834c0,6.628-5.373,12-12,12h-284c-6.627,0-12-5.372-12-12V19.835c0-6.628,5.373-12,12-12
	h284c6.627,0,12,5.372,12,12V209.834z"/>
<path fill="#FFCB05" d="M195.484,49.603c0,0,1.4,0.21,2.24,0.839c0.838,0.63,1.957,1.959,3.635,2.379
	c1.68,0.42,1.889,2.238,5.035-1.225c3.148-3.462,6.926-7.029,8.814-9.337c1.889-2.309,3.146-7.974,3.775-10.911
	c0,0-0.523-2.413,0.525-3.147s1.049-0.734,1.889-0.63s0.314,2.413,0.314,3.673c0,1.258,0.443,2.458,0.443,2.458
	s2.18-4.452,2.809-5.396c0.631-0.944,1.469-0.419,1.469,0.84s-0.943,3.462-1.258,4.196s0.449,1.072,0.449,1.072
	s1.543-1.492,2.174-2.541c0.629-1.049,1.783-1.259,1.783,0.314c0,0.698-0.537,1.562-1.135,2.306
	c-0.748,0.934-0.035,1.131-0.035,1.131l0.596-0.21l0.574-0.604c0,0,0.105-0.419,0,1.469c-0.105,1.889,0.465,6.085,0.045,7.868
	c-0.42,1.784-0.359,6.925-0.57,7.555c-0.209,0.629-1.957-0.14-1.957-0.14s-0.383,1.713-0.697,3.077
	c-0.316,1.363-1.191,1.818-1.82,2.657s-1.119,0.28-1.119,0.28s-0.805-0.105-1.016,1.259c-0.209,1.364-0.068,2.169-1.223,3.218
	s-2.135,0.979-2.658,0.35c-0.525-0.63,1.049-1.574,0,0c-1.051,1.574-2.309,1.993-3.568,1.993c-1.258,0-1.107,0-2.441-0.524
	c-1.336-0.524-2.699-1.469-2.699-1.469s0.525,0.944,1.154,1.993c0.629,1.05,1.672,2.063,3.98,2.903s3.363,0.139,5.566,1.503
	s3.252,2.413,3.463,3.462c0.209,1.05,0.943,2.414-0.42,2.519s-1.396,0.7-1.396,0.7s-0.807-0.176-0.492,0.769
	s-0.209,1.993-1.049,1.993s-1.783,0-1.783,0s-0.631-0.104-0.734,0.84c-0.105,0.943-0.525,1.363-1.574,1.154
	c-1.049-0.211-2.309-1.154-2.309-1.154l-1.154,1.206c0,0-1.154,0.157-2.307-0.682c-1.154-0.839-1.469-1.259-1.785-1.469
	c-0.314-0.21-1.572-0.84-1.572-0.84s-0.945,1.154-1.68,1.154s-1.363,0-1.992-1.154c-0.631-1.153-1.539-0.839-1.854-0.839
	s-1.084-1.049-1.818-1.574c-0.734-0.524-1.26-0.104-1.154-1.363c0.104-1.26,0.734-3.147,1.049-3.882
	c0.314-0.735,0.42-0.735,0.734-1.364s0.84,0.105,0,0s-3.043-0.629-5.246-1.469s-3.883-1.749-5.455-2.799
	c-1.574-1.049-3.682-2.447-5.047-3.496c-1.363-1.049-5.354-2.321-5.354-2.321s-5.391-1.351-6.648-1.718
	c-1.259-0.367-4.774-0.892-5.718-1.993c-0.944-1.103-1.94-3.2-2.046-3.515c-0.104-0.314-0.701-1.836-0.701-1.836
	s2.117,0,4.636,1.154c2.518,1.153,4.564,2.098,5.666,2.727c1.102,0.63,2.412,0.997,3.672,1.521c1.26,0.525,3.252,0.35,4.826,0.664
	s2.832,0.141,3.777,0.141c0.943,0,0.123,0.141,1.541,0.141c1.416,0,1.396,0.472,2.76,0.472s1.68-0.157,2.518-0.21
	c0.84-0.053,0.893-0.367,0.893-0.367l-0.105-1.102l-0.42,0.839c0,0-0.943,0.63-1.154-0.367c-0.209-0.997-0.418-2.099-0.418-3.095
	s-0.631-1.154,0.418-1.73C194.173,49.34,194.326,48.659,195.484,49.603z"/>
<path fill="#FFCB05" d="M131.663,42.331c0,0,5.035,3.219,8.537,3.777c3.495,0.559,8.669,3.775,9.928,12.869
	c1.259,9.093,7.416,6.714,10.636,6.994c3.213,0.28,4.413,2.936,4.302,6.015c-0.105,3.079-1.509,2.659-1.509,2.659l0.42,2.657
	c0,0-1.541-4.058-4.334-4.058c-2.8,0-6.853,0.98-8.675,4.058c-1.816,3.077-4.617,4.756-4.617,4.756s-0.977,2.377-1.953,2.099
	c-0.984-0.279-2.663-1.958-2.801-0.979c-0.138,0.979,1.535,6.015,0,6.435c-1.541,0.42-2.8,1.819-2.8,0.561s-0.138-6.157-0.839-3.498
	c-0.695,2.658,0.563,8.114-1.26,9.373c-1.816,1.26-3.074,0-3.074,0s-0.139,1.816-1.961,1.957c-1.816,0.142-3.357,0-3.357,0
	s-1.396,1.961-2.518,1.4c-1.115-0.561-1.535-4.898-1.535-6.436c0-1.538-2.518-2.097,0-3.637c2.519-1.539,0.275-1.399,2.374-2.658
	c2.099-1.26,2.519-2.099,3.776-5.036c1.26-2.938,1.26-3.497,1.823-5.595c0.558-2.099,1.259-3.219,0.275-3.638
	c-0.977-0.42-1.679-1.155-2.655-1.487c-0.977-0.331-1.396,0.369-1.396-2.01s-1.403-1.819-1.403-3.218c0-1.397,0.839-1.959,0-2.938
	c-0.84-0.979-0.84-0.979-1.679-1.398c-0.84-0.419-1.259,0.42-1.259-1.259s-2.374-2.237-2.794-2.237s2.794-0.142,2.518-1.959
	c-0.281-1.818-2.242,3.077-4.897-1.12c-2.655-4.196-3.777-6.573-3.777-6.573l-2.518-2.379l3.357-0.141c0,0-6.433-1.958-6.573-2.797
	c-0.142-0.839,6.714,0.839,6.714,0.839l-7.554-2.938c0,0-1.541-2.797,4.056-0.979c5.593,1.818,5.593,3.638,8.95,3.357
	c1.64-0.138,4.695-0.894,6.741-0.564c3.829,0.619,7.947,3.93,7.53,3.642C131.388,43.17,131.663,42.331,131.663,42.331z"/>
<path fill-rule="evenodd" clip-rule="evenodd" fill="#FFCB05" d="M303.605,156.719c-16.961-5.652-34.73-5.525-52.697-5.684
	c1.172,0.596,2.338,1.191,3.508,1.789c-35.322-1.641-70.639-4.063-106.406,0.461c2.794-3.448,0.892-4.62-1.603-5.192
	c-2.069-0.474-4.24-0.679-6.371-0.688c-12.688-0.061-25.379-0.031-38.07-0.031c-0.06,0.454-0.125,0.906-0.184,1.361
	c4.779,1.104,9.563,2.211,14.347,3.316c-0.02,0.096-0.036,0.191-0.053,0.288c-19.432,0-38.864,0-58.3,0
	c-0.138-0.315-0.281-0.632-0.426-0.946c5.107-2.308,10.17-4.721,15.337-6.889c4.065-1.706,8.616-2.532,12.288-4.811
	c3.403-2.111,6.524-5.248,8.715-8.616c3.718-5.706,8.275-9.959,13.81-14.063c9.085-6.739,19.753-6.039,29.565-9.072
	c4.295-1.328,8.434-3.25,12.482-5.228c2.986-1.459,5.688-3.501,8.58-5.181c2.134-1.24,4.262-2.896,6.53,0.13
	c0.512,0.684,2.275,0.673,3.433,0.592c7.329-0.517,14.295-1.337,20.754-6.018c7.432-5.384,15.996-6.901,24.422-1.235
	c6.666,4.481,13.236,9.109,19.967,13.487c1.813,1.181,4.039,1.759,6.121,2.485c7.236,2.521,11.879,7.967,16.107,13.967
	c1.609,2.287,3.334,4.563,5.357,6.469c2.6,2.451,4.207,1.749,5.064-2.529c4.621,4.544,9.1,8.672,13.246,13.105
	c4.576,4.893,9.59,8.855,16.324,10.293c1.035,0.222,2.033,1.168,2.797,2.007C299.982,152.19,301.556,154.234,303.605,156.719z
	 M156.419,148.105c1.787,0.333,2.797,0.693,3.807,0.681c6.705-0.081,13.413-0.502,20.108-0.328
	c18.836,0.488,37.842-2.549,56.471,2.631c1,0.277,3.092-0.065,3.232-0.541c1.436-4.931,5.852-4.207,9.232-4.707
	c6.352-0.94,12.836-1.001,19.195-1.906c1.535-0.218,2.801-2.31,4.193-3.539c-1.396-1.556-2.602-4.172-4.229-4.465
	c-4.463-0.805-7.594-3.248-10.377-6.396c-4.789-5.418-9.426-10.974-14.238-16.37c-0.912-1.026-2.344-1.589-3.537-2.364
	c-0.256,0.289-0.51,0.579-0.762,0.867c2.705,4.115,5.406,8.23,8.111,12.346c-0.391,0.413-0.781,0.826-1.17,1.239
	c-1.955-1.317-4.283-2.308-5.797-4.018c-4.613-5.202-8.793-10.788-13.381-16.017c-2.865-3.267-5.264-7.273-11.314-8.909
	c2.705,8.604,5.1,16.226,7.496,23.847c-0.367,0.147-0.732,0.293-1.096,0.441c-0.922-1.7-1.924-3.359-2.744-5.105
	c-2.789-5.934-5.451-11.929-8.328-17.82c-0.439-0.898-1.764-1.363-2.678-2.031c-0.551,1.089-1.473,2.141-1.576,3.271
	c-0.244,2.519-0.076,5.075-0.076,7.616c-0.521,0.116-1.039,0.232-1.557,0.35c-0.742-0.953-1.656-1.816-2.191-2.873
	c-1.33-2.625-2.561-5.309-3.691-8.025c-0.889-2.131-2.33-2.708-4.072-1.341c-4.262,3.347-8.498,6.749-12.533,10.358
	c-5.072,4.531-9.938,9.288-14.882,13.959c-0.78,0.734-1.505,1.525-2.255,2.29c0.235,0.321,0.472,0.643,0.704,0.962
	c12.187-0.566,21.966-6.044,29.882-15.721c0.049,1.877-0.357,3.22-0.83,4.539c-1.773,4.977-2.318,10.033,0.248,14.811
	c0.896,1.668,2.959,2.707,4.486,4.033c1.189-1.486,2.809-2.805,3.469-4.498c1.105-2.846,1.42-5.993,2.439-8.883
	c0.416-1.184,1.799-2.027,2.746-3.025c0.906,0.988,2.207,1.832,2.637,2.997c0.781,2.114,1.043,4.419,1.521,6.644
	c1.18,5.482,3.318,10.012,9.344,11.922c2.219,0.703,3.967,2.896,5.932,4.409c-0.193,0.419-0.387,0.837-0.58,1.256
	c-1.395,0.247-2.797,0.757-4.178,0.698c-9.502-0.396-19.012-0.736-28.488-1.48c-3.369-0.264-6.674-1.523-9.969-2.473
	c-2.246-0.646-4.396-2.109-6.637-2.216c-5.213-0.251-10.465-0.079-15.682,0.251c-5.885,0.374-11.74,1.108-18.176,1.739
	c2.442-1.572,4.452-2.652,6.193-4.065c1.114-0.903,1.832-2.297,2.728-3.471c-1.469-0.457-2.925-1.246-4.406-1.308
	c-4.203-0.181-8.419-0.064-13.858-0.064c2.288-2.649,3.685-4.563,5.38-6.165c4.548-4.305,9.367-8.331,13.771-12.775
	c1.573-1.588,2.255-4.061,3.347-6.131c-2.017,0.697-4.036,1.381-6.042,2.104c-0.367,0.133-0.669,0.444-1.017,0.646
	c-7.029,4.1-13.822,8.335-22.202,9.844c-6.729,1.209-13.266,4.109-16.954,10.885c-0.298-0.297-0.593-0.596-0.895-0.893
	c3.102-3.555,6.199-7.109,9.298-10.665c-2.452-0.351-4.898-0.295-6.853,0.715c-9.104,4.713-15.875,11.729-19.675,21.363
	c-1.406,3.563-4.107,5.487-7.57,6.472c-5.022,1.428-10.111,2.627-15.127,4.066c-2.033,0.583-3.954,1.542-5.928,2.33
	c6.124,2.012,31.356,0.417,33.684-1.486c-1.373-0.754-2.668-1.463-3.96-2.17c0.056-0.438,0.111-0.876,0.164-1.313
	c21.455,0,42.91,0,63.945,0C158.449,145.426,157.688,146.43,156.419,148.105z"/>
<path fill-rule="evenodd" clip-rule="evenodd" fill="#FFCB05" d="M122.437,130.571c0,0,0.873-0.841,3.357-5.035
	c2.485-4.195-7.271-5.037-9.511,0c-2.239,5.035-8.39,8.393-12.312,10.071c-3.914,1.679-17.074,4.807-17.074,4.807
	s18.195,0.89,26.589,0c8.394-0.891,15.108,5.597,15.665,0.395C129.712,135.607,132.594,130.528,122.437,130.571z"/>
<rect x="54.235" y="187.115" fill="#FFCB05" width="33.278" height="0.632"/>
<rect x="279.187" y="187.115" fill="#FFCB05" width="33.279" height="0.632"/>
<g>
	<path fill="#FFCB05" d="M61.751,167.556h-3.807l-0.762,0.95l-0.87,1.05c-0.169,0.226-0.293,0.43-0.372,0.612
		c-0.061,0.14-0.09,0.28-0.09,0.42c0,0.146,0.076,0.281,0.23,0.406s0.409,0.196,0.767,0.215v0.338h-3.672l0.091-0.338
		c0.326-0.055,0.616-0.17,0.87-0.347c0.339-0.244,0.825-0.746,1.46-1.507l8.711-10.476h0.408l-0.408,10.138
		c-0.019,0.529-0.027,0.849-0.027,0.958c0,0.415,0.083,0.716,0.249,0.904c0.166,0.189,0.443,0.299,0.83,0.329l-0.091,0.338h-5.321
		l0.1-0.338c0.526-0.049,0.828-0.092,0.906-0.128c0.17-0.085,0.323-0.264,0.463-0.534c0.139-0.271,0.224-0.741,0.254-1.411
		L61.751,167.556z M61.751,166.807l0.236-4.036l-3.418,4.036H61.751z"/>
	<path fill="#FFCB05" d="M73.227,158.88l-3.001,10.283c-0.175,0.609-0.263,0.989-0.263,1.142c0,0.079,0.026,0.146,0.077,0.201
		c0.052,0.055,0.107,0.082,0.168,0.082c0.108,0,0.211-0.043,0.309-0.128c0.29-0.237,0.613-0.64,0.97-1.205l0.354,0.164
		c-0.574,0.926-1.14,1.586-1.695,1.981c-0.381,0.269-0.786,0.402-1.215,0.402c-0.398,0-0.716-0.108-0.952-0.324
		c-0.235-0.216-0.354-0.477-0.354-0.781c0-0.225,0.073-0.587,0.218-1.087l2.447-8.42c0.133-0.463,0.2-0.771,0.2-0.923
		c0-0.146-0.063-0.262-0.19-0.347c-0.17-0.122-0.427-0.174-0.771-0.155l0.1-0.347l3.055-0.539H73.227z"/>
	<path fill="#FFCB05" d="M89.469,158.88l-1.024,4.201h-0.299c-0.066-0.658-0.185-1.185-0.354-1.58
		c-0.254-0.572-0.591-1.014-1.011-1.324s-0.875-0.466-1.364-0.466c-0.472,0-0.884,0.181-1.237,0.543s-0.53,0.772-0.53,1.229
		c0,0.451,0.122,0.894,0.367,1.329s0.823,1.091,1.736,1.968c0.73,0.7,1.222,1.303,1.473,1.809c0.251,0.505,0.376,1.054,0.376,1.644
		c0,0.664-0.175,1.275-0.525,1.836s-0.86,0.994-1.527,1.302c-0.668,0.307-1.425,0.461-2.271,0.461c-0.521,0-1.175-0.078-1.963-0.233
		c-0.789-0.155-1.313-0.232-1.573-0.232c-0.205,0-0.39,0.032-0.553,0.096c-0.163,0.064-0.365,0.188-0.607,0.37h-0.354l1.097-4.722
		h0.345c0.079,0.828,0.245,1.533,0.499,2.114s0.616,1.035,1.088,1.36c0.471,0.326,1.009,0.489,1.613,0.489
		c0.598,0,1.098-0.199,1.5-0.599c0.401-0.398,0.603-0.866,0.603-1.401c0-0.457-0.113-0.896-0.34-1.315s-0.743-1.032-1.55-1.836
		s-1.364-1.521-1.673-2.155c-0.224-0.469-0.335-0.968-0.335-1.498c0-0.919,0.359-1.714,1.079-2.383
		c0.719-0.67,1.658-1.005,2.818-1.005c0.526,0,1.218,0.118,2.076,0.356c0.501,0.14,0.854,0.21,1.061,0.21
		c0.175,0,0.332-0.038,0.472-0.114c0.139-0.076,0.302-0.227,0.489-0.452H89.469z"/>
	<path fill="#FFCB05" d="M98.597,163.209l-1.759,6.073l-0.182,0.739c-0.018,0.092-0.026,0.158-0.026,0.201
		c0,0.073,0.025,0.137,0.077,0.191c0.051,0.055,0.104,0.083,0.158,0.083c0.127,0,0.302-0.098,0.525-0.293
		c0.091-0.079,0.309-0.359,0.653-0.84l0.317,0.164c-0.43,0.792-0.888,1.369-1.374,1.73c-0.486,0.362-1.011,0.544-1.572,0.544
		c-0.345,0-0.607-0.09-0.789-0.27c-0.181-0.18-0.271-0.406-0.271-0.681c0-0.237,0.097-0.679,0.29-1.324l0.218-0.739
		c-0.701,1.211-1.375,2.07-2.021,2.575c-0.375,0.292-0.774,0.438-1.197,0.438c-0.556,0-0.957-0.23-1.205-0.689
		c-0.248-0.46-0.372-0.979-0.372-1.558c0-0.858,0.26-1.843,0.78-2.954c0.52-1.111,1.202-2.005,2.048-2.681
		c0.695-0.56,1.348-0.84,1.958-0.84c0.339,0,0.61,0.099,0.816,0.297c0.205,0.197,0.356,0.559,0.453,1.082l0.326-1.123
		L98.597,163.209z M95.696,164.945c0-0.493-0.076-0.85-0.227-1.069c-0.109-0.151-0.258-0.228-0.444-0.228
		c-0.188,0-0.381,0.091-0.58,0.273c-0.405,0.378-0.842,1.144-1.311,2.297c-0.468,1.154-0.702,2.151-0.702,2.991
		c0,0.322,0.053,0.556,0.158,0.698c0.106,0.144,0.223,0.215,0.35,0.215c0.271,0,0.547-0.158,0.824-0.475
		c0.399-0.451,0.759-1.002,1.079-1.653C95.412,166.85,95.696,165.833,95.696,164.945z"/>
	<path fill="#FFCB05" d="M104.587,164.406l-1.061,4.219c-0.495,1.991-0.979,3.435-1.45,4.329c-0.472,0.896-1.022,1.558-1.654,1.986
		c-0.632,0.43-1.355,0.645-2.171,0.645c-0.514,0-0.892-0.1-1.133-0.297c-0.242-0.198-0.363-0.432-0.363-0.699
		c0-0.25,0.101-0.466,0.3-0.648s0.462-0.273,0.788-0.273c0.272,0,0.48,0.069,0.626,0.21c0.145,0.14,0.218,0.316,0.218,0.529
		c0,0.195-0.046,0.34-0.137,0.434c-0.091,0.095-0.136,0.157-0.136,0.188l0.045,0.064c0.037,0.03,0.079,0.045,0.127,0.045
		c0.182,0,0.336-0.058,0.463-0.173c0.32-0.286,0.559-0.634,0.716-1.041c0.109-0.28,0.317-1.021,0.626-2.22l1.849-7.297h-1.26
		l0.299-1.068c0.453,0.006,0.783-0.052,0.988-0.174s0.423-0.396,0.652-0.822c0.665-1.235,1.366-2.122,2.104-2.657
		c0.737-0.536,1.559-0.804,2.466-0.804c0.58,0,1.001,0.112,1.264,0.338c0.264,0.226,0.395,0.518,0.395,0.877
		c0,0.316-0.088,0.567-0.263,0.753s-0.393,0.278-0.652,0.278c-0.242,0-0.441-0.075-0.599-0.228s-0.235-0.335-0.235-0.549
		c0-0.151,0.05-0.313,0.149-0.483c0.1-0.171,0.149-0.286,0.149-0.348c0-0.066-0.022-0.121-0.068-0.164
		c-0.045-0.042-0.104-0.063-0.177-0.063c-0.356,0-0.722,0.222-1.097,0.666c-0.616,0.713-1.111,1.839-1.486,3.38h1.314l-0.317,1.068
		H104.587z"/>
	<path fill="#FFCB05" d="M115.546,163.209l-1.759,6.073l-0.182,0.739c-0.018,0.092-0.026,0.158-0.026,0.201
		c0,0.073,0.025,0.137,0.077,0.191c0.051,0.055,0.104,0.083,0.158,0.083c0.127,0,0.302-0.098,0.525-0.293
		c0.091-0.079,0.309-0.359,0.653-0.84l0.317,0.164c-0.43,0.792-0.888,1.369-1.374,1.73c-0.486,0.362-1.011,0.544-1.572,0.544
		c-0.345,0-0.607-0.09-0.789-0.27c-0.181-0.18-0.271-0.406-0.271-0.681c0-0.237,0.097-0.679,0.29-1.324l0.218-0.739
		c-0.701,1.211-1.375,2.07-2.021,2.575c-0.375,0.292-0.774,0.438-1.197,0.438c-0.556,0-0.957-0.23-1.205-0.689
		c-0.248-0.46-0.372-0.979-0.372-1.558c0-0.858,0.26-1.843,0.78-2.954c0.52-1.111,1.202-2.005,2.048-2.681
		c0.695-0.56,1.348-0.84,1.958-0.84c0.339,0,0.61,0.099,0.816,0.297c0.205,0.197,0.356,0.559,0.453,1.082l0.326-1.123
		L115.546,163.209z M112.646,164.945c0-0.493-0.076-0.85-0.227-1.069c-0.109-0.151-0.258-0.228-0.444-0.228
		c-0.188,0-0.381,0.091-0.58,0.273c-0.405,0.378-0.842,1.144-1.311,2.297c-0.468,1.154-0.702,2.151-0.702,2.991
		c0,0.322,0.053,0.556,0.158,0.698c0.106,0.144,0.223,0.215,0.35,0.215c0.271,0,0.547-0.158,0.824-0.475
		c0.399-0.451,0.759-1.002,1.079-1.653C112.361,166.85,112.646,165.833,112.646,164.945z"/>
	<path fill="#FFCB05" d="M125.57,163.209l-1.759,6.073l-0.182,0.739c-0.018,0.092-0.026,0.158-0.026,0.201
		c0,0.073,0.025,0.137,0.077,0.191c0.051,0.055,0.104,0.083,0.158,0.083c0.127,0,0.302-0.098,0.525-0.293
		c0.091-0.079,0.309-0.359,0.653-0.84l0.317,0.164c-0.43,0.792-0.888,1.369-1.374,1.73c-0.486,0.362-1.011,0.544-1.572,0.544
		c-0.345,0-0.607-0.09-0.789-0.27c-0.181-0.18-0.271-0.406-0.271-0.681c0-0.237,0.097-0.679,0.29-1.324l0.218-0.739
		c-0.701,1.211-1.375,2.07-2.021,2.575c-0.375,0.292-0.774,0.438-1.197,0.438c-0.556,0-0.957-0.23-1.205-0.689
		c-0.248-0.46-0.372-0.979-0.372-1.558c0-0.858,0.26-1.843,0.78-2.954c0.52-1.111,1.202-2.005,2.048-2.681
		c0.695-0.56,1.348-0.84,1.958-0.84c0.339,0,0.61,0.099,0.816,0.297c0.205,0.197,0.356,0.559,0.453,1.082l0.326-1.123
		L125.57,163.209z M122.67,164.945c0-0.493-0.076-0.85-0.227-1.069c-0.109-0.151-0.258-0.228-0.444-0.228
		c-0.188,0-0.381,0.091-0.58,0.273c-0.405,0.378-0.842,1.144-1.311,2.297c-0.468,1.154-0.702,2.151-0.702,2.991
		c0,0.322,0.053,0.556,0.158,0.698c0.106,0.144,0.223,0.215,0.35,0.215c0.271,0,0.547-0.158,0.824-0.475
		c0.399-0.451,0.759-1.002,1.079-1.653C122.386,166.85,122.67,165.833,122.67,164.945z"/>
	<path fill="#FFCB05" d="M137.607,164.862h4.496l0.997-3.461c0.133-0.475,0.199-0.837,0.199-1.087c0-0.243-0.081-0.429-0.244-0.557
		c-0.164-0.128-0.557-0.214-1.179-0.256l0.1-0.338h6.109l-0.1,0.338c-0.599,0-1.052,0.128-1.359,0.384
		c-0.309,0.255-0.571,0.761-0.789,1.516l-2.284,7.927c-0.151,0.518-0.227,0.89-0.227,1.114c0,0.226,0.082,0.396,0.245,0.512
		c0.211,0.158,0.595,0.244,1.15,0.256l-0.09,0.338h-5.992l0.136-0.338c0.58,0,1.008-0.114,1.283-0.343
		c0.274-0.229,0.527-0.741,0.757-1.539l1.061-3.689h-4.479l-1.051,3.689c-0.151,0.506-0.227,0.88-0.227,1.124
		c0,0.219,0.092,0.397,0.276,0.534c0.184,0.137,0.548,0.212,1.092,0.224l-0.091,0.338h-5.91l0.1-0.338
		c0.581,0,1.005-0.114,1.274-0.343c0.269-0.229,0.518-0.741,0.747-1.539l2.285-7.927c0.133-0.457,0.199-0.815,0.199-1.078
		c0-0.249-0.08-0.438-0.24-0.565s-0.543-0.214-1.146-0.256l0.1-0.338h6.01l-0.136,0.338c-0.557,0-0.977,0.12-1.261,0.36
		c-0.284,0.241-0.544,0.754-0.779,1.539L137.607,164.862z"/>
	<path fill="#FFCB05" d="M156.162,163.209l-1.759,6.073l-0.182,0.739c-0.018,0.092-0.026,0.158-0.026,0.201
		c0,0.073,0.025,0.137,0.077,0.191c0.051,0.055,0.104,0.083,0.158,0.083c0.127,0,0.302-0.098,0.525-0.293
		c0.091-0.079,0.309-0.359,0.653-0.84l0.317,0.164c-0.43,0.792-0.888,1.369-1.374,1.73c-0.486,0.362-1.011,0.544-1.572,0.544
		c-0.345,0-0.607-0.09-0.789-0.27c-0.181-0.18-0.271-0.406-0.271-0.681c0-0.237,0.097-0.679,0.29-1.324l0.218-0.739
		c-0.701,1.211-1.375,2.07-2.021,2.575c-0.375,0.292-0.774,0.438-1.197,0.438c-0.556,0-0.957-0.23-1.205-0.689
		c-0.248-0.46-0.372-0.979-0.372-1.558c0-0.858,0.26-1.843,0.78-2.954c0.52-1.111,1.202-2.005,2.048-2.681
		c0.695-0.56,1.348-0.84,1.958-0.84c0.339,0,0.61,0.099,0.816,0.297c0.205,0.197,0.356,0.559,0.453,1.082l0.326-1.123
		L156.162,163.209z M153.262,164.945c0-0.493-0.076-0.85-0.227-1.069c-0.109-0.151-0.258-0.228-0.444-0.228
		c-0.188,0-0.381,0.091-0.58,0.273c-0.405,0.378-0.842,1.144-1.311,2.297c-0.468,1.154-0.702,2.151-0.702,2.991
		c0,0.322,0.053,0.556,0.158,0.698c0.106,0.144,0.223,0.215,0.35,0.215c0.271,0,0.547-0.158,0.824-0.475
		c0.399-0.451,0.759-1.002,1.079-1.653C152.978,166.85,153.262,165.833,153.262,164.945z"/>
	<path fill="#FFCB05" d="M162.234,163.082l-1.931,7.188c-0.399,1.467-0.847,2.627-1.342,3.479c-0.345,0.597-0.806,1.052-1.383,1.365
		c-0.576,0.313-1.17,0.471-1.781,0.471c-0.507,0-0.884-0.101-1.128-0.302c-0.245-0.201-0.367-0.43-0.367-0.685
		c0-0.256,0.102-0.483,0.304-0.681c0.202-0.198,0.461-0.297,0.774-0.297c0.242,0,0.433,0.065,0.571,0.196
		c0.14,0.131,0.209,0.288,0.209,0.471c0,0.176-0.082,0.353-0.245,0.529c-0.066,0.073-0.1,0.128-0.1,0.164
		c0,0.043,0.02,0.081,0.059,0.114c0.04,0.033,0.099,0.051,0.177,0.051c0.267,0,0.496-0.152,0.689-0.457
		c0.133-0.201,0.368-0.956,0.707-2.265l1.849-7.032c0.133-0.506,0.2-0.822,0.2-0.95c0-0.121-0.067-0.238-0.2-0.352
		c-0.133-0.112-0.308-0.169-0.525-0.169c-0.066,0-0.146,0.003-0.235,0.009l0.1-0.347l3.055-0.502H162.234z M161.473,158.88
		c0.375,0,0.692,0.132,0.952,0.397c0.26,0.265,0.39,0.586,0.39,0.963c0,0.372-0.132,0.689-0.395,0.955
		c-0.263,0.265-0.579,0.396-0.947,0.396c-0.375,0-0.693-0.132-0.956-0.396c-0.263-0.266-0.395-0.583-0.395-0.955
		c0-0.377,0.132-0.698,0.395-0.963C160.779,159.012,161.098,158.88,161.473,158.88z"/>
	<path fill="#FFCB05" d="M168.135,163.082l-1.931,7.188c-0.399,1.467-0.847,2.627-1.342,3.479c-0.345,0.597-0.806,1.052-1.383,1.365
		c-0.576,0.313-1.17,0.471-1.781,0.471c-0.507,0-0.884-0.101-1.128-0.302c-0.245-0.201-0.367-0.43-0.367-0.685
		c0-0.256,0.102-0.483,0.304-0.681c0.202-0.198,0.461-0.297,0.774-0.297c0.242,0,0.433,0.065,0.571,0.196
		c0.14,0.131,0.209,0.288,0.209,0.471c0,0.176-0.082,0.353-0.245,0.529c-0.066,0.073-0.1,0.128-0.1,0.164
		c0,0.043,0.02,0.081,0.059,0.114c0.04,0.033,0.099,0.051,0.177,0.051c0.267,0,0.496-0.152,0.689-0.457
		c0.133-0.201,0.368-0.956,0.707-2.265l1.849-7.032c0.133-0.506,0.2-0.822,0.2-0.95c0-0.121-0.067-0.238-0.2-0.352
		c-0.133-0.112-0.308-0.169-0.525-0.169c-0.066,0-0.146,0.003-0.235,0.009l0.1-0.347l3.055-0.502H168.135z M167.373,158.88
		c0.375,0,0.692,0.132,0.952,0.397c0.26,0.265,0.39,0.586,0.39,0.963c0,0.372-0.132,0.689-0.395,0.955
		c-0.263,0.265-0.579,0.396-0.947,0.396c-0.375,0-0.693-0.132-0.956-0.396c-0.263-0.266-0.395-0.583-0.395-0.955
		c0-0.377,0.132-0.698,0.395-0.963C166.68,159.012,166.998,158.88,167.373,158.88z"/>
	<path fill="#FFCB05" d="M188.755,163.209l-1.76,6.073l-0.182,0.739c-0.018,0.092-0.025,0.158-0.025,0.201
		c0,0.073,0.025,0.137,0.076,0.191s0.104,0.083,0.158,0.083c0.127,0,0.303-0.098,0.525-0.293c0.092-0.079,0.309-0.359,0.654-0.84
		l0.316,0.164c-0.43,0.792-0.887,1.369-1.373,1.73c-0.486,0.362-1.012,0.544-1.572,0.544c-0.346,0-0.607-0.09-0.789-0.27
		s-0.271-0.406-0.271-0.681c0-0.237,0.096-0.679,0.289-1.324l0.219-0.739c-0.701,1.211-1.375,2.07-2.021,2.575
		c-0.375,0.292-0.775,0.438-1.197,0.438c-0.557,0-0.957-0.23-1.205-0.689c-0.248-0.46-0.373-0.979-0.373-1.558
		c0-0.858,0.26-1.843,0.781-2.954c0.52-1.111,1.201-2.005,2.047-2.681c0.695-0.56,1.348-0.84,1.959-0.84
		c0.338,0,0.609,0.099,0.816,0.297c0.205,0.197,0.355,0.559,0.453,1.082l0.326-1.123L188.755,163.209z M185.855,164.945
		c0-0.493-0.076-0.85-0.227-1.069c-0.109-0.151-0.258-0.228-0.445-0.228s-0.381,0.091-0.58,0.273
		c-0.404,0.378-0.842,1.144-1.311,2.297c-0.467,1.154-0.701,2.151-0.701,2.991c0,0.322,0.053,0.556,0.158,0.698
		c0.105,0.144,0.223,0.215,0.35,0.215c0.271,0,0.547-0.158,0.824-0.475c0.398-0.451,0.758-1.002,1.078-1.653
		C185.57,166.85,185.855,165.833,185.855,164.945z"/>
	<path fill="#FFCB05" d="M194.845,163.082L193.72,167c0.756-1.145,1.32-1.928,1.695-2.348c0.551-0.608,1.025-1.022,1.424-1.242
		c0.398-0.219,0.773-0.328,1.123-0.328c0.314,0,0.584,0.117,0.809,0.352c0.223,0.234,0.334,0.54,0.334,0.918
		c0,0.341-0.072,0.755-0.217,1.242l-1.16,3.899c-0.098,0.341-0.145,0.563-0.145,0.666c0,0.062,0.021,0.116,0.066,0.165
		c0.047,0.049,0.094,0.073,0.141,0.073c0.061,0,0.125-0.024,0.191-0.073c0.211-0.177,0.426-0.426,0.643-0.749
		c0.055-0.085,0.143-0.213,0.264-0.384l0.344,0.21c-0.889,1.504-1.822,2.256-2.801,2.256c-0.375,0-0.668-0.098-0.879-0.292
		s-0.316-0.438-0.316-0.73c0-0.256,0.072-0.637,0.217-1.142l1.133-3.899c0.078-0.256,0.117-0.445,0.117-0.566
		c0-0.067-0.027-0.127-0.08-0.179c-0.055-0.052-0.119-0.077-0.191-0.077c-0.229,0-0.508,0.158-0.834,0.475
		c-0.834,0.804-1.641,2-2.42,3.589l-0.744,2.713h-2.311l1.695-5.863c0.162-0.578,0.244-0.989,0.244-1.232
		c0-0.104-0.023-0.19-0.072-0.261s-0.127-0.125-0.236-0.164c-0.107-0.04-0.314-0.06-0.615-0.06l0.1-0.348l3.055-0.538H194.845z"/>
	<path fill="#FFCB05" d="M211.08,158.88l-2.945,10.22c-0.188,0.639-0.281,1.025-0.281,1.159c0,0.067,0.023,0.125,0.072,0.174
		s0.1,0.073,0.154,0.073c0.102,0,0.221-0.052,0.354-0.155c0.223-0.171,0.494-0.493,0.814-0.968l0.326,0.173
		c-0.852,1.498-1.787,2.247-2.809,2.247c-0.363,0-0.643-0.096-0.84-0.288c-0.195-0.191-0.293-0.437-0.293-0.735
		c0-0.286,0.078-0.693,0.234-1.224l0.271-0.932c-0.754,1.346-1.41,2.241-1.967,2.686c-0.422,0.329-0.834,0.493-1.232,0.493
		c-0.453,0-0.836-0.186-1.146-0.558c-0.311-0.371-0.467-0.913-0.467-1.625c0-0.907,0.199-1.803,0.598-2.686
		c0.4-0.883,0.859-1.619,1.383-2.21s1.021-1.012,1.496-1.265s0.941-0.379,1.4-0.379c0.236,0,0.445,0.049,0.631,0.146
		c0.184,0.098,0.393,0.28,0.629,0.548l0.672-2.273c0.162-0.561,0.244-0.962,0.244-1.206c0-0.146-0.055-0.271-0.164-0.374
		c-0.107-0.104-0.254-0.155-0.434-0.155c-0.086,0-0.191,0.009-0.318,0.027l0.09-0.356l2.982-0.557H211.08z M207.091,164.67
		c0-0.371-0.072-0.643-0.219-0.813c-0.145-0.171-0.314-0.256-0.508-0.256s-0.4,0.101-0.625,0.301
		c-0.428,0.39-0.877,1.174-1.346,2.353c-0.469,1.178-0.703,2.169-0.703,2.973c0,0.292,0.053,0.508,0.154,0.648
		c0.104,0.14,0.219,0.21,0.346,0.21c0.211,0,0.422-0.098,0.635-0.293c0.512-0.462,1.02-1.259,1.518-2.388
		C206.841,166.276,207.091,165.365,207.091,164.67z"/>
	<path fill="#FFCB05" d="M227.214,159.164h4.16l-0.082,0.338c-0.477,0.036-0.846,0.152-1.105,0.347
		c-0.418,0.311-0.729,0.822-0.934,1.534l-1.631,5.681c-0.508,1.771-1.197,3.01-2.068,3.713c-0.869,0.703-1.975,1.055-3.316,1.055
		c-0.762,0-1.434-0.109-2.014-0.329c-0.58-0.219-1.006-0.466-1.277-0.739c-0.271-0.274-0.48-0.613-0.625-1.019
		c-0.146-0.405-0.219-0.744-0.219-1.019c0-0.432,0.121-1.071,0.363-1.918l1.559-5.425c0.139-0.486,0.209-0.849,0.209-1.087
		c0-0.23-0.086-0.41-0.258-0.538s-0.572-0.214-1.201-0.256l0.1-0.338h6.127l-0.107,0.338c-0.594,0-1.045,0.128-1.355,0.384
		c-0.313,0.255-0.572,0.755-0.785,1.497l-1.568,5.425c-0.26,0.907-0.389,1.635-0.389,2.183c0,0.5,0.199,0.936,0.598,1.307
		s0.955,0.557,1.668,0.557c0.652,0,1.207-0.12,1.664-0.36c0.455-0.24,0.834-0.577,1.137-1.01c0.398-0.578,0.756-1.406,1.07-2.483
		l1.604-5.617c0.092-0.322,0.137-0.59,0.137-0.804c0-0.377-0.133-0.666-0.398-0.867c-0.188-0.141-0.574-0.21-1.16-0.21
		L227.214,159.164z"/>
	<path fill="#FFCB05" d="M235.443,163.082l-1.16,3.927c0.779-1.205,1.348-2.019,1.703-2.438c0.527-0.615,0.961-1.017,1.301-1.205
		c0.342-0.189,0.686-0.283,1.029-0.283c0.393,0,0.678,0.118,0.854,0.355c0.174,0.238,0.262,0.5,0.262,0.786
		c0,0.298-0.082,0.736-0.244,1.314l-0.408,1.471c0.785-1.218,1.35-2.027,1.695-2.43c0.531-0.62,0.994-1.041,1.387-1.26
		c0.271-0.158,0.563-0.237,0.869-0.237c0.32,0,0.588,0.107,0.803,0.324c0.215,0.216,0.322,0.497,0.322,0.845
		c0,0.39-0.09,0.895-0.271,1.516l-1.006,3.406c-0.152,0.506-0.227,0.832-0.227,0.978c0,0.049,0.02,0.095,0.059,0.137
		c0.039,0.043,0.082,0.064,0.131,0.064c0.066,0,0.123-0.021,0.172-0.064c0.219-0.176,0.447-0.435,0.689-0.775
		c0.055-0.073,0.137-0.187,0.244-0.339l0.309,0.201c-0.416,0.785-0.875,1.361-1.373,1.727s-0.959,0.548-1.383,0.548
		c-0.369,0-0.664-0.102-0.889-0.306c-0.223-0.204-0.334-0.443-0.334-0.718c0-0.262,0.074-0.657,0.227-1.187l1.023-3.563
		c0.139-0.493,0.209-0.8,0.209-0.922c0-0.043-0.021-0.084-0.064-0.123c-0.041-0.04-0.084-0.06-0.127-0.06
		c-0.078,0-0.156,0.019-0.234,0.055c-0.115,0.061-0.293,0.219-0.531,0.475s-0.582,0.714-1.029,1.375
		c-0.447,0.66-0.756,1.177-0.928,1.548c-0.174,0.371-0.344,0.853-0.514,1.442l-0.553,1.882h-2.293l1.695-5.964
		c0.09-0.322,0.137-0.545,0.137-0.667c0-0.042-0.02-0.082-0.061-0.118c-0.039-0.037-0.08-0.055-0.121-0.055
		c-0.225,0-0.578,0.295-1.061,0.886c-0.738,0.913-1.408,2.013-2.014,3.297l-0.732,2.621h-2.313l1.705-5.872
		c0.168-0.579,0.254-0.989,0.254-1.233c0-0.097-0.025-0.181-0.074-0.251c-0.047-0.07-0.127-0.125-0.234-0.164
		c-0.109-0.04-0.318-0.06-0.625-0.06l0.09-0.348l3.092-0.538H235.443z"/>
	<path fill="#FFCB05" d="M250.091,163.082l-1.369,5.133c1.123-2.503,1.971-4.043,2.537-4.622c0.334-0.341,0.684-0.511,1.053-0.511
		c0.254,0,0.459,0.093,0.615,0.278c0.158,0.186,0.236,0.449,0.236,0.79c0,0.591-0.143,1.087-0.426,1.488
		c-0.182,0.256-0.385,0.384-0.607,0.384c-0.242,0-0.424-0.112-0.545-0.338c-0.119-0.226-0.205-0.357-0.252-0.397
		c-0.049-0.039-0.102-0.06-0.154-0.06c-0.061,0-0.125,0.019-0.191,0.056c-0.133,0.072-0.307,0.251-0.521,0.534
		s-0.479,0.756-0.793,1.42c-0.314,0.663-0.559,1.226-0.734,1.685c-0.176,0.46-0.42,1.335-0.734,2.626h-2.193l1.496-6.055
		c0.109-0.451,0.164-0.749,0.164-0.896c0-0.164-0.029-0.292-0.088-0.384c-0.057-0.091-0.135-0.158-0.234-0.2
		c-0.1-0.043-0.307-0.064-0.621-0.064l0.082-0.265l2.736-0.603H250.091z"/>
	<path fill="#FFCB05" d="M262.554,163.209l-1.758,6.073l-0.182,0.739c-0.018,0.092-0.027,0.158-0.027,0.201
		c0,0.073,0.025,0.137,0.078,0.191c0.051,0.055,0.104,0.083,0.158,0.083c0.127,0,0.301-0.098,0.525-0.293
		c0.09-0.079,0.309-0.359,0.652-0.84l0.318,0.164c-0.43,0.792-0.889,1.369-1.375,1.73c-0.486,0.362-1.01,0.544-1.572,0.544
		c-0.344,0-0.607-0.09-0.789-0.27c-0.18-0.18-0.271-0.406-0.271-0.681c0-0.237,0.098-0.679,0.291-1.324l0.217-0.739
		c-0.701,1.211-1.375,2.07-2.021,2.575c-0.375,0.292-0.773,0.438-1.197,0.438c-0.555,0-0.957-0.23-1.205-0.689
		c-0.248-0.46-0.371-0.979-0.371-1.558c0-0.858,0.26-1.843,0.779-2.954s1.203-2.005,2.049-2.681c0.695-0.56,1.348-0.84,1.957-0.84
		c0.34,0,0.611,0.099,0.816,0.297c0.205,0.197,0.357,0.559,0.453,1.082l0.326-1.123L262.554,163.209z M259.654,164.945
		c0-0.493-0.076-0.85-0.227-1.069c-0.109-0.151-0.258-0.228-0.443-0.228c-0.188,0-0.381,0.091-0.58,0.273
		c-0.406,0.378-0.842,1.144-1.311,2.297c-0.469,1.154-0.703,2.151-0.703,2.991c0,0.322,0.053,0.556,0.158,0.698
		c0.107,0.144,0.223,0.215,0.35,0.215c0.271,0,0.547-0.158,0.824-0.475c0.4-0.451,0.76-1.002,1.08-1.653
		C259.371,166.85,259.654,165.833,259.654,164.945z"/>
	<path fill="#FFCB05" d="M272.044,159.164h9.889L281,162.497h-0.326c0.012-0.177,0.018-0.332,0.018-0.466
		c0-0.633-0.184-1.125-0.553-1.475c-0.369-0.351-0.99-0.55-1.867-0.599l-2.738,9.325c-0.15,0.518-0.227,0.9-0.227,1.15
		c0,0.231,0.094,0.416,0.281,0.553s0.568,0.212,1.143,0.224l-0.082,0.338h-6.1l0.107-0.338c0.623,0,1.076-0.117,1.361-0.352
		c0.283-0.234,0.543-0.76,0.779-1.575l2.736-9.325c-0.941,0.031-1.73,0.237-2.365,0.621s-1.215,1.023-1.74,1.918h-0.354
		L272.044,159.164z"/>
	<path fill="#FFCB05" d="M284.861,163.082l-1.369,5.133c1.123-2.503,1.971-4.043,2.537-4.622c0.334-0.341,0.684-0.511,1.053-0.511
		c0.254,0,0.459,0.093,0.615,0.278c0.158,0.186,0.236,0.449,0.236,0.79c0,0.591-0.143,1.087-0.426,1.488
		c-0.182,0.256-0.385,0.384-0.607,0.384c-0.242,0-0.424-0.112-0.545-0.338c-0.119-0.226-0.205-0.357-0.252-0.397
		c-0.049-0.039-0.102-0.06-0.154-0.06c-0.061,0-0.125,0.019-0.191,0.056c-0.133,0.072-0.307,0.251-0.521,0.534
		s-0.479,0.756-0.793,1.42c-0.314,0.663-0.559,1.226-0.734,1.685c-0.176,0.46-0.42,1.335-0.734,2.626h-2.193l1.496-6.055
		c0.109-0.451,0.164-0.749,0.164-0.896c0-0.164-0.029-0.292-0.088-0.384c-0.057-0.091-0.135-0.158-0.234-0.2
		c-0.1-0.043-0.307-0.064-0.621-0.064l0.082-0.265l2.736-0.603H284.861z"/>
	<path fill="#FFCB05" d="M293.363,163.082l-1.76,6.21c-0.084,0.286-0.127,0.484-0.127,0.594c0,0.055,0.021,0.098,0.064,0.128
		c0.047,0.049,0.105,0.073,0.172,0.073c0.277,0,0.648-0.25,1.115-0.749c0.664-0.725,1.361-1.766,2.094-3.124l0.824-2.794
		l2.293-0.082l-1.74,6.027c-0.145,0.512-0.217,0.804-0.217,0.877c0,0.049,0.021,0.099,0.068,0.15
		c0.045,0.052,0.092,0.077,0.141,0.077c0.084,0,0.166-0.036,0.244-0.109c0.217-0.177,0.504-0.532,0.861-1.068l0.309,0.22
		c-0.84,1.528-1.766,2.292-2.775,2.292c-0.373,0-0.668-0.096-0.883-0.288c-0.215-0.191-0.322-0.442-0.322-0.753
		c0-0.329,0.076-0.746,0.227-1.251l0.445-1.544c-0.787,1.15-1.357,1.927-1.715,2.329c-0.543,0.603-1,1.004-1.373,1.205
		c-0.371,0.201-0.727,0.302-1.064,0.302c-0.32,0-0.598-0.119-0.83-0.356s-0.348-0.539-0.348-0.904c0-0.311,0.074-0.728,0.227-1.251
		l1.023-3.653c0.17-0.597,0.254-0.998,0.254-1.205c0-0.092-0.023-0.172-0.072-0.242s-0.129-0.125-0.24-0.164
		c-0.111-0.04-0.318-0.06-0.621-0.06l0.09-0.348l3.092-0.538H293.363z"/>
	<path fill="#FFCB05" d="M306.406,163.082l-0.398,2.821h-0.336c-0.049-0.73-0.271-1.306-0.666-1.726
		c-0.396-0.42-0.82-0.63-1.273-0.63c-0.279,0-0.508,0.082-0.689,0.246c-0.182,0.165-0.271,0.362-0.271,0.594
		c0,0.195,0.039,0.378,0.117,0.548c0.078,0.171,0.254,0.402,0.525,0.694c0.955,1.035,1.535,1.747,1.74,2.137
		s0.309,0.807,0.309,1.252c0,0.48-0.121,0.936-0.363,1.365c-0.24,0.429-0.602,0.772-1.082,1.031s-0.98,0.389-1.5,0.389
		c-0.352,0-0.783-0.07-1.297-0.21c-0.338-0.098-0.592-0.146-0.762-0.146c-0.15,0-0.27,0.023-0.354,0.068
		c-0.084,0.046-0.178,0.142-0.281,0.288h-0.334l0.443-3.041h0.291c0.211,0.736,0.408,1.262,0.594,1.575
		c0.184,0.313,0.43,0.563,0.738,0.749s0.604,0.278,0.889,0.278c0.332,0,0.607-0.105,0.824-0.315s0.326-0.461,0.326-0.753
		c0-0.286-0.07-0.563-0.213-0.831c-0.143-0.269-0.471-0.686-0.984-1.251c-0.707-0.773-1.172-1.37-1.395-1.79
		c-0.158-0.305-0.236-0.652-0.236-1.042c0-0.657,0.236-1.205,0.711-1.644s1.141-0.657,2-0.657c0.375,0,0.834,0.066,1.377,0.2
		c0.271,0.067,0.49,0.101,0.652,0.101c0.236,0,0.426-0.101,0.572-0.301H306.406z"/>
	<path fill="#FFCB05" d="M312.787,160.853l-0.725,2.484h1.188l-0.318,1.05h-1.168l-1.514,5.297
		c-0.098,0.329-0.146,0.579-0.146,0.749c0,0.079,0.027,0.147,0.082,0.205c0.055,0.059,0.115,0.087,0.182,0.087
		c0.102,0,0.209-0.042,0.316-0.128c0.279-0.213,0.602-0.584,0.971-1.114l0.316,0.201c-0.416,0.73-0.875,1.267-1.377,1.607
		s-0.994,0.512-1.479,0.512c-0.41,0-0.729-0.105-0.955-0.315s-0.34-0.477-0.34-0.799c0-0.354,0.078-0.807,0.234-1.361l1.434-4.94
		h-1.232l0.18-0.676c0.773-0.286,1.428-0.621,1.959-1.005c0.531-0.383,1.172-1.001,1.922-1.854H312.787z"/>
</g>
<g>
	<path fill="#FFCB05" d="M264.853,178.989c0.576-0.246,1.021-0.668,1.438-1.123c0.109-0.121,0.133-0.121,0.236,0.01
		c0.086,0.108,0.158,0.105,0.234-0.003c0.113-0.174,0.078-0.467-0.063-0.619c-0.041-0.04-0.076-0.097-0.08-0.149
		c-0.006-0.087,0.02-0.176,0.027-0.264c0.023-0.297,0.035-0.591-0.063-0.872c-0.119-0.345-0.373-0.439-0.695-0.275
		c-0.4,0.21-0.594,0.577-0.748,0.969c-0.135,0.319,0.014,0.546,0.232,0.693c0.162,0.106,0.336,0.2,0.52,0.312
		c-0.047,0.056-0.09,0.117-0.143,0.17c-0.418,0.422-0.904,0.753-1.422,1.046c-0.141,0.079-0.314,0.133-0.383,0.335
		c0.061,0,0.104,0.011,0.146,0C264.347,179.145,264.609,179.09,264.853,178.989z M265.566,176.619c-0.02-0.026,0-0.131,0.031-0.143
		c0.137-0.065,0.285-0.135,0.432-0.161c0.115-0.021,0.221,0.133,0.24,0.296c0,0.041,0,0.082,0,0.119c0,0.102,0,0.2,0,0.323
		C265.97,176.983,265.74,176.836,265.566,176.619z"/>
	<path fill="#FFCB05" d="M186.435,184.967c0.035-0.389,0.057-0.785,0.137-1.168c0.076-0.379-0.084-0.514-0.412-0.635
		c-0.633-0.229-1.328-0.415-1.541-1.277c-0.246,0.824-0.387,1.623-0.498,2.422c-0.018,0.098,0.088,0.281,0.174,0.311
		c0.402,0.14,0.426,0.466,0.475,0.802c0.26,1.887,0.525,3.771,0.791,5.659c0.141,1.021,0.275,2.041,0.412,3.087
		c-1.229,0-2.383,0-3.541,0c-0.449-2.954-0.885-5.879-1.33-8.839c0.207,0.034,0.359,0.061,0.584,0.095
		c0.092-0.7,0.17-1.377,0.256-2.031c-0.758-0.428-1.734-0.435-1.984-1.498c-0.197,0.48-0.371,0.921-0.42,1.379
		c-0.063,0.547-0.422,1.203,0.391,1.571c0.092,0.045,0.098,0.322,0.121,0.49c0.271,1.848,0.535,3.693,0.791,5.541
		c0.15,1.085,0.287,2.169,0.449,3.331c-1.205,0-2.346-0.039-3.477,0.013c-0.697,0.03-1.258-0.173-1.77-0.622
		c-0.938-0.813-1.873-1.623-2.826-2.41c-0.795-0.657-1.647-1.216-2.676-1.428c-1.377-0.278-2.747,0.577-3.082,1.971
		c2.564-0.4,4.459,0.899,6.434,2.436c-0.24,0.021-0.336,0.038-0.428,0.038c-3.147,0-6.292,0.01-9.435-0.007
		c-1.331-0.01-1.797-0.671-1.473-2.041c0.482-0.077,0.987-0.147,1.489-0.256c0.187-0.042,0.459-0.149,0.501-0.286
		c0.174-0.51,0.263-1.043,0.4-1.652c-1.777,0.31-3.446,0.104-5.128-0.122c-0.803-0.108-1.646-0.092-2.462-0.02
		c-1.442,0.131-2.364,0.978-2.571,2.225c0.774-0.092,1.551-0.222,2.325-0.268c0.8-0.047,1.603-0.01,2.403-0.01
		c0.016,0.069,0.029,0.14,0.046,0.207c-0.594,0.336-1.187,0.659-1.771,1.003c-2.314,1.364-3.531,3.313-3.367,6.075
		c0.128,2.092,1.259,3.805,3.292,4.425c1.226,0.372,2.544,0.423,3.803,0.686c1.744,0.365,2.649-0.987,3.849-1.826
		c-1.37-0.127-2.725-0.062-4.062-0.144c-1.623-0.102-3.193-0.479-4.554-1.431c-1.879-1.318-2.197-3.739-0.692-5.454
		c1.538-1.759,3.698-2.333,5.876-3.031c-0.05,0.338-0.076,0.608-0.122,0.874c-0.367,2.105,0.335,2.956,2.485,2.956
		c7.37,0.003,14.747,0.001,22.124,0c0.203,0,0.416-0.021,0.699-0.033c0.029-3.66-0.955-7.15-1.285-10.771
		C186.277,185.537,186.406,185.336,186.435,184.967z"/>
	<path fill="#FFCB05" d="M230.853,185.802c-0.092-0.99-0.252-1.976-0.373-2.964c-0.043,0.005-0.096,0.008-0.141,0.012
		c-0.279,0.561-0.551,1.119-0.82,1.687c-0.053,0.113-0.068,0.264-0.057,0.394c0.066,0.623,0.152,1.244,0.211,1.868
		c0.318,3.043,0.793,6.072,0.666,9.147c-0.008,0.135,0.021,0.272,0.055,0.543c0.758-1.104,1.189-2.172,1.105-3.362
		C231.322,190.68,231.083,188.242,230.853,185.802z"/>
	<path fill="#FFCB05" d="M277.289,193.056c-0.129-2.036-0.316-4.069-0.521-6.101c-0.135-1.38-0.342-2.75-0.516-4.131
		c-0.367,0.497-0.648,1.01-0.869,1.543c-0.102,0.236-0.133,0.524-0.111,0.778c0.283,3.207,0.588,6.41,0.869,9.616
		c0.047,0.515,0.01,1.041,0.01,1.563C276.957,195.364,277.367,194.266,277.289,193.056z"/>
	<path fill="#FFCB05" d="M136.692,185.597c-0.092-0.92-0.242-1.838-0.367-2.754c-0.072-0.014-0.145-0.028-0.217-0.044
		c-0.262,0.778-0.708,1.547-0.74,2.337c-0.043,1.106,0.262,2.218,0.341,3.333c0.177,2.526,0.305,5.053,0.452,7.578
		c0.01,0.106,0.039,0.212,0.068,0.352c0.797-0.864,1.21-2.225,1.111-3.402C137.145,190.528,136.922,188.061,136.692,185.597z"/>
	<path fill="#FFCB05" d="M98.778,185.807c-0.623-0.321-1.193-0.613-1.803-0.93c-0.282,0.526-0.538,1.021-0.82,1.561
		c0.623,0.326,1.184,0.623,1.777,0.938C98.222,186.83,98.487,186.341,98.778,185.807z"/>
	<path fill="#FFCB05" d="M248.671,186.573c0.631,0.321,1.191,0.609,1.775,0.914c0.291-0.563,0.547-1.057,0.818-1.583
		c-0.613-0.315-1.164-0.599-1.783-0.915C249.201,185.537,248.947,186.037,248.671,186.573z"/>
	<path fill="#FFCB05" d="M238.689,184.576c0.6,0.316,1.154,0.602,1.764,0.921c0.299-0.565,0.551-1.057,0.826-1.585
		c-0.623-0.314-1.184-0.602-1.793-0.913C239.207,183.559,238.951,184.054,238.689,184.576z"/>
	<path fill="#FFCB05" d="M160.718,198.926c0.285-0.551,0.547-1.049,0.829-1.59c-0.6-0.316-1.163-0.613-1.751-0.927
		c-0.285,0.543-0.554,1.04-0.842,1.589C159.563,198.321,160.128,198.615,160.718,198.926z"/>
	<path fill="#FFCB05" d="M243.824,182.917c-0.623-0.317-1.203-0.614-1.807-0.924c-0.283,0.544-0.531,1.024-0.811,1.557
		c0.598,0.316,1.168,0.621,1.771,0.939C243.279,183.938,243.539,183.446,243.824,182.917z"/>
	<path fill="#FFCB05" d="M96.234,186.798c-0.609-0.306-1.193-0.604-1.797-0.913c-0.282,0.556-0.53,1.058-0.8,1.584
		c0.584,0.302,1.121,0.58,1.764,0.92C95.677,187.866,95.946,187.349,96.234,186.798z"/>
	<path fill="#FFCB05" d="M255.931,199.195c0.604,0.312,1.17,0.602,1.791,0.922c0.287-0.572,0.543-1.063,0.803-1.572
		c-0.607-0.33-1.154-0.623-1.742-0.938C256.492,198.147,256.22,198.656,255.931,199.195z"/>
	<path fill="#FFCB05" d="M200.455,184.909c0.504,0.353,0.982,0.68,1.523,1.053c0.342-0.558,0.641-1.048,0.959-1.576
		c-0.541-0.344-1.047-0.662-1.584-1C201.039,183.918,200.75,184.401,200.455,184.909z"/>
	<path fill="#FFCB05" d="M272.855,185.431c0.082-0.713,0.16-1.39,0.24-2.037c-0.775-0.433-1.748-0.451-2.018-1.52
		c-0.229,0.807-0.373,1.571-0.484,2.339c-0.018,0.125,0.059,0.365,0.141,0.391c0.443,0.134,0.443,0.493,0.494,0.841
		c0.08,0.563,0.154,1.126,0.234,1.691c0.334,2.328,0.658,4.659,0.986,7.029c-1.207,0-2.371,0-3.557,0
		c-0.439-2.952-0.879-5.872-1.328-8.894c0.449,0.227,0.615,0.079,0.648-0.262c0.049-0.432,0.125-0.859,0.119-1.288
		c-0.01-0.174-0.168-0.43-0.326-0.505c-0.639-0.301-1.393-0.443-1.611-1.347c-0.25,0.823-0.389,1.604-0.51,2.391
		c-0.016,0.106,0.066,0.313,0.145,0.339c0.521,0.168,0.479,0.617,0.537,1.007c0.266,1.867,0.521,3.734,0.785,5.602
		c0.131,0.98,0.266,1.962,0.406,2.998c-0.791,0-1.492,0-2.197,0c-2.4,0-2.373-0.032-4.186-1.57c-1.09-0.921-2.217-1.851-3.449-2.543
		c-1.676-0.936-3.424-0.18-4.027,1.625c1.223-0.118,2.395-0.07,3.443,0.498c1.012,0.551,1.977,1.193,2.967,1.795
		c-0.033,0.056-0.063,0.11-0.086,0.164c-2.672,0-5.34,0-8.041,0c-0.063-1.776,0.174-3.618-1.318-5.051
		c-0.191,0.381-0.328,0.745-0.527,1.074c-0.275,0.442-0.26,0.773,0.133,1.169c0.775,0.767,0.975,1.742,0.844,2.836
		c-2.066,0-4.086,0.015-6.111-0.019c-0.207-0.006-0.508-0.257-0.58-0.462c-0.244-0.659-0.449-1.34-0.594-2.027
		c-0.354-1.779-0.662-3.564-1.01-5.466c-0.547,0.647-0.936,1.236-0.719,1.993c0.125,0.437-0.045,0.577-0.383,0.759
		c-0.633,0.347-1.266,0.714-1.85,1.137c-0.777,0.57-1.512,1.209-1.875,2.147c-0.23,0.585-0.131,0.849,0.455,0.94
		c1.535,0.239,3.154,0.775,4.193-0.916c0.344,0.96,0.643,1.913,1.023,2.833c0.285,0.693,0.822,1,1.627,0.998
		c9.131-0.024,18.254-0.014,27.375-0.015c0.211,0,0.42-0.021,0.68-0.033c0.094-3.665-0.926-7.15-1.244-10.739
		C272.488,185.364,272.636,185.39,272.855,185.431z M241.148,191.887c-0.32-0.023-0.643-0.113-1.01-0.182
		c0.57-0.971,1.434-1.371,2.361-1.693C242.998,191.282,242.466,191.991,241.148,191.887z"/>
	<path fill="#FFCB05" d="M227.076,185.426c0.066-0.585,0.152-1.146,0.172-1.708c0.006-0.169-0.172-0.43-0.326-0.501
		c-0.645-0.296-1.393-0.449-1.615-1.348c-0.242,0.814-0.395,1.598-0.498,2.38c-0.018,0.125,0.145,0.275,0.223,0.408
		c0.125,0.198,0.34,0.38,0.373,0.59c0.283,1.861,0.535,3.731,0.801,5.597c0.154,1.101,0.314,2.198,0.465,3.309
		c-1.229,0-2.393,0-3.551,0c-0.035-0.561-0.045-1.074-0.107-1.579c-0.15-1.226-0.967-2.104-2.115-2.288
		c-0.971-0.157-1.961-0.125-2.82,0.328c-1.078,0.557-2.102,1.223-3.111,1.902c-1.156,0.784-2.396,1.33-3.76,1.607
		c-1.469,0.293-2.367-0.112-3.072-1.444c-0.248-0.487-0.436-1.01-0.648-1.521c-0.059-0.004-0.121-0.006-0.188-0.013
		c-0.055,0.34-0.127,0.676-0.15,1.015c-0.016,0.253,0.045,0.505,0.053,0.761c0.01,0.749-0.313,1.177-1.047,1.236
		c-0.721,0.056-1.445,0.01-2.268,0.01c0-0.841,0.094-1.64-0.02-2.406c-0.145-0.917-0.336-1.867-0.744-2.688
		c-0.559-1.118-1.883-1.164-2.686-0.197c-0.531,0.633-0.855,1.367-0.926,2.197c-0.121,1.455,0.42,2.188,1.863,2.524
		c0.504,0.116,1.016,0.22,1.521,0.322c-0.365,0.174-0.725,0.256-1.082,0.26c-1.67,0.021-3.342,0.022-5.018,0.027
		c-0.74,0-1.094-0.21-1.268-0.949c-0.178-0.761-0.313-1.539-0.361-2.319c-0.121-1.787-0.137-3.577-0.271-5.359
		c-0.068-0.945-0.299-1.877-0.459-2.815c-0.059-0.004-0.119-0.007-0.174-0.014c-0.385,0.61-0.777,1.21-1.145,1.829
		c-0.057,0.088,0.029,0.274,0.078,0.402c0.26,0.662,0.68,1.307,0.768,1.993c0.211,1.573,0.213,3.174,0.387,4.756
		c0.119,1.088,0.314,2.17,0.588,3.23c0.199,0.782,0.793,1.159,1.635,1.152c3.018-0.021,6.023-0.005,9.029-0.005
		c0.662-0.001,1.293-0.088,1.854-0.493c0.121-0.082,0.379-0.087,0.512-0.01c0.703,0.408,1.469,0.508,2.266,0.505
		c5.59-0.008,11.172-0.002,16.76-0.002c0.232,0,0.455,0,0.76,0c0.129-3.688-0.928-7.172-1.217-10.769
		C226.699,185.364,226.843,185.389,227.076,185.426z M202.837,192.298c-0.439-0.07-0.895-0.082-1.311-0.22
		c-0.295-0.1-0.594-0.319-0.783-0.566c-0.303-0.386-0.197-0.968,0.156-1.217c0.43-0.295,0.885-0.207,1.158,0.169
		c0.369,0.522,0.625,1.129,0.928,1.698C202.937,192.209,202.886,192.252,202.837,192.298z M220.513,194.069
		c-0.174,0.044-0.348,0.099-0.525,0.102c-1.938,0.009-3.875,0.005-5.816,0.005c-0.023-0.063-0.045-0.128-0.064-0.191
		c1.305-0.55,2.59-1.146,3.92-1.631c0.85-0.311,1.744-0.179,2.588,0.163c0.387,0.159,0.686,0.405,0.654,0.869
		C221.248,193.852,220.882,193.975,220.513,194.069z"/>
	<path fill="#FFCB05" d="M132.935,185.389c0.063-0.561,0.099-1.089,0.19-1.605c0.065-0.349-0.065-0.484-0.374-0.6
		c-0.646-0.241-1.377-0.401-1.596-1.3c-0.25,0.846-0.388,1.664-0.492,2.483c-0.014,0.087,0.154,0.193,0.227,0.295
		c0.141,0.213,0.354,0.42,0.39,0.65c0.331,2.193,0.636,4.393,0.94,6.591c0.105,0.745,0.197,1.498,0.292,2.283
		c-1.872,0-3.659,0.026-5.442-0.021c-0.423-0.013-0.839-0.287-1.229-0.428c0.351-0.403,0.601-0.705,0.866-0.995
		c0.967-1.072,0.721-2.198-0.689-2.541c-0.943-0.23-1.979-0.247-2.957-0.146c-1.232,0.124-1.836,1.372-1.383,2.554
		c0.977-0.568,1.531-0.382,1.993,0.697c-1.128,0.636-2.328,0.981-3.646,0.858c-0.178-1.326-0.807-2.406-1.469-3.477
		c-0.407-0.671-0.414-0.669-1.129-0.312c-1.141,0.57-1.967,1.488-2.724,2.476c-0.912,1.191-2.135,1.51-3.623,1.298
		c0.104-1.758-0.387-3.275-1.784-4.41c-0.557,0.943-0.734,1.751,0.112,2.69c0.783,0.874,1.153,2.012,0.721,3.239
		c-0.816,2.319-3.862,4.473-6.321,4.403c-0.779-0.021-1.547-0.217-2.327-0.326c-0.259-0.038-0.564-0.128-0.571,0.38
		c0.873,0.312,1.758,0.615,2.64,0.937c1.708,0.621,3.288,0.405,4.698-0.754c0.649-0.534,1.305-1.094,1.816-1.751
		c0.42-0.539,0.729-1.213,0.912-1.877c0.127-0.464,0.271-0.608,0.728-0.58c1.384,0.073,2.688-0.102,3.593-1.394
		c1.391,1.119,2.947,1.45,4.659,1.419c1.698-0.03,3.266-0.342,4.609-1.475c0.816,1.15,1.928,1.48,3.22,1.46
		c1.731-0.024,3.463-0.003,5.193-0.006c0.207,0,0.41-0.03,0.676-0.048c0.029-3.659-0.947-7.131-1.282-10.706
		C132.552,185.363,132.706,185.375,132.935,185.389z M116.175,192.936c0.068-0.128,0.099-0.278,0.19-0.354
		c0.38-0.316,0.776-0.615,1.17-0.917c0.259,0.351,0.564,0.677,0.768,1.058c0.206,0.385,0.312,0.826,0.515,1.39
		C117.709,193.964,116.902,193.585,116.175,192.936z"/>
	<path fill="#FFCB05" d="M146.544,190.696c-0.757-0.076-1.32,0.337-1.59,0.984c-0.295,0.707-0.567,1.476-0.613,2.234
		c-0.075,1.238,0.672,1.976,1.947,2.145c0.332,0.048,0.659,0.074,1.171,0.128c-0.767,0.857-1.413,1.64-2.124,2.353
		c-0.794,0.797-1.754,1.403-2.879,1.475c-0.941,0.06-1.898-0.15-2.846-0.232c-0.21-0.021-0.427-0.003-0.637-0.003
		c-0.013,0.126-0.02,0.249-0.032,0.375c1.282,0.305,2.563,0.657,3.855,0.907c1.036,0.196,2.007-0.107,2.807-0.779
		c1.456-1.218,2.439-2.737,2.472-4.688c0.02-1.169-0.065-2.348-0.22-3.508C147.761,191.382,147.36,190.774,146.544,190.696z
		 M147.302,194.348c-0.479-0.115-1.003-0.151-1.423-0.379c-0.263-0.14-0.452-0.563-0.492-0.884c-0.02-0.181,0.315-0.558,0.519-0.579
		c0.295-0.031,0.74,0.087,0.911,0.309c0.302,0.375,0.439,0.877,0.649,1.326C147.41,194.209,147.354,194.279,147.302,194.348z"/>
	<path fill="#FFCB05" d="M98.864,191.327c-0.876-0.616-1.813-1.142-2.754-1.729c-0.099,0.229-0.164,0.348-0.207,0.476
		c-0.42,1.244-0.853,2.487-1.242,3.743c-0.125,0.385-0.158,0.803-0.19,1.211c-0.046,0.563,0.249,0.93,0.747,1.145
		c0.836,0.362,1.686,0.29,2.535,0.063c1.032-0.276,1.646-0.959,1.875-1.981C99.874,193.156,99.91,192.066,98.864,191.327z
		 M98.408,194.179c-0.515,0.264-1.075,0.419-1.387,0.537c-1.128,0.005-1.662-0.747-1.374-1.568c0.043-0.128,0.108-0.255,0.178-0.371
		c0.479-0.769,0.58-0.805,1.363-0.372c0.442,0.244,0.882,0.509,1.279,0.821C98.93,193.597,98.917,193.915,98.408,194.179z"/>
	<path fill="#FFCB05" d="M239.693,179.546c0.088,0.084,0.166,0.159,0.248,0.237c0.256-0.252,0.264-0.508,0.047-0.74
		c-0.029-0.038-0.068-0.091-0.068-0.135c0-0.316,0.021-0.633,0.016-0.945c-0.01-0.289-0.178-0.51-0.404-0.54
		c-0.205-0.027-0.387,0.065-0.541,0.202c-0.229,0.208-0.402,0.45-0.51,0.742c-0.135,0.348-0.096,0.597,0.209,0.79
		c0.168,0.106,0.338,0.208,0.512,0.313c-0.02,0.031-0.039,0.061-0.063,0.084c-0.453,0.481-0.994,0.836-1.564,1.157
		c-0.121,0.07-0.227,0.167-0.34,0.247c0.01,0.023,0.021,0.048,0.033,0.07c0.107-0.008,0.219,0,0.324-0.029
		C238.451,180.759,239.128,180.249,239.693,179.546z M238.876,178.427c-0.023-0.028-0.014-0.128,0.01-0.144
		c0.121-0.062,0.242-0.132,0.377-0.155c0.166-0.031,0.268,0.048,0.289,0.218c0.02,0.162,0.002,0.33,0.002,0.502
		C239.269,178.78,239.05,178.64,238.876,178.427z"/>
	<path fill="#FFCB05" d="M95.468,181.353c0.092,0.085,0.17,0.161,0.256,0.237c0.255-0.254,0.258-0.508,0.045-0.742
		c-0.035-0.038-0.072-0.089-0.072-0.136c0-0.315,0.023-0.632,0.014-0.944c-0.007-0.287-0.174-0.509-0.4-0.54
		c-0.206-0.027-0.387,0.067-0.537,0.204c-0.229,0.206-0.403,0.449-0.515,0.74c-0.135,0.35-0.096,0.601,0.213,0.794
		c0.164,0.103,0.334,0.205,0.508,0.313c-0.022,0.03-0.042,0.058-0.062,0.084c-0.453,0.478-0.997,0.835-1.564,1.157
		c-0.118,0.069-0.227,0.164-0.338,0.246c0.007,0.024,0.02,0.046,0.026,0.068c0.111-0.01,0.227,0,0.328-0.029
		C94.228,182.565,94.907,182.054,95.468,181.353z M94.654,180.232c-0.026-0.028-0.013-0.128,0.01-0.142
		c0.121-0.063,0.246-0.134,0.377-0.157c0.171-0.027,0.269,0.05,0.288,0.218c0.021,0.164,0.004,0.332,0.004,0.502
		C95.048,180.587,94.825,180.448,94.654,180.232z"/>
	<path fill="#FFCB05" d="M122.811,187.661c0.859-0.239,1.534-0.754,2.099-1.452c0.088,0.084,0.17,0.159,0.252,0.237
		c0.256-0.254,0.26-0.508,0.043-0.742c-0.033-0.038-0.068-0.089-0.068-0.136c0.003-0.315,0.022-0.63,0.016-0.944
		c-0.01-0.287-0.177-0.512-0.403-0.539c-0.206-0.028-0.384,0.066-0.537,0.203c-0.229,0.206-0.403,0.449-0.515,0.74
		c-0.132,0.35-0.092,0.601,0.209,0.794c0.168,0.104,0.338,0.205,0.512,0.313c-0.02,0.03-0.039,0.057-0.063,0.082
		c-0.452,0.479-0.993,0.834-1.563,1.158c-0.118,0.069-0.227,0.164-0.338,0.248c0.01,0.022,0.02,0.044,0.03,0.066
		C122.595,187.68,122.706,187.689,122.811,187.661z M124.093,185.087c-0.023-0.029-0.01-0.128,0.01-0.142
		c0.121-0.063,0.249-0.134,0.38-0.158c0.164-0.029,0.266,0.051,0.286,0.22c0.02,0.162,0.003,0.329,0.003,0.503
		C124.489,185.443,124.267,185.302,124.093,185.087z"/>
	<path fill="#FFCB05" d="M169.629,185.984c0.394-0.126,0.81-0.21,0.94-0.688c0-0.003,0.01-0.007,0.01-0.01
		c0.057-0.116,0.119-0.232,0.184-0.367c-0.052-0.002-0.059-0.005-0.071-0.003c-0.968,0.306-1.938,0.619-2.908,0.921
		c-0.278,0.085-0.521,0.191-0.604,0.503c-0.01,0.043-0.049,0.076-0.069,0.116c-0.062,0.12-0.124,0.24-0.203,0.397
		c0.105-0.021,0.164-0.028,0.217-0.044C167.957,186.535,168.793,186.257,169.629,185.984z"/>
	<path fill="#FFCB05" d="M186.919,197.956c-0.969,0.31-1.938,0.621-2.908,0.923c-0.277,0.084-0.52,0.19-0.605,0.502
		c-0.014,0.042-0.053,0.075-0.068,0.114c-0.063,0.122-0.121,0.243-0.203,0.402c0.104-0.023,0.164-0.029,0.215-0.046
		c0.836-0.275,1.672-0.551,2.506-0.826c0.391-0.125,0.809-0.209,0.941-0.686c0-0.007,0.006-0.007,0.01-0.012
		c0.059-0.116,0.117-0.234,0.186-0.367C186.939,197.956,186.927,197.954,186.919,197.956z"/>
	<path fill="#FFCB05" d="M200.556,181.13c0.393-0.128,0.809-0.21,0.941-0.688c0.002-0.004,0.012-0.005,0.012-0.012
		c0.057-0.115,0.115-0.231,0.184-0.365c-0.053-0.004-0.064-0.007-0.072-0.004c-0.969,0.307-1.938,0.618-2.908,0.92
		c-0.277,0.085-0.52,0.191-0.602,0.505c-0.018,0.041-0.051,0.073-0.072,0.114c-0.061,0.12-0.121,0.241-0.197,0.4
		c0.098-0.023,0.158-0.029,0.209-0.048C198.886,181.679,199.722,181.402,200.556,181.13z"/>
	<path fill="#FFCB05" d="M214.23,186.059c0.391-0.126,0.807-0.209,0.939-0.687c0-0.005,0.01-0.005,0.01-0.012
		c0.061-0.116,0.117-0.231,0.184-0.367c-0.051-0.001-0.061-0.005-0.07-0.001c-0.971,0.306-1.938,0.617-2.91,0.919
		c-0.273,0.085-0.52,0.192-0.604,0.504c-0.01,0.042-0.049,0.075-0.068,0.112c-0.063,0.123-0.119,0.243-0.201,0.4
		c0.105-0.021,0.16-0.026,0.217-0.044C212.556,186.61,213.392,186.333,214.23,186.059z"/>
	<path fill="#FFCB05" d="M249.466,182.899c0.387-0.128,0.809-0.212,0.939-0.688c0-0.003,0.008-0.005,0.008-0.012
		c0.063-0.116,0.117-0.231,0.188-0.365c-0.051-0.004-0.063-0.007-0.076-0.004c-0.965,0.307-1.934,0.62-2.904,0.92
		c-0.279,0.087-0.521,0.192-0.604,0.505c-0.014,0.041-0.049,0.074-0.068,0.113c-0.063,0.121-0.125,0.242-0.205,0.401
		c0.102-0.024,0.162-0.029,0.215-0.047C247.794,183.448,248.63,183.17,249.466,182.899z"/>
	<path fill="#FFCB05" d="M145.538,188.487c0.387-0.126,0.81-0.209,0.94-0.688c0-0.003,0.01-0.006,0.01-0.01
		c0.06-0.116,0.118-0.234,0.184-0.367c-0.052-0.001-0.062-0.005-0.071-0.003c-0.968,0.309-1.935,0.619-2.908,0.921
		c-0.275,0.086-0.521,0.192-0.604,0.504c-0.01,0.039-0.049,0.075-0.069,0.114c-0.062,0.121-0.121,0.243-0.203,0.4
		c0.105-0.023,0.164-0.028,0.217-0.046C143.866,189.038,144.698,188.759,145.538,188.487z"/>
	<path fill="#FFCB05" d="M107.29,187.237c0.39-0.128,0.807-0.212,0.938-0.689c0.004-0.003,0.01-0.004,0.014-0.011
		c0.059-0.115,0.117-0.231,0.184-0.366c-0.053-0.003-0.066-0.005-0.072-0.003c-0.971,0.307-1.935,0.62-2.908,0.92
		c-0.279,0.087-0.521,0.191-0.607,0.505c-0.01,0.041-0.045,0.073-0.068,0.113c-0.059,0.121-0.121,0.242-0.2,0.399
		c0.105-0.022,0.164-0.027,0.217-0.046C105.618,187.786,106.45,187.508,107.29,187.237z"/>
	<path fill="#FFCB05" d="M212.425,187.921c-0.076,0.038-0.135,0.053-0.172,0.089c-0.285,0.312-0.348,0.68-0.246,1.08
		c0.037,0.159,0.148,0.268,0.289,0.31c0.314,0.096,0.617,0.063,0.859-0.18c0.111-0.111,0.207-0.241,0.309-0.367
		c0.029,0.022,0.059,0.047,0.092,0.071c0.291,0.268,0.764,0.245,1.025-0.057c0.299-0.345,0.363-0.753,0.314-1.188
		c-0.016-0.127-0.02-0.27-0.166-0.355c-0.051,0.099-0.09,0.195-0.145,0.28c-0.092,0.146-0.111,0.277-0.037,0.444
		c0.092,0.215,0.057,0.253-0.16,0.348c-0.033,0.017-0.072,0.034-0.111,0.041c-0.301,0.064-0.57-0.053-0.547-0.421
		c0.006-0.077-0.01-0.157-0.031-0.233c-0.006-0.037-0.051-0.1-0.064-0.097c-0.047,0.017-0.105,0.044-0.121,0.084
		c-0.033,0.07-0.043,0.15-0.057,0.229c-0.045,0.406-0.275,0.677-0.652,0.813c-0.348,0.128-0.594-0.093-0.512-0.454
		C212.326,188.227,212.373,188.097,212.425,187.921z"/>
	<path fill="#FFCB05" d="M264.25,181.075c0.314,0.093,0.615,0.059,0.857-0.183c0.109-0.111,0.201-0.241,0.309-0.367
		c0.027,0.021,0.057,0.05,0.086,0.074c0.299,0.264,0.768,0.241,1.029-0.061c0.301-0.341,0.367-0.751,0.314-1.188
		c-0.016-0.128-0.016-0.271-0.164-0.355c-0.049,0.101-0.088,0.195-0.146,0.28c-0.09,0.146-0.109,0.277-0.033,0.446
		c0.092,0.213,0.055,0.252-0.16,0.348c-0.039,0.015-0.072,0.032-0.111,0.042c-0.303,0.061-0.578-0.053-0.549-0.423
		c0.004-0.079-0.012-0.157-0.029-0.234c-0.006-0.038-0.055-0.097-0.068-0.095c-0.043,0.015-0.105,0.042-0.119,0.083
		c-0.035,0.069-0.049,0.151-0.055,0.229c-0.049,0.408-0.275,0.679-0.652,0.814c-0.352,0.124-0.594-0.094-0.512-0.456
		c0.025-0.133,0.076-0.262,0.127-0.436c-0.07,0.037-0.131,0.049-0.166,0.087c-0.285,0.313-0.348,0.68-0.25,1.082
		C263.994,180.922,264.105,181.032,264.25,181.075z"/>
	<path fill="#FFCB05" d="M159.111,185.587c0.314,0.095,0.616,0.063,0.858-0.183c0.111-0.109,0.203-0.238,0.309-0.367
		c0.026,0.023,0.059,0.05,0.085,0.074c0.299,0.268,0.771,0.241,1.033-0.059c0.298-0.343,0.364-0.751,0.312-1.186
		c-0.014-0.13-0.017-0.273-0.164-0.355c-0.053,0.097-0.089,0.193-0.145,0.28c-0.092,0.144-0.111,0.275-0.039,0.444
		c0.095,0.213,0.059,0.25-0.157,0.348c-0.04,0.016-0.072,0.032-0.111,0.041c-0.302,0.063-0.577-0.053-0.552-0.424
		c0.011-0.076-0.006-0.157-0.025-0.232c-0.007-0.038-0.053-0.099-0.066-0.097c-0.045,0.019-0.104,0.044-0.124,0.085
		c-0.029,0.07-0.039,0.151-0.053,0.229c-0.046,0.408-0.275,0.679-0.649,0.814c-0.354,0.125-0.596-0.096-0.514-0.454
		c0.029-0.135,0.078-0.264,0.131-0.438c-0.076,0.036-0.135,0.051-0.168,0.087c-0.288,0.313-0.351,0.68-0.252,1.08
		C158.855,185.436,158.967,185.544,159.111,185.587z"/>
	<path fill="#FFCB05" d="M159.449,187.421c0.561-0.251,1.118-0.503,1.675-0.762c0.141-0.065,0.321-0.116,0.4-0.234
		c0.145-0.222,0.223-0.482,0.334-0.727c-0.01-0.013-0.02-0.026-0.029-0.038c-0.102,0.043-0.203,0.077-0.305,0.122
		c-0.617,0.275-1.232,0.559-1.855,0.821c-0.61,0.256-0.617,0.245-0.908,0.836c-0.026,0.054-0.057,0.104-0.076,0.16
		c-0.02,0.039-0.029,0.082-0.039,0.123c0.01,0.012,0.023,0.024,0.033,0.036C158.935,187.648,159.193,187.538,159.449,187.421z"/>
</g>
</svg>
