<?xml version="1.0" encoding="utf-8"?>
<!-- Generator: Adobe Illustrator 16.0.0, SVG Export Plug-In . SVG Version: 6.00 Build 0)  -->
<!DOCTYPE svg PUBLIC "-//W3C//DTD SVG 1.1//EN" "http://www.w3.org/Graphics/SVG/1.1/DTD/svg11.dtd">
<svg version="1.1" id="Layer_1" xmlns="http://www.w3.org/2000/svg" xmlns:xlink="http://www.w3.org/1999/xlink" x="0px" y="0px"
	 width="362.637px" height="229.67px" viewBox="0 0 362.637 229.67" enable-background="new 0 0 362.637 229.67"
	 xml:space="preserve">
<g>
	<path fill="#FFCB05" d="M166.29,53.444c0.944,1.102,4.459,1.627,5.718,1.994s6.649,1.717,6.649,1.717s3.989,1.273,5.354,2.322
		s3.472,2.447,5.046,3.496c1.573,1.049,3.252,1.959,5.455,2.799s4.406,1.363,5.246,1.469c-0.314,0.629-0.42,0.629-0.734,1.363
		s-0.944,2.623-1.049,3.883c-0.105,1.258,0.42,0.838,1.154,1.363s1.504,1.574,1.819,1.574c0.314,0,1.223-0.314,1.853,0.838
		c0.629,1.154,1.259,1.154,1.993,1.154s1.679-1.154,1.679-1.154s1.259,0.631,1.573,0.84c0.315,0.211,0.63,0.631,1.784,1.469
		c1.153,0.84,2.308,0.682,2.308,0.682l1.154-1.205c0,0,1.259,0.943,2.308,1.154c1.05,0.209,1.469-0.211,1.574-1.154
		c0.104-0.945,0.734-0.84,0.734-0.84s0.944,0,1.783,0c0.84,0,1.364-1.049,1.049-1.994c-0.314-0.943,0.492-0.768,0.492-0.768
		s0.033-0.596,1.396-0.701c1.364-0.104,0.63-1.469,0.42-2.518s-1.259-2.098-3.462-3.463c-2.203-1.363-3.259-0.662-5.567-1.502
		s-3.351-1.854-3.98-2.904c-0.629-1.049-1.153-1.992-1.153-1.992s1.363,0.943,2.698,1.469c1.334,0.523,1.184,0.523,2.442,0.523
		s2.518-0.418,3.567-1.992c0.524,0.629,1.504,0.699,2.658-0.35s1.014-1.854,1.223-3.219c0.211-1.363,1.017-1.258,1.017-1.258
		s0.489,0.559,1.118-0.281c0.63-0.838,1.505-1.293,1.82-2.656c0.314-1.365,0.697-3.078,0.697-3.078s1.748,0.77,1.958,0.141
		c0.21-0.631,0.15-5.771,0.57-7.555s-0.151-5.98-0.046-7.869c0.105-1.887,0-1.469,0-1.469l-0.574,0.604l-0.596,0.211
		c0,0-0.712-0.197,0.035-1.131c0.598-0.744,1.135-1.607,1.135-2.307c0-1.572-1.154-1.363-1.783-0.314
		c-0.63,1.049-2.174,2.541-2.174,2.541s-0.764-0.338-0.449-1.072s1.259-2.938,1.259-4.195c0-1.26-0.839-1.783-1.469-0.84
		s-2.81,5.396-2.81,5.396s-0.443-1.199-0.443-2.459s0.525-3.566-0.314-3.672c-0.839-0.105-0.839-0.105-1.889,0.629
		c-1.049,0.734-0.524,3.148-0.524,3.148c-0.629,2.938-1.888,8.602-3.776,10.91s-5.666,5.875-8.813,9.338s-3.356,1.645-5.036,1.225
		c-1.678-0.42-2.796-1.75-3.635-2.379c-0.84-0.629-2.24-0.84-2.24-0.84c-1.157-0.943-1.311-0.262-2.36,0.316
		c-1.049,0.576-0.419,0.734-0.419,1.73s0.209,2.098,0.419,3.094c0.21,0.998,1.154,0.367,1.154,0.367l0.42-0.838l0.104,1.102
		c0,0-0.053,0.314-0.892,0.367s-1.154,0.209-2.519,0.209c-1.363,0-1.344-0.471-2.76-0.471c-1.417,0-0.597-0.141-1.541-0.141
		s-2.203,0.174-3.777-0.141c-1.573-0.314-3.566-0.139-4.826-0.664c-1.259-0.525-2.57-0.893-3.672-1.521s-3.147-1.574-5.665-2.727
		c-2.519-1.154-4.636-1.154-4.636-1.154s0.597,1.521,0.701,1.836C164.349,50.245,165.345,52.342,166.29,53.444z"/>
	<path fill="#FFCB05" d="M115.167,42.692c0,0-6.855-1.678-6.714-0.84c0.141,0.84,6.573,2.797,6.573,2.797l-3.357,0.141l2.518,2.379
		c0,0,1.122,2.377,3.777,6.574s4.616-0.699,4.897,1.119c0.276,1.818-2.938,1.959-2.518,1.959s2.794,0.559,2.794,2.238
		c0,1.678,0.419,0.84,1.259,1.258c0.839,0.42,0.839,0.42,1.679,1.398c0.839,0.979,0,1.541,0,2.938c0,1.398,1.403,0.84,1.403,3.219
		s0.42,1.678,1.396,2.01s1.679,1.066,2.655,1.486c0.983,0.42,0.282,1.539-0.275,3.639c-0.563,2.098-0.563,2.656-1.823,5.594
		c-1.258,2.938-1.678,3.777-3.776,5.037c-2.099,1.258,0.145,1.119-2.374,2.658c-2.518,1.539,0,2.098,0,3.637
		c0,1.537,0.42,5.875,1.535,6.436c1.121,0.561,2.518-1.4,2.518-1.4s1.541,0.141,3.357,0c1.822-0.141,1.961-1.957,1.961-1.957
		s1.258,1.26,3.074,0c1.823-1.26,0.564-6.715,1.26-9.373c0.701-2.66,0.839,2.238,0.839,3.498c0,1.258,1.259-0.141,2.8-0.561
		c1.535-0.42-0.138-5.455,0-6.436c0.138-0.979,1.816,0.701,2.801,0.98c0.977,0.277,1.953-2.1,1.953-2.1s2.801-1.678,4.617-4.756
		c1.822-3.076,5.875-4.057,8.675-4.057c2.793,0,4.334,4.057,4.334,4.057l-0.42-2.656c0,0,1.403,0.42,1.509-2.66
		c0.111-3.078-1.089-5.734-4.302-6.014c-3.22-0.281-9.377,2.098-10.636-6.994c-1.259-9.094-6.433-12.311-9.928-12.869
		c-3.502-0.559-8.537-3.777-8.537-3.777s-0.209,0.665,2.868,2.963c-1.459-0.952-3.879-2.313-6.199-2.688
		c-2.046-0.33-5.102,0.426-6.741,0.564c-3.357,0.279-3.357-1.539-8.95-3.357c-5.597-1.818-4.056,0.979-4.056,0.979L115.167,42.692z"
		/>
	<path fill="#FFCB05" d="M115.104,151.301c0.017-0.096,0.033-0.191,0.053-0.287c-4.783-1.105-9.567-2.213-14.347-3.316
		c0.059-0.455,0.124-0.908,0.184-1.361c12.691,0,25.383-0.029,38.07,0.031c2.131,0.01,4.302,0.215,6.371,0.688
		c2.494,0.572,4.396,1.744,1.603,5.193c35.767-4.523,71.083-2.102,106.406-0.461c-1.17-0.598-2.337-1.193-3.508-1.789
		c17.967,0.158,35.736,0.031,52.696,5.684c-2.049-2.486-3.623-4.529-5.354-6.434c-0.764-0.838-1.761-1.785-2.797-2.006
		c-6.734-1.438-11.747-5.4-16.324-10.293c-4.146-4.434-8.625-8.563-13.245-13.105c-0.858,4.277-2.466,4.98-5.065,2.529
		c-2.023-1.906-3.747-4.182-5.357-6.469c-4.229-6-8.871-11.445-16.107-13.967c-2.082-0.727-4.309-1.305-6.121-2.486
		c-6.73-4.377-13.301-9.006-19.967-13.486c-8.426-5.666-16.989-4.148-24.422,1.234c-6.459,4.682-13.426,5.502-20.754,6.018
		c-1.157,0.082-2.921,0.092-3.433-0.592c-2.269-3.025-4.396-1.369-6.53-0.129c-2.893,1.68-5.594,3.721-8.58,5.18
		c-4.049,1.979-8.188,3.9-12.482,5.229c-9.813,3.033-20.48,2.332-29.565,9.072c-5.534,4.104-10.092,8.357-13.81,14.063
		c-2.19,3.369-5.312,6.506-8.715,8.617c-3.672,2.277-8.223,3.104-12.288,4.811c-5.167,2.168-10.229,4.58-15.337,6.889
		c0.145,0.314,0.288,0.631,0.426,0.945C76.24,151.301,95.672,151.301,115.104,151.301z M69.794,146.729
		c5.016-1.439,10.104-2.639,15.127-4.066c2.159-0.614,4.021-1.595,5.459-3.108c5.935,0.203,16.356,0.435,22.134-0.179
		c8.394-0.891,15.108,5.598,15.665,0.395c0.561-5.201,3.442-10.279-6.715-10.236c0,0,0.873-0.842,3.357-5.035
		c2.485-4.195-7.271-5.037-9.511,0c-2.239,5.035-8.39,8.393-12.312,10.07c-2.207,0.947-7.353,2.354-11.422,3.401
		c0.341-0.547,0.656-1.127,0.914-1.78c3.8-9.633,10.57-16.65,19.675-21.363c1.954-1.01,4.4-1.064,6.853-0.715
		c-3.099,3.557-6.196,7.111-9.298,10.666c0.302,0.297,0.597,0.596,0.895,0.893c3.688-6.775,10.226-9.676,16.954-10.885
		c8.38-1.51,15.173-5.744,22.202-9.844c0.348-0.203,0.649-0.514,1.017-0.646c2.006-0.723,4.025-1.406,6.042-2.104
		c-1.092,2.07-1.773,4.543-3.347,6.131c-4.403,4.443-9.223,8.471-13.771,12.775c-1.695,1.602-3.092,3.516-5.38,6.164
		c5.439,0,9.655-0.115,13.858,0.064c1.481,0.063,2.938,0.852,4.406,1.309c-0.896,1.174-1.613,2.566-2.728,3.471
		c-1.741,1.412-3.751,2.492-6.193,4.064c6.436-0.631,12.291-1.365,18.176-1.738c5.217-0.33,10.469-0.502,15.682-0.252
		c2.24,0.107,4.391,1.57,6.637,2.217c3.295,0.949,6.6,2.209,9.97,2.473c9.476,0.744,18.986,1.084,28.487,1.48
		c1.381,0.059,2.784-0.451,4.178-0.699c0.193-0.418,0.387-0.836,0.58-1.256c-1.964-1.512-3.712-3.705-5.932-4.408
		c-6.025-1.91-8.163-6.439-9.344-11.922c-0.479-2.225-0.74-4.529-1.521-6.645c-0.43-1.164-1.73-2.008-2.636-2.996
		c-0.947,0.998-2.331,1.842-2.747,3.025c-1.02,2.889-1.334,6.037-2.439,8.883c-0.659,1.693-2.278,3.012-3.469,4.498
		c-1.527-1.326-3.59-2.365-4.485-4.033c-2.567-4.777-2.022-9.834-0.249-14.811c0.473-1.32,0.879-2.662,0.83-4.539
		c-7.915,9.676-17.695,15.154-29.882,15.721c-0.232-0.32-0.469-0.641-0.704-0.963c0.75-0.764,1.475-1.555,2.255-2.289
		c4.944-4.672,9.81-9.428,14.882-13.959c4.036-3.609,8.271-7.012,12.534-10.359c1.741-1.367,3.184-0.789,4.071,1.342
		c1.132,2.717,2.361,5.4,3.692,8.025c0.534,1.057,1.449,1.92,2.19,2.873c0.518-0.117,1.035-0.234,1.557-0.35
		c0-2.541-0.167-5.098,0.076-7.617c0.104-1.129,1.025-2.182,1.576-3.27c0.915,0.668,2.239,1.133,2.679,2.031
		c2.876,5.891,5.538,11.887,8.327,17.82c0.82,1.746,1.823,3.404,2.745,5.105c0.363-0.148,0.728-0.295,1.095-0.441
		c-2.396-7.621-4.79-15.242-7.495-23.848c6.05,1.637,8.449,5.643,11.314,8.91c4.587,5.229,8.767,10.814,13.38,16.016
		c1.515,1.711,3.843,2.701,5.797,4.018c0.39-0.412,0.78-0.826,1.17-1.238c-2.704-4.115-5.406-8.23-8.111-12.346
		c0.253-0.289,0.506-0.578,0.762-0.867c1.193,0.775,2.625,1.338,3.537,2.363c4.813,5.396,9.449,10.953,14.238,16.371
		c2.784,3.148,5.915,5.592,10.377,6.396c1.627,0.293,2.833,2.908,4.229,4.465c-1.394,1.229-2.659,3.32-4.193,3.539
		c-6.36,0.904-12.845,0.965-19.196,1.906c-3.38,0.5-7.796-0.225-9.232,4.707c-0.141,0.475-2.232,0.818-3.232,0.541
		c-18.629-5.18-37.635-2.143-56.471-2.631c-6.694-0.174-13.402,0.246-20.107,0.328c-1.01,0.012-2.02-0.348-3.807-0.682
		c1.27-1.674,2.03-2.678,2.253-2.977c-21.035,0-42.49,0-63.945,0c-0.053,0.436-0.108,0.873-0.164,1.313
		c1.292,0.707,2.587,1.416,3.96,2.17c-2.327,1.902-27.56,3.498-33.684,1.486C65.84,148.27,67.761,147.311,69.794,146.729z"/>
	<rect x="53.263" y="186.077" fill="#FFCB05" width="33.278" height="0.633"/>
	<rect x="278.214" y="186.077" fill="#FFCB05" width="33.28" height="0.633"/>
	<path fill="#FFCB05" d="M55.875,170.172c-0.357-0.02-0.612-0.09-0.767-0.215s-0.23-0.26-0.23-0.406c0-0.141,0.029-0.281,0.09-0.42
		c0.079-0.184,0.203-0.387,0.372-0.613l0.87-1.049l0.762-0.951h3.807l-0.081,1.58c-0.03,0.67-0.115,1.141-0.254,1.412
		c-0.14,0.27-0.293,0.449-0.463,0.533c-0.078,0.037-0.38,0.08-0.906,0.129l-0.1,0.338h5.321l0.091-0.338
		c-0.387-0.031-0.664-0.141-0.83-0.33c-0.166-0.188-0.249-0.488-0.249-0.904c0-0.109,0.009-0.428,0.027-0.957l0.408-10.139h-0.408
		l-8.711,10.477c-0.635,0.76-1.121,1.262-1.46,1.506c-0.254,0.178-0.544,0.293-0.87,0.348l-0.091,0.338h3.672V170.172z
		 M61.015,161.733l-0.236,4.037h-3.182L61.015,161.733z"/>
	<path fill="#FFCB05" d="M72.254,157.842H71.71l-3.055,0.539l-0.1,0.348c0.344-0.02,0.601,0.033,0.771,0.154
		c0.127,0.086,0.19,0.201,0.19,0.348c0,0.152-0.067,0.459-0.2,0.922l-2.447,8.42c-0.145,0.5-0.218,0.863-0.218,1.088
		c0,0.305,0.118,0.564,0.354,0.781c0.236,0.215,0.554,0.324,0.952,0.324c0.429,0,0.834-0.135,1.215-0.402
		c0.556-0.396,1.121-1.057,1.695-1.982l-0.354-0.164c-0.356,0.566-0.68,0.969-0.97,1.205c-0.098,0.086-0.2,0.129-0.309,0.129
		c-0.061,0-0.116-0.027-0.168-0.082c-0.051-0.055-0.077-0.123-0.077-0.201c0-0.152,0.088-0.533,0.263-1.143L72.254,157.842z"/>
	<path fill="#FFCB05" d="M87.609,158.295c-0.14,0.076-0.297,0.113-0.472,0.113c-0.206,0-0.56-0.07-1.061-0.209
		c-0.858-0.238-1.55-0.357-2.076-0.357c-1.16,0-2.1,0.336-2.818,1.006c-0.72,0.668-1.079,1.463-1.079,2.383
		c0,0.529,0.111,1.029,0.335,1.498c0.309,0.633,0.866,1.352,1.673,2.154c0.807,0.805,1.323,1.416,1.55,1.836s0.34,0.859,0.34,1.316
		c0,0.535-0.201,1.002-0.603,1.4c-0.402,0.4-0.902,0.6-1.5,0.6c-0.604,0-1.143-0.164-1.613-0.49
		c-0.472-0.324-0.834-0.779-1.088-1.359c-0.254-0.582-0.42-1.287-0.499-2.115h-0.345l-1.097,4.723h0.354
		c0.242-0.184,0.444-0.307,0.607-0.371c0.163-0.063,0.348-0.096,0.553-0.096c0.26,0,0.784,0.078,1.573,0.232
		c0.788,0.156,1.442,0.234,1.963,0.234c0.846,0,1.603-0.154,2.271-0.461c0.667-0.309,1.177-0.742,1.527-1.303
		s0.525-1.172,0.525-1.836c0-0.59-0.125-1.139-0.376-1.643c-0.251-0.506-0.742-1.109-1.473-1.809
		c-0.913-0.877-1.491-1.533-1.736-1.969s-0.367-0.877-0.367-1.328c0-0.457,0.177-0.867,0.53-1.229
		c0.354-0.363,0.766-0.543,1.237-0.543c0.489,0,0.944,0.154,1.364,0.465s0.757,0.752,1.011,1.324
		c0.169,0.396,0.287,0.922,0.354,1.58h0.299l1.024-4.201h-0.398C87.911,158.069,87.748,158.219,87.609,158.295z"/>
	<path fill="#FFCB05" d="M93.89,167.752l-0.218,0.738c-0.193,0.646-0.29,1.088-0.29,1.324c0,0.275,0.091,0.502,0.271,0.682
		c0.182,0.18,0.444,0.27,0.789,0.27c0.562,0,1.086-0.182,1.572-0.545c0.486-0.361,0.944-0.938,1.374-1.73l-0.317-0.164
		c-0.345,0.48-0.563,0.762-0.653,0.84c-0.224,0.195-0.398,0.293-0.525,0.293c-0.055,0-0.107-0.027-0.158-0.082
		c-0.052-0.055-0.077-0.119-0.077-0.191c0-0.043,0.009-0.109,0.026-0.201l0.182-0.74l1.759-6.072l-2.148,0.127l-0.326,1.123
		c-0.097-0.523-0.248-0.885-0.453-1.082c-0.206-0.197-0.478-0.297-0.816-0.297c-0.61,0-1.263,0.281-1.958,0.84
		c-0.846,0.676-1.528,1.57-2.048,2.682c-0.521,1.111-0.78,2.096-0.78,2.953c0,0.58,0.124,1.098,0.372,1.559
		c0.248,0.459,0.649,0.689,1.205,0.689c0.423,0,0.822-0.146,1.197-0.439C92.515,169.823,93.189,168.963,93.89,167.752z
		 M91.619,168.87c-0.105-0.143-0.158-0.375-0.158-0.697c0-0.84,0.234-1.838,0.702-2.992c0.469-1.152,0.905-1.918,1.311-2.297
		c0.199-0.182,0.393-0.273,0.58-0.273c0.187,0,0.335,0.076,0.444,0.229c0.15,0.219,0.227,0.576,0.227,1.068
		c0,0.889-0.284,1.906-0.853,3.051c-0.32,0.65-0.68,1.201-1.079,1.652c-0.277,0.316-0.553,0.475-0.824,0.475
		C91.841,169.084,91.725,169.014,91.619,168.87z"/>
	<path fill="#FFCB05" d="M102.554,167.586l1.061-4.219h1.278l0.317-1.068h-1.314c0.375-1.541,0.87-2.666,1.486-3.379
		c0.375-0.445,0.74-0.666,1.097-0.666c0.073,0,0.132,0.021,0.177,0.063c0.046,0.043,0.068,0.098,0.068,0.164
		c0,0.063-0.05,0.178-0.149,0.348s-0.149,0.332-0.149,0.484c0,0.213,0.078,0.396,0.235,0.549s0.356,0.227,0.599,0.227
		c0.26,0,0.478-0.092,0.652-0.277s0.263-0.438,0.263-0.754c0-0.359-0.131-0.65-0.395-0.877c-0.263-0.225-0.684-0.338-1.264-0.338
		c-0.907,0-1.729,0.268-2.466,0.805c-0.737,0.535-1.438,1.422-2.104,2.656c-0.229,0.428-0.447,0.701-0.652,0.822
		c-0.205,0.123-0.535,0.18-0.988,0.174l-0.299,1.068h1.26l-1.849,7.297c-0.309,1.199-0.517,1.939-0.626,2.221
		c-0.157,0.406-0.396,0.754-0.716,1.041c-0.127,0.115-0.281,0.172-0.463,0.172c-0.048,0-0.09-0.014-0.127-0.045l-0.045-0.064
		c0-0.029,0.045-0.092,0.136-0.188c0.091-0.094,0.137-0.238,0.137-0.434c0-0.213-0.073-0.389-0.218-0.529
		c-0.146-0.141-0.354-0.209-0.626-0.209c-0.326,0-0.589,0.09-0.788,0.273c-0.199,0.182-0.3,0.398-0.3,0.648
		c0,0.268,0.121,0.5,0.363,0.699c0.241,0.197,0.619,0.297,1.133,0.297c0.815,0,1.539-0.215,2.171-0.645s1.183-1.092,1.654-1.986
		S102.059,169.579,102.554,167.586z"/>
	<path fill="#FFCB05" d="M112.815,168.245l1.759-6.072l-2.148,0.127l-0.326,1.123c-0.097-0.523-0.248-0.885-0.453-1.082
		c-0.206-0.197-0.478-0.297-0.816-0.297c-0.61,0-1.263,0.281-1.958,0.84c-0.846,0.676-1.528,1.57-2.048,2.682
		c-0.521,1.111-0.78,2.096-0.78,2.953c0,0.58,0.124,1.098,0.372,1.559c0.248,0.459,0.649,0.689,1.205,0.689
		c0.423,0,0.822-0.146,1.197-0.439c0.646-0.504,1.32-1.363,2.021-2.574l-0.218,0.738c-0.193,0.646-0.29,1.088-0.29,1.324
		c0,0.275,0.091,0.502,0.271,0.682c0.182,0.18,0.444,0.27,0.789,0.27c0.562,0,1.086-0.182,1.572-0.545
		c0.486-0.361,0.944-0.938,1.374-1.73l-0.317-0.164c-0.345,0.48-0.563,0.762-0.653,0.84c-0.224,0.195-0.398,0.293-0.525,0.293
		c-0.055,0-0.107-0.027-0.158-0.082c-0.052-0.055-0.077-0.119-0.077-0.191c0-0.043,0.009-0.109,0.026-0.201L112.815,168.245z
		 M110.821,166.958c-0.32,0.65-0.68,1.201-1.079,1.652c-0.277,0.316-0.553,0.475-0.824,0.475c-0.127,0-0.243-0.07-0.35-0.215
		c-0.105-0.143-0.158-0.375-0.158-0.697c0-0.84,0.234-1.838,0.702-2.992c0.469-1.152,0.905-1.918,1.311-2.297
		c0.199-0.182,0.393-0.273,0.58-0.273c0.187,0,0.335,0.076,0.444,0.229c0.15,0.219,0.227,0.576,0.227,1.068
		C111.673,164.795,111.389,165.813,110.821,166.958z"/>
	<path fill="#FFCB05" d="M122.839,168.245l1.759-6.072l-2.148,0.127l-0.326,1.123c-0.097-0.523-0.248-0.885-0.453-1.082
		c-0.206-0.197-0.478-0.297-0.816-0.297c-0.61,0-1.263,0.281-1.958,0.84c-0.846,0.676-1.528,1.57-2.048,2.682
		c-0.521,1.111-0.78,2.096-0.78,2.953c0,0.58,0.124,1.098,0.372,1.559c0.248,0.459,0.649,0.689,1.205,0.689
		c0.423,0,0.822-0.146,1.197-0.439c0.646-0.504,1.32-1.363,2.021-2.574l-0.218,0.738c-0.193,0.646-0.29,1.088-0.29,1.324
		c0,0.275,0.091,0.502,0.271,0.682c0.182,0.18,0.444,0.27,0.789,0.27c0.562,0,1.086-0.182,1.572-0.545
		c0.486-0.361,0.944-0.938,1.374-1.73l-0.317-0.164c-0.345,0.48-0.563,0.762-0.653,0.84c-0.224,0.195-0.398,0.293-0.525,0.293
		c-0.055,0-0.107-0.027-0.158-0.082c-0.052-0.055-0.077-0.119-0.077-0.191c0-0.043,0.009-0.109,0.026-0.201L122.839,168.245z
		 M120.845,166.958c-0.32,0.65-0.68,1.201-1.079,1.652c-0.277,0.316-0.553,0.475-0.824,0.475c-0.127,0-0.243-0.07-0.35-0.215
		c-0.105-0.143-0.158-0.375-0.158-0.697c0-0.84,0.234-1.838,0.702-2.992c0.469-1.152,0.905-1.918,1.311-2.297
		c0.199-0.182,0.393-0.273,0.58-0.273c0.187,0,0.335,0.076,0.444,0.229c0.15,0.219,0.227,0.576,0.227,1.068
		C121.698,164.795,121.414,165.813,120.845,166.958z"/>
	<path fill="#FFCB05" d="M139.087,169.829c-0.275,0.229-0.703,0.344-1.283,0.344l-0.136,0.338h5.992l0.09-0.338
		c-0.556-0.012-0.939-0.098-1.15-0.256c-0.163-0.115-0.245-0.287-0.245-0.512s0.075-0.598,0.227-1.115l2.284-7.926
		c0.218-0.756,0.48-1.262,0.789-1.516c0.308-0.256,0.761-0.385,1.359-0.385l0.1-0.338h-6.109l-0.1,0.338
		c0.622,0.043,1.015,0.129,1.179,0.256c0.163,0.129,0.244,0.314,0.244,0.557c0,0.25-0.066,0.613-0.199,1.088l-0.997,3.461h-4.496
		l1.033-3.461c0.235-0.785,0.495-1.299,0.779-1.539s0.704-0.361,1.261-0.361l0.136-0.338h-6.01l-0.1,0.338
		c0.604,0.043,0.986,0.129,1.146,0.256c0.16,0.129,0.24,0.316,0.24,0.566c0,0.262-0.066,0.621-0.199,1.078l-2.285,7.926
		c-0.229,0.799-0.479,1.311-0.747,1.539c-0.27,0.229-0.693,0.344-1.274,0.344l-0.1,0.338h5.91l0.091-0.338
		c-0.544-0.012-0.908-0.088-1.092-0.225c-0.185-0.137-0.276-0.314-0.276-0.533c0-0.244,0.075-0.619,0.227-1.125l1.051-3.689h4.479
		l-1.061,3.689C139.615,169.088,139.362,169.6,139.087,169.829z"/>
	<path fill="#FFCB05" d="M154.955,168.491l-0.317-0.164c-0.345,0.48-0.563,0.762-0.653,0.84c-0.224,0.195-0.398,0.293-0.525,0.293
		c-0.055,0-0.107-0.027-0.158-0.082c-0.052-0.055-0.077-0.119-0.077-0.191c0-0.043,0.009-0.109,0.026-0.201l0.182-0.74l1.759-6.072
		l-2.148,0.127l-0.326,1.123c-0.097-0.523-0.248-0.885-0.453-1.082c-0.206-0.197-0.478-0.297-0.816-0.297
		c-0.61,0-1.263,0.281-1.958,0.84c-0.846,0.676-1.528,1.57-2.048,2.682c-0.521,1.111-0.78,2.096-0.78,2.953
		c0,0.58,0.124,1.098,0.372,1.559c0.248,0.459,0.649,0.689,1.205,0.689c0.423,0,0.822-0.146,1.197-0.439
		c0.646-0.504,1.32-1.363,2.021-2.574l-0.218,0.738c-0.193,0.646-0.29,1.088-0.29,1.324c0,0.275,0.091,0.502,0.271,0.682
		c0.182,0.18,0.444,0.27,0.789,0.27c0.562,0,1.086-0.182,1.572-0.545C154.067,169.86,154.525,169.284,154.955,168.491z
		 M151.437,166.958c-0.32,0.65-0.68,1.201-1.079,1.652c-0.277,0.316-0.553,0.475-0.824,0.475c-0.127,0-0.243-0.07-0.35-0.215
		c-0.105-0.143-0.158-0.375-0.158-0.697c0-0.84,0.234-1.838,0.702-2.992c0.469-1.152,0.905-1.918,1.311-2.297
		c0.199-0.182,0.393-0.273,0.58-0.273c0.187,0,0.335,0.076,0.444,0.229c0.15,0.219,0.227,0.576,0.227,1.068
		C152.29,164.795,152.005,165.813,151.437,166.958z"/>
	<path fill="#FFCB05" d="M161.453,158.241c-0.26-0.266-0.577-0.398-0.952-0.398s-0.693,0.133-0.956,0.398
		c-0.263,0.264-0.395,0.586-0.395,0.963c0,0.371,0.132,0.689,0.395,0.955c0.263,0.264,0.581,0.396,0.956,0.396
		c0.368,0,0.685-0.133,0.947-0.396c0.263-0.266,0.395-0.584,0.395-0.955C161.842,158.827,161.712,158.504,161.453,158.241z"/>
	<path fill="#FFCB05" d="M154.826,174.547c0.611,0,1.205-0.158,1.781-0.471c0.577-0.314,1.038-0.77,1.383-1.365
		c0.495-0.854,0.942-2.014,1.342-3.48l1.931-7.188h-0.544l-3.055,0.502l-0.1,0.348c0.09-0.006,0.169-0.01,0.235-0.01
		c0.218,0,0.393,0.057,0.525,0.17s0.2,0.23,0.2,0.352c0,0.127-0.067,0.443-0.2,0.949l-1.849,7.033
		c-0.339,1.309-0.574,2.063-0.707,2.264c-0.193,0.305-0.423,0.457-0.689,0.457c-0.078,0-0.137-0.018-0.177-0.051
		c-0.039-0.033-0.059-0.07-0.059-0.113c0-0.037,0.033-0.092,0.1-0.164c0.163-0.178,0.245-0.354,0.245-0.529
		c0-0.184-0.069-0.34-0.209-0.471c-0.139-0.131-0.329-0.197-0.571-0.197c-0.313,0-0.572,0.1-0.774,0.297s-0.304,0.426-0.304,0.682
		c0,0.254,0.122,0.482,0.367,0.684C153.942,174.446,154.319,174.547,154.826,174.547z"/>
	<path fill="#FFCB05" d="M167.348,160.159c0.263-0.266,0.395-0.584,0.395-0.955c0-0.377-0.13-0.699-0.39-0.963
		c-0.26-0.266-0.577-0.398-0.952-0.398s-0.693,0.133-0.956,0.398c-0.263,0.264-0.395,0.586-0.395,0.963
		c0,0.371,0.132,0.689,0.395,0.955c0.263,0.264,0.581,0.396,0.956,0.396C166.769,160.555,167.085,160.422,167.348,160.159z"/>
	<path fill="#FFCB05" d="M163.89,172.711c0.495-0.854,0.942-2.014,1.342-3.48l1.931-7.188h-0.544l-3.055,0.502l-0.1,0.348
		c0.09-0.006,0.169-0.01,0.235-0.01c0.218,0,0.393,0.057,0.525,0.17s0.2,0.23,0.2,0.352c0,0.127-0.067,0.443-0.2,0.949l-1.849,7.033
		c-0.339,1.309-0.574,2.063-0.707,2.264c-0.193,0.305-0.423,0.457-0.689,0.457c-0.078,0-0.137-0.018-0.177-0.051
		c-0.039-0.033-0.059-0.07-0.059-0.113c0-0.037,0.033-0.092,0.1-0.164c0.163-0.178,0.245-0.354,0.245-0.529
		c0-0.184-0.069-0.34-0.209-0.471c-0.139-0.131-0.329-0.197-0.571-0.197c-0.313,0-0.572,0.1-0.774,0.297s-0.304,0.426-0.304,0.682
		c0,0.254,0.122,0.482,0.367,0.684c0.244,0.201,0.621,0.303,1.128,0.303c0.611,0,1.205-0.158,1.781-0.471
		C163.084,173.762,163.545,173.307,163.89,172.711z"/>
	<path fill="#FFCB05" d="M186.024,168.245l1.759-6.072l-2.148,0.127l-0.326,1.123c-0.097-0.523-0.248-0.885-0.453-1.082
		c-0.206-0.197-0.478-0.297-0.816-0.297c-0.61,0-1.263,0.281-1.958,0.84c-0.846,0.676-1.528,1.57-2.048,2.682
		c-0.521,1.111-0.78,2.096-0.78,2.953c0,0.58,0.124,1.098,0.372,1.559c0.248,0.459,0.649,0.689,1.205,0.689
		c0.423,0,0.822-0.146,1.197-0.439c0.646-0.504,1.32-1.363,2.021-2.574l-0.218,0.738c-0.193,0.646-0.29,1.088-0.29,1.324
		c0,0.275,0.091,0.502,0.271,0.682c0.182,0.18,0.444,0.27,0.789,0.27c0.562,0,1.086-0.182,1.572-0.545
		c0.486-0.361,0.944-0.938,1.374-1.73l-0.317-0.164c-0.345,0.48-0.563,0.762-0.653,0.84c-0.224,0.195-0.398,0.293-0.525,0.293
		c-0.055,0-0.107-0.027-0.158-0.082c-0.052-0.055-0.077-0.119-0.077-0.191c0-0.043,0.009-0.109,0.026-0.201L186.024,168.245z
		 M184.03,166.958c-0.32,0.65-0.68,1.201-1.079,1.652c-0.277,0.316-0.553,0.475-0.824,0.475c-0.127,0-0.243-0.07-0.35-0.215
		c-0.105-0.143-0.158-0.375-0.158-0.697c0-0.84,0.234-1.838,0.702-2.992c0.469-1.152,0.905-1.918,1.311-2.297
		c0.199-0.182,0.393-0.273,0.58-0.273c0.187,0,0.335,0.076,0.444,0.229c0.15,0.219,0.227,0.576,0.227,1.068
		C184.882,164.795,184.598,165.813,184.03,166.958z"/>
	<path fill="#FFCB05" d="M194.625,164.208c0.326-0.316,0.604-0.475,0.834-0.475c0.072,0,0.136,0.025,0.19,0.078
		c0.054,0.051,0.081,0.111,0.081,0.178c0,0.121-0.039,0.311-0.117,0.566l-1.134,3.9c-0.145,0.504-0.217,0.885-0.217,1.141
		c0,0.293,0.105,0.537,0.316,0.73c0.212,0.195,0.505,0.293,0.88,0.293c0.979,0,1.912-0.752,2.801-2.256l-0.345-0.211
		c-0.121,0.172-0.208,0.299-0.263,0.385c-0.218,0.322-0.432,0.572-0.644,0.748c-0.066,0.049-0.13,0.074-0.19,0.074
		c-0.048,0-0.095-0.025-0.141-0.074c-0.045-0.049-0.067-0.104-0.067-0.164c0-0.104,0.048-0.326,0.145-0.666l1.16-3.9
		c0.146-0.486,0.218-0.9,0.218-1.242c0-0.377-0.112-0.684-0.335-0.918c-0.224-0.234-0.493-0.352-0.808-0.352
		c-0.35,0-0.725,0.109-1.124,0.328c-0.398,0.221-0.873,0.635-1.423,1.242c-0.375,0.42-0.939,1.203-1.695,2.348l1.124-3.918h-0.553
		l-3.055,0.539l-0.1,0.348c0.302,0,0.508,0.02,0.616,0.059c0.109,0.039,0.188,0.094,0.235,0.164c0.049,0.07,0.073,0.158,0.073,0.262
		c0,0.242-0.082,0.654-0.245,1.232l-1.695,5.863h2.312l0.743-2.713C192.985,166.208,193.792,165.012,194.625,164.208z"/>
	<path fill="#FFCB05" d="M210.107,157.842h-0.544l-2.982,0.557l-0.09,0.357c0.127-0.02,0.232-0.027,0.317-0.027
		c0.181,0,0.326,0.051,0.435,0.154s0.163,0.229,0.163,0.375c0,0.244-0.081,0.645-0.244,1.205l-0.671,2.273
		c-0.236-0.268-0.446-0.449-0.63-0.547c-0.185-0.098-0.395-0.146-0.631-0.146c-0.459,0-0.926,0.127-1.4,0.379
		c-0.475,0.254-0.973,0.674-1.495,1.266c-0.523,0.59-0.983,1.326-1.383,2.209c-0.398,0.883-0.598,1.779-0.598,2.686
		c0,0.713,0.155,1.254,0.467,1.625c0.311,0.373,0.693,0.559,1.146,0.559c0.398,0,0.81-0.164,1.232-0.494
		c0.556-0.443,1.212-1.34,1.967-2.686l-0.271,0.932c-0.157,0.531-0.235,0.938-0.235,1.225c0,0.299,0.098,0.543,0.294,0.734
		c0.196,0.193,0.477,0.289,0.839,0.289c1.021,0,1.958-0.75,2.81-2.248l-0.326-0.172c-0.32,0.475-0.592,0.797-0.815,0.967
		c-0.133,0.104-0.251,0.156-0.354,0.156c-0.055,0-0.105-0.025-0.154-0.074s-0.072-0.105-0.072-0.174c0-0.133,0.094-0.52,0.281-1.158
		L210.107,157.842z M205.371,166.368c-0.498,1.129-1.005,1.926-1.518,2.389c-0.212,0.195-0.424,0.293-0.635,0.293
		c-0.127,0-0.242-0.07-0.345-0.211s-0.154-0.355-0.154-0.648c0-0.803,0.234-1.795,0.703-2.973c0.468-1.178,0.917-1.963,1.346-2.352
		c0.224-0.201,0.432-0.301,0.625-0.301s0.363,0.084,0.508,0.256c0.146,0.17,0.218,0.441,0.218,0.813
		C206.119,164.327,205.87,165.239,205.371,166.368z"/>
	<path fill="#FFCB05" d="M229.214,158.811c0.26-0.195,0.629-0.311,1.106-0.348l0.081-0.338h-4.16l-0.1,0.338
		c0.586,0,0.973,0.07,1.16,0.211c0.266,0.201,0.398,0.49,0.398,0.867c0,0.213-0.045,0.48-0.136,0.803l-1.604,5.617
		c-0.314,1.078-0.671,1.906-1.069,2.484c-0.303,0.432-0.682,0.77-1.138,1.01s-1.011,0.359-1.663,0.359
		c-0.714,0-1.27-0.186-1.668-0.557c-0.399-0.371-0.599-0.807-0.599-1.307c0-0.547,0.13-1.275,0.39-2.182l1.568-5.426
		c0.212-0.742,0.473-1.242,0.784-1.496c0.312-0.256,0.763-0.385,1.355-0.385l0.108-0.338h-6.128l-0.1,0.338
		c0.629,0.043,1.029,0.129,1.201,0.256c0.172,0.129,0.259,0.309,0.259,0.539c0,0.238-0.07,0.6-0.209,1.086l-1.56,5.426
		c-0.241,0.846-0.362,1.486-0.362,1.918c0,0.273,0.072,0.613,0.218,1.018c0.145,0.406,0.354,0.744,0.625,1.02
		c0.272,0.273,0.698,0.52,1.278,0.738c0.58,0.221,1.251,0.33,2.013,0.33c1.342,0,2.447-0.352,3.317-1.055s1.56-1.941,2.067-3.713
		l1.631-5.682C228.487,159.633,228.797,159.122,229.214,158.811z"/>
	<path fill="#FFCB05" d="M234.19,170.51h2.293l0.553-1.883c0.17-0.59,0.34-1.07,0.513-1.441c0.172-0.371,0.481-0.889,0.929-1.549
		s0.79-1.119,1.029-1.375c0.238-0.256,0.415-0.414,0.53-0.475c0.078-0.035,0.157-0.055,0.235-0.055c0.042,0,0.085,0.02,0.127,0.061
		c0.042,0.039,0.063,0.08,0.063,0.123c0,0.121-0.069,0.428-0.208,0.922l-1.024,3.563c-0.151,0.529-0.227,0.924-0.227,1.186
		c0,0.275,0.111,0.514,0.335,0.719c0.224,0.203,0.52,0.305,0.889,0.305c0.423,0,0.884-0.182,1.382-0.547
		c0.499-0.365,0.957-0.941,1.374-1.727l-0.309-0.201c-0.108,0.152-0.19,0.266-0.245,0.338c-0.241,0.342-0.471,0.6-0.688,0.775
		c-0.049,0.043-0.105,0.064-0.172,0.064c-0.049,0-0.093-0.021-0.132-0.064c-0.039-0.041-0.059-0.088-0.059-0.137
		c0-0.145,0.075-0.471,0.227-0.977l1.006-3.406c0.182-0.621,0.271-1.127,0.271-1.516c0-0.348-0.106-0.629-0.321-0.846
		s-0.482-0.324-0.803-0.324c-0.308,0-0.598,0.08-0.87,0.238c-0.393,0.219-0.854,0.639-1.387,1.26
		c-0.345,0.402-0.909,1.211-1.695,2.43l0.408-1.471c0.163-0.578,0.245-1.018,0.245-1.314c0-0.287-0.088-0.549-0.263-0.787
		c-0.176-0.236-0.46-0.355-0.853-0.355c-0.345,0-0.688,0.094-1.029,0.283c-0.341,0.189-0.774,0.59-1.301,1.205
		c-0.356,0.42-0.924,1.234-1.704,2.439l1.161-3.928h-0.544l-3.092,0.539l-0.09,0.348c0.308,0,0.517,0.02,0.625,0.059
		s0.188,0.094,0.235,0.164c0.049,0.07,0.073,0.154,0.073,0.252c0,0.244-0.085,0.654-0.254,1.232l-1.704,5.873h2.312l0.733-2.621
		c0.604-1.285,1.275-2.385,2.013-3.297c0.483-0.592,0.837-0.887,1.061-0.887c0.042,0,0.083,0.018,0.122,0.055
		c0.04,0.037,0.06,0.076,0.06,0.119c0,0.121-0.046,0.344-0.136,0.666L234.19,170.51z"/>
	<path fill="#FFCB05" d="M250.614,164.647c0.121,0.225,0.303,0.338,0.544,0.338c0.224,0,0.427-0.129,0.607-0.385
		c0.284-0.4,0.427-0.896,0.427-1.488c0-0.34-0.079-0.604-0.236-0.789s-0.362-0.279-0.616-0.279c-0.368,0-0.719,0.17-1.052,0.512
		c-0.567,0.578-1.414,2.119-2.538,4.621l1.369-5.133h-0.544l-2.737,0.604l-0.082,0.264c0.314,0,0.521,0.021,0.621,0.064
		s0.178,0.109,0.235,0.201s0.087,0.219,0.087,0.383c0,0.146-0.055,0.445-0.164,0.896l-1.495,6.055h2.193
		c0.314-1.291,0.559-2.166,0.734-2.627c0.175-0.459,0.42-1.021,0.734-1.684c0.314-0.664,0.578-1.137,0.793-1.42
		s0.389-0.463,0.521-0.535c0.066-0.037,0.13-0.055,0.19-0.055c0.054,0,0.105,0.02,0.154,0.059
		C250.409,164.29,250.494,164.42,250.614,164.647z"/>
	<path fill="#FFCB05" d="M259.824,168.245l1.759-6.072l-2.148,0.127l-0.326,1.123c-0.097-0.523-0.248-0.885-0.453-1.082
		c-0.206-0.197-0.478-0.297-0.816-0.297c-0.61,0-1.263,0.281-1.958,0.84c-0.846,0.676-1.528,1.57-2.048,2.682
		c-0.521,1.111-0.78,2.096-0.78,2.953c0,0.58,0.124,1.098,0.372,1.559c0.248,0.459,0.649,0.689,1.205,0.689
		c0.423,0,0.822-0.146,1.197-0.439c0.646-0.504,1.32-1.363,2.021-2.574l-0.218,0.738c-0.193,0.646-0.29,1.088-0.29,1.324
		c0,0.275,0.091,0.502,0.271,0.682c0.182,0.18,0.444,0.27,0.789,0.27c0.562,0,1.086-0.182,1.572-0.545
		c0.486-0.361,0.944-0.938,1.374-1.73l-0.317-0.164c-0.345,0.48-0.563,0.762-0.653,0.84c-0.224,0.195-0.398,0.293-0.525,0.293
		c-0.055,0-0.107-0.027-0.158-0.082c-0.052-0.055-0.077-0.119-0.077-0.191c0-0.043,0.009-0.109,0.026-0.201L259.824,168.245z
		 M257.83,166.958c-0.32,0.65-0.68,1.201-1.079,1.652c-0.277,0.316-0.553,0.475-0.824,0.475c-0.127,0-0.243-0.07-0.35-0.215
		c-0.105-0.143-0.158-0.375-0.158-0.697c0-0.84,0.234-1.838,0.702-2.992c0.469-1.152,0.905-1.918,1.311-2.297
		c0.199-0.182,0.393-0.273,0.58-0.273c0.187,0,0.335,0.076,0.444,0.229c0.15,0.219,0.227,0.576,0.227,1.068
		C258.682,164.795,258.398,165.813,257.83,166.958z"/>
	<path fill="#FFCB05" d="M279.719,160.993c0,0.135-0.006,0.289-0.019,0.467h0.326l0.935-3.334h-9.89l-0.971,3.334h0.354
		c0.526-0.895,1.106-1.535,1.741-1.918c0.634-0.385,1.423-0.59,2.365-0.621l-2.737,9.324c-0.235,0.816-0.495,1.342-0.779,1.576
		s-0.737,0.352-1.36,0.352l-0.108,0.338h6.101l0.081-0.338c-0.573-0.012-0.954-0.088-1.142-0.225s-0.281-0.32-0.281-0.553
		c0-0.25,0.075-0.633,0.227-1.15l2.737-9.324c0.877,0.049,1.499,0.248,1.868,0.598C279.535,159.868,279.719,160.36,279.719,160.993z
		"/>
	<path fill="#FFCB05" d="M279.809,170.51h2.193c0.314-1.291,0.559-2.166,0.734-2.627c0.175-0.459,0.42-1.021,0.734-1.684
		c0.314-0.664,0.578-1.137,0.793-1.42s0.389-0.463,0.521-0.535c0.066-0.037,0.13-0.055,0.19-0.055c0.054,0,0.105,0.02,0.154,0.059
		c0.048,0.041,0.133,0.172,0.253,0.398c0.121,0.225,0.303,0.338,0.544,0.338c0.224,0,0.427-0.129,0.607-0.385
		c0.284-0.4,0.427-0.896,0.427-1.488c0-0.34-0.079-0.604-0.236-0.789s-0.362-0.279-0.616-0.279c-0.368,0-0.719,0.17-1.052,0.512
		c-0.567,0.578-1.414,2.119-2.538,4.621l1.369-5.133h-0.544l-2.737,0.604l-0.082,0.264c0.314,0,0.521,0.021,0.621,0.064
		s0.178,0.109,0.235,0.201s0.087,0.219,0.087,0.383c0,0.146-0.055,0.445-0.164,0.896L279.809,170.51z"/>
	<path fill="#FFCB05" d="M297.067,162.299l-2.293,0.082l-0.825,2.795c-0.731,1.357-1.429,2.398-2.094,3.123
		c-0.466,0.5-0.837,0.75-1.115,0.75c-0.066,0-0.124-0.025-0.172-0.074c-0.043-0.029-0.063-0.072-0.063-0.127
		c0-0.109,0.042-0.309,0.127-0.594l1.759-6.211h-0.544l-3.092,0.539l-0.09,0.348c0.302,0,0.509,0.02,0.62,0.059
		c0.112,0.039,0.192,0.094,0.24,0.164c0.049,0.07,0.073,0.15,0.073,0.242c0,0.207-0.085,0.609-0.254,1.205l-1.024,3.654
		c-0.151,0.523-0.227,0.939-0.227,1.25c0,0.365,0.116,0.668,0.349,0.904c0.232,0.238,0.509,0.357,0.829,0.357
		c0.339,0,0.694-0.102,1.065-0.303c0.372-0.201,0.829-0.602,1.373-1.205c0.356-0.402,0.928-1.178,1.714-2.328l-0.444,1.543
		c-0.151,0.506-0.227,0.922-0.227,1.252c0,0.311,0.107,0.561,0.321,0.752c0.215,0.193,0.51,0.289,0.884,0.289
		c1.01,0,1.935-0.764,2.774-2.293l-0.309-0.219c-0.356,0.535-0.644,0.891-0.861,1.068c-0.078,0.072-0.16,0.109-0.244,0.109
		c-0.049,0-0.096-0.025-0.141-0.078c-0.046-0.051-0.068-0.102-0.068-0.15c0-0.072,0.072-0.365,0.218-0.877L297.067,162.299z"/>
	<path fill="#FFCB05" d="M300.506,162.702c-0.475,0.438-0.711,0.986-0.711,1.643c0,0.391,0.078,0.738,0.235,1.043
		c0.224,0.42,0.688,1.016,1.396,1.789c0.514,0.566,0.842,0.982,0.983,1.252c0.143,0.268,0.214,0.545,0.214,0.83
		c0,0.293-0.109,0.543-0.327,0.754c-0.217,0.209-0.492,0.314-0.824,0.314c-0.284,0-0.58-0.092-0.889-0.277s-0.555-0.436-0.738-0.75
		c-0.185-0.313-0.383-0.838-0.594-1.574h-0.29l-0.444,3.041h0.335c0.103-0.146,0.196-0.242,0.281-0.289
		c0.084-0.045,0.202-0.068,0.354-0.068c0.169,0,0.423,0.049,0.762,0.146c0.514,0.141,0.945,0.211,1.296,0.211
		c0.52,0,1.02-0.131,1.5-0.389c0.48-0.26,0.842-0.604,1.083-1.031c0.242-0.43,0.363-0.885,0.363-1.365
		c0-0.445-0.104-0.863-0.309-1.252c-0.205-0.391-0.785-1.102-1.74-2.137c-0.272-0.293-0.447-0.523-0.525-0.695
		c-0.079-0.17-0.118-0.352-0.118-0.547c0-0.232,0.091-0.43,0.271-0.594c0.182-0.164,0.411-0.246,0.689-0.246
		c0.453,0,0.878,0.209,1.273,0.629s0.618,0.996,0.666,1.727h0.336l0.398-2.822h-0.326c-0.146,0.201-0.336,0.301-0.571,0.301
		c-0.163,0-0.381-0.033-0.652-0.1c-0.544-0.135-1.003-0.201-1.378-0.201C301.647,162.043,300.981,162.262,300.506,162.702z"/>
	<path fill="#FFCB05" d="M311.089,162.299l0.726-2.484h-0.472c-0.749,0.854-1.39,1.471-1.922,1.854
		c-0.531,0.385-1.185,0.719-1.958,1.006l-0.181,0.676h1.232l-1.433,4.939c-0.157,0.555-0.235,1.008-0.235,1.361
		c0,0.322,0.113,0.59,0.34,0.799c0.227,0.211,0.545,0.316,0.956,0.316c0.483,0,0.977-0.172,1.478-0.512
		c0.502-0.342,0.961-0.877,1.378-1.607l-0.317-0.201c-0.368,0.529-0.691,0.9-0.97,1.113c-0.108,0.086-0.215,0.129-0.317,0.129
		c-0.066,0-0.127-0.029-0.181-0.088c-0.055-0.057-0.082-0.125-0.082-0.205c0-0.17,0.049-0.42,0.146-0.748l1.514-5.297h1.169
		l0.317-1.051H311.089z"/>
	<path fill="#FFCB05" d="M263.355,177.844c-0.141,0.08-0.314,0.133-0.383,0.336c0.062,0,0.104,0.01,0.146,0
		c0.256-0.072,0.519-0.127,0.762-0.229c0.576-0.246,1.022-0.668,1.438-1.123c0.108-0.121,0.132-0.121,0.236,0.01
		c0.085,0.107,0.157,0.105,0.233-0.004c0.114-0.174,0.078-0.467-0.063-0.619c-0.04-0.039-0.076-0.096-0.079-0.148
		c-0.007-0.088,0.02-0.176,0.026-0.264c0.023-0.297,0.036-0.592-0.063-0.873c-0.118-0.344-0.373-0.439-0.695-0.275
		c-0.399,0.211-0.593,0.578-0.747,0.969c-0.135,0.32,0.013,0.547,0.232,0.693c0.161,0.107,0.335,0.201,0.519,0.313
		c-0.046,0.055-0.089,0.117-0.142,0.17C264.359,177.221,263.874,177.551,263.355,177.844z M264.594,175.581
		c-0.02-0.025,0-0.131,0.03-0.143c0.137-0.064,0.285-0.135,0.433-0.16c0.114-0.021,0.22,0.133,0.239,0.295c0,0.041,0,0.082,0,0.119
		c0,0.102,0,0.201,0,0.324C264.998,175.946,264.768,175.799,264.594,175.581z"/>
	<path fill="#FFCB05" d="M185.462,183.93c0.036-0.389,0.057-0.785,0.138-1.168c0.075-0.379-0.085-0.514-0.413-0.635
		c-0.633-0.23-1.328-0.416-1.541-1.277c-0.246,0.824-0.387,1.623-0.498,2.422c-0.017,0.098,0.089,0.281,0.174,0.311
		c0.403,0.139,0.426,0.465,0.476,0.801c0.259,1.887,0.524,3.771,0.79,5.66c0.141,1.021,0.275,2.041,0.413,3.086
		c-1.229,0-2.384,0-3.541,0c-0.449-2.953-0.885-5.879-1.331-8.838c0.207,0.033,0.36,0.061,0.584,0.094
		c0.092-0.699,0.17-1.377,0.256-2.031c-0.758-0.428-1.734-0.434-1.984-1.498c-0.196,0.48-0.37,0.922-0.42,1.379
		c-0.062,0.547-0.422,1.203,0.391,1.572c0.092,0.045,0.099,0.322,0.121,0.49c0.272,1.848,0.535,3.693,0.791,5.541
		c0.15,1.084,0.288,2.168,0.449,3.33c-1.204,0-2.345-0.039-3.476,0.014c-0.698,0.029-1.259-0.174-1.771-0.623
		c-0.938-0.813-1.872-1.623-2.826-2.41c-0.794-0.656-1.646-1.215-2.676-1.428c-1.377-0.277-2.747,0.578-3.082,1.971
		c2.564-0.4,4.459,0.9,6.434,2.436c-0.24,0.021-0.335,0.039-0.427,0.039c-3.147,0-6.292,0.01-9.436-0.008
		c-1.331-0.01-1.797-0.67-1.473-2.041c0.482-0.076,0.987-0.146,1.489-0.256c0.187-0.041,0.459-0.148,0.501-0.285
		c0.174-0.51,0.263-1.043,0.4-1.652c-1.777,0.309-3.446,0.104-5.128-0.123c-0.803-0.107-1.646-0.092-2.462-0.02
		c-1.442,0.131-2.364,0.979-2.571,2.225c0.774-0.092,1.551-0.221,2.325-0.268c0.8-0.047,1.603-0.01,2.403-0.01
		c0.016,0.07,0.029,0.141,0.046,0.207c-0.594,0.336-1.187,0.66-1.771,1.004c-2.314,1.363-3.531,3.313-3.367,6.074
		c0.128,2.092,1.259,3.805,3.292,4.426c1.226,0.371,2.544,0.422,3.803,0.686c1.744,0.365,2.649-0.988,3.849-1.826
		c-1.37-0.127-2.725-0.063-4.062-0.145c-1.623-0.102-3.193-0.479-4.554-1.43c-1.879-1.318-2.197-3.74-0.692-5.455
		c1.538-1.758,3.698-2.332,5.876-3.031c-0.05,0.338-0.076,0.609-0.122,0.875c-0.367,2.105,0.335,2.955,2.485,2.955
		c7.37,0.004,14.747,0.002,22.124,0c0.203,0,0.416-0.021,0.698-0.033c0.029-3.66-0.954-7.15-1.285-10.771
		C185.305,184.499,185.433,184.299,185.462,183.93z"/>
	<path fill="#FFCB05" d="M229.507,181.801c-0.043,0.004-0.096,0.008-0.141,0.012c-0.279,0.561-0.551,1.119-0.82,1.686
		c-0.053,0.113-0.068,0.264-0.056,0.395c0.065,0.623,0.151,1.244,0.21,1.867c0.318,3.043,0.793,6.072,0.666,9.148
		c-0.007,0.135,0.022,0.271,0.055,0.543c0.758-1.104,1.19-2.172,1.105-3.363c-0.177-2.445-0.416-4.885-0.646-7.324
		C229.789,183.774,229.628,182.79,229.507,181.801z"/>
	<path fill="#FFCB05" d="M275.28,181.788c-0.367,0.496-0.649,1.01-0.869,1.543c-0.102,0.236-0.134,0.523-0.111,0.777
		c0.282,3.207,0.587,6.41,0.868,9.617c0.047,0.514,0.011,1.041,0.011,1.563c0.806-0.961,1.216-2.059,1.138-3.27
		c-0.128-2.035-0.315-4.068-0.521-6.1C275.66,184.538,275.454,183.168,275.28,181.788z"/>
	<path fill="#FFCB05" d="M135.353,181.805c-0.072-0.014-0.145-0.027-0.217-0.043c-0.262,0.777-0.708,1.547-0.74,2.336
		c-0.043,1.107,0.262,2.219,0.341,3.334c0.177,2.525,0.305,5.053,0.452,7.578c0.01,0.105,0.039,0.211,0.068,0.352
		c0.797-0.865,1.21-2.225,1.111-3.402c-0.196-2.469-0.419-4.936-0.648-7.4C135.628,183.639,135.478,182.721,135.353,181.805z"/>
	<path fill="#FFCB05" d="M97.806,184.77c-0.623-0.322-1.193-0.613-1.803-0.93c-0.282,0.525-0.538,1.021-0.82,1.561
		c0.623,0.326,1.184,0.623,1.777,0.938C97.25,185.792,97.515,185.303,97.806,184.77z"/>
	<path fill="#FFCB05" d="M250.293,184.866c-0.613-0.314-1.164-0.598-1.784-0.914c-0.281,0.547-0.534,1.047-0.81,1.584
		c0.63,0.32,1.19,0.609,1.774,0.914C249.765,185.885,250.021,185.393,250.293,184.866z"/>
	<path fill="#FFCB05" d="M237.716,183.538c0.601,0.316,1.154,0.602,1.765,0.922c0.298-0.566,0.551-1.057,0.826-1.586
		c-0.623-0.314-1.184-0.602-1.794-0.912C238.235,182.522,237.979,183.016,237.716,183.538z"/>
	<path fill="#FFCB05" d="M159.746,197.889c0.285-0.551,0.547-1.049,0.829-1.59c-0.6-0.316-1.163-0.613-1.751-0.928
		c-0.285,0.543-0.554,1.041-0.842,1.59C158.591,197.284,159.156,197.577,159.746,197.889z"/>
	<path fill="#FFCB05" d="M242.851,181.879c-0.623-0.318-1.203-0.615-1.807-0.924c-0.282,0.543-0.531,1.023-0.81,1.557
		c0.597,0.316,1.167,0.621,1.771,0.939C242.307,182.901,242.566,182.409,242.851,181.879z"/>
	<path fill="#FFCB05" d="M95.262,185.76c-0.609-0.305-1.193-0.604-1.797-0.912c-0.282,0.555-0.53,1.057-0.8,1.584
		c0.584,0.301,1.121,0.58,1.764,0.92C94.705,186.829,94.974,186.311,95.262,185.76z"/>
	<path fill="#FFCB05" d="M254.958,198.157c0.604,0.313,1.171,0.602,1.791,0.922c0.288-0.572,0.544-1.063,0.803-1.572
		c-0.606-0.33-1.154-0.623-1.741-0.938C255.519,197.11,255.248,197.618,254.958,198.157z"/>
	<path fill="#FFCB05" d="M201.964,183.348c-0.541-0.344-1.047-0.662-1.584-1c-0.314,0.533-0.604,1.016-0.898,1.523
		c0.505,0.352,0.983,0.68,1.524,1.053C201.347,184.366,201.646,183.875,201.964,183.348z"/>
	<path fill="#FFCB05" d="M271.882,184.393c0.082-0.713,0.161-1.389,0.24-2.037c-0.774-0.432-1.748-0.451-2.017-1.52
		c-0.229,0.807-0.374,1.572-0.485,2.34c-0.017,0.125,0.059,0.365,0.141,0.391c0.443,0.133,0.443,0.492,0.495,0.84
		c0.079,0.564,0.154,1.127,0.233,1.691c0.334,2.328,0.658,4.66,0.986,7.029c-1.206,0-2.37,0-3.557,0
		c-0.439-2.951-0.879-5.871-1.328-8.893c0.449,0.227,0.616,0.078,0.649-0.262c0.049-0.432,0.124-0.859,0.118-1.289
		c-0.01-0.174-0.168-0.43-0.325-0.504c-0.64-0.301-1.394-0.443-1.612-1.348c-0.25,0.824-0.388,1.604-0.509,2.391
		c-0.017,0.107,0.065,0.314,0.145,0.34c0.521,0.168,0.479,0.617,0.537,1.006c0.266,1.867,0.521,3.734,0.784,5.602
		c0.131,0.98,0.266,1.963,0.406,2.998c-0.79,0-1.492,0-2.196,0c-2.4,0-2.374-0.031-4.187-1.57c-1.089-0.92-2.217-1.85-3.449-2.543
		c-1.676-0.936-3.424-0.18-4.026,1.625c1.223-0.117,2.394-0.07,3.442,0.498c1.013,0.551,1.977,1.193,2.967,1.795
		c-0.032,0.057-0.063,0.111-0.085,0.164c-2.672,0-5.341,0-8.042,0c-0.063-1.775,0.174-3.617-1.318-5.051
		c-0.19,0.381-0.328,0.746-0.527,1.074c-0.275,0.443-0.26,0.773,0.134,1.17c0.774,0.766,0.974,1.742,0.843,2.836
		c-2.065,0-4.085,0.014-6.111-0.02c-0.207-0.006-0.508-0.256-0.58-0.461c-0.243-0.66-0.449-1.34-0.594-2.027
		c-0.354-1.779-0.662-3.564-1.01-5.467c-0.547,0.648-0.935,1.236-0.718,1.994c0.124,0.436-0.046,0.576-0.384,0.758
		c-0.633,0.348-1.266,0.715-1.85,1.137c-0.776,0.57-1.511,1.209-1.875,2.148c-0.229,0.584-0.131,0.848,0.456,0.939
		c1.534,0.24,3.153,0.775,4.193-0.916c0.344,0.961,0.643,1.914,1.022,2.834c0.285,0.693,0.823,1,1.627,0.998
		c9.131-0.025,18.255-0.014,27.376-0.016c0.21,0,0.419-0.021,0.679-0.033c0.095-3.664-0.925-7.15-1.243-10.738
		C271.515,184.327,271.664,184.352,271.882,184.393z M240.175,190.85c-0.32-0.023-0.643-0.113-1.01-0.182
		c0.57-0.971,1.434-1.371,2.361-1.693C242.025,190.245,241.494,190.954,240.175,190.85z"/>
	<path fill="#FFCB05" d="M226.104,184.389c0.065-0.586,0.151-1.146,0.171-1.709c0.006-0.168-0.171-0.43-0.325-0.5
		c-0.646-0.297-1.394-0.449-1.616-1.348c-0.242,0.814-0.394,1.598-0.498,2.379c-0.017,0.125,0.145,0.275,0.223,0.408
		c0.125,0.199,0.341,0.381,0.374,0.59c0.282,1.861,0.534,3.732,0.8,5.598c0.154,1.1,0.314,2.197,0.466,3.309
		c-1.229,0-2.394,0-3.551,0c-0.036-0.561-0.046-1.074-0.108-1.58c-0.15-1.225-0.967-2.104-2.115-2.287
		c-0.97-0.158-1.96-0.125-2.819,0.328c-1.078,0.557-2.102,1.223-3.111,1.902c-1.157,0.783-2.396,1.33-3.761,1.607
		c-1.469,0.293-2.367-0.113-3.071-1.445c-0.249-0.486-0.437-1.01-0.649-1.52c-0.059-0.004-0.121-0.006-0.188-0.014
		c-0.055,0.34-0.127,0.676-0.15,1.016c-0.016,0.252,0.046,0.504,0.053,0.76c0.01,0.75-0.312,1.178-1.046,1.236
		c-0.722,0.057-1.446,0.01-2.269,0.01c0-0.84,0.095-1.639-0.02-2.406c-0.145-0.916-0.335-1.867-0.744-2.688
		c-0.558-1.119-1.883-1.164-2.686-0.197c-0.531,0.633-0.855,1.367-0.925,2.197c-0.121,1.455,0.42,2.188,1.862,2.523
		c0.505,0.117,1.017,0.221,1.521,0.322c-0.364,0.174-0.725,0.256-1.082,0.26c-1.669,0.021-3.341,0.023-5.017,0.027
		c-0.741,0-1.095-0.209-1.269-0.949c-0.177-0.76-0.312-1.539-0.36-2.318c-0.122-1.787-0.138-3.578-0.272-5.359
		c-0.068-0.945-0.299-1.877-0.459-2.816c-0.059-0.004-0.118-0.006-0.174-0.014c-0.384,0.611-0.777,1.211-1.145,1.83
		c-0.056,0.088,0.03,0.273,0.079,0.402c0.259,0.662,0.679,1.307,0.767,1.992c0.211,1.574,0.214,3.174,0.388,4.756
		c0.118,1.088,0.314,2.17,0.587,3.23c0.199,0.783,0.793,1.16,1.636,1.152c3.017-0.02,6.022-0.004,9.029-0.004
		c0.662-0.002,1.292-0.088,1.853-0.494c0.121-0.082,0.38-0.086,0.512-0.01c0.704,0.408,1.469,0.508,2.266,0.506
		c5.59-0.008,11.173-0.002,16.76-0.002c0.232,0,0.455,0,0.76,0c0.129-3.689-0.928-7.172-1.216-10.77
		C225.727,184.327,225.872,184.352,226.104,184.389z M201.866,191.26c-0.439-0.07-0.896-0.082-1.312-0.219
		c-0.295-0.1-0.594-0.32-0.783-0.566c-0.303-0.387-0.197-0.969,0.156-1.217c0.43-0.295,0.886-0.207,1.158,0.168
		c0.37,0.523,0.626,1.129,0.928,1.699C201.964,191.172,201.915,191.215,201.866,191.26z M219.541,193.032
		c-0.174,0.043-0.348,0.098-0.525,0.102c-1.938,0.008-3.875,0.004-5.815,0.004c-0.023-0.063-0.046-0.127-0.065-0.191
		c1.305-0.549,2.59-1.145,3.921-1.631c0.849-0.311,1.744-0.178,2.587,0.164c0.387,0.158,0.686,0.404,0.655,0.869
		C220.275,192.815,219.911,192.938,219.541,193.032z"/>
	<path fill="#FFCB05" d="M131.962,184.352c0.063-0.561,0.099-1.09,0.19-1.605c0.065-0.35-0.065-0.484-0.374-0.6
		c-0.646-0.242-1.377-0.402-1.596-1.301c-0.25,0.846-0.388,1.664-0.492,2.484c-0.014,0.086,0.154,0.193,0.227,0.295
		c0.141,0.213,0.354,0.42,0.39,0.65c0.331,2.193,0.636,4.393,0.94,6.59c0.105,0.746,0.197,1.498,0.292,2.283
		c-1.872,0-3.659,0.027-5.442-0.021c-0.423-0.012-0.839-0.287-1.229-0.428c0.351-0.402,0.601-0.705,0.866-0.994
		c0.967-1.072,0.721-2.199-0.689-2.541c-0.943-0.23-1.979-0.248-2.957-0.146c-1.232,0.125-1.836,1.373-1.383,2.555
		c0.977-0.568,1.531-0.383,1.993,0.697c-1.128,0.635-2.328,0.98-3.646,0.857c-0.178-1.326-0.807-2.406-1.469-3.477
		c-0.407-0.67-0.414-0.668-1.129-0.311c-1.141,0.57-1.967,1.488-2.724,2.475c-0.912,1.191-2.135,1.51-3.623,1.299
		c0.104-1.758-0.387-3.275-1.784-4.41c-0.557,0.943-0.734,1.75,0.112,2.689c0.783,0.875,1.153,2.012,0.721,3.24
		c-0.816,2.318-3.862,4.473-6.321,4.402c-0.779-0.021-1.547-0.217-2.327-0.326c-0.259-0.037-0.564-0.127-0.571,0.381
		c0.873,0.311,1.758,0.615,2.64,0.936c1.708,0.621,3.288,0.406,4.698-0.754c0.649-0.533,1.305-1.094,1.816-1.75
		c0.42-0.539,0.729-1.213,0.912-1.877c0.127-0.465,0.271-0.609,0.728-0.58c1.384,0.072,2.688-0.102,3.593-1.395
		c1.391,1.119,2.947,1.451,4.659,1.42c1.698-0.031,3.266-0.342,4.609-1.475c0.816,1.15,1.928,1.48,3.22,1.459
		c1.731-0.023,3.463-0.002,5.193-0.006c0.207,0,0.41-0.029,0.676-0.047c0.029-3.66-0.947-7.131-1.282-10.707
		C131.58,184.325,131.734,184.336,131.962,184.352z M115.203,191.899c0.068-0.129,0.099-0.279,0.19-0.354
		c0.38-0.316,0.776-0.615,1.17-0.918c0.259,0.352,0.564,0.678,0.768,1.059c0.206,0.385,0.312,0.826,0.515,1.389
		C116.737,192.926,115.93,192.547,115.203,191.899z"/>
	<path fill="#FFCB05" d="M145.572,189.659c-0.757-0.076-1.32,0.336-1.59,0.984c-0.295,0.707-0.567,1.475-0.613,2.234
		c-0.075,1.238,0.672,1.975,1.947,2.145c0.332,0.047,0.659,0.074,1.171,0.127c-0.767,0.857-1.413,1.641-2.124,2.354
		c-0.794,0.797-1.754,1.402-2.879,1.475c-0.941,0.059-1.898-0.15-2.846-0.232c-0.21-0.021-0.427-0.004-0.637-0.004
		c-0.013,0.127-0.02,0.25-0.032,0.375c1.282,0.305,2.563,0.658,3.855,0.908c1.036,0.195,2.007-0.107,2.807-0.779
		c1.456-1.219,2.439-2.738,2.472-4.689c0.02-1.168-0.065-2.348-0.22-3.508C146.789,190.344,146.388,189.737,145.572,189.659z
		 M146.33,193.311c-0.479-0.115-1.003-0.152-1.423-0.379c-0.263-0.141-0.452-0.563-0.492-0.885c-0.02-0.18,0.315-0.557,0.519-0.578
		c0.295-0.031,0.74,0.086,0.911,0.309c0.302,0.375,0.439,0.877,0.649,1.326C146.438,193.172,146.382,193.241,146.33,193.311z"/>
	<path fill="#FFCB05" d="M97.892,190.29c-0.876-0.617-1.813-1.143-2.754-1.729c-0.099,0.229-0.164,0.348-0.207,0.475
		c-0.42,1.244-0.853,2.488-1.242,3.744c-0.125,0.385-0.158,0.803-0.19,1.211c-0.046,0.563,0.249,0.93,0.747,1.145
		c0.836,0.361,1.686,0.289,2.535,0.063c1.032-0.275,1.646-0.959,1.875-1.98C98.902,192.118,98.938,191.028,97.892,190.29z
		 M97.436,193.141c-0.515,0.264-1.075,0.42-1.387,0.537c-1.128,0.006-1.662-0.746-1.374-1.568c0.043-0.127,0.108-0.254,0.178-0.371
		c0.479-0.768,0.58-0.805,1.363-0.371c0.442,0.244,0.882,0.508,1.279,0.82C97.958,192.559,97.945,192.877,97.436,193.141z"/>
	<path fill="#FFCB05" d="M238.72,178.508c0.088,0.084,0.167,0.16,0.249,0.238c0.256-0.252,0.263-0.508,0.046-0.74
		c-0.029-0.039-0.068-0.092-0.068-0.135c0-0.316,0.022-0.633,0.016-0.945c-0.01-0.289-0.177-0.51-0.403-0.541
		c-0.206-0.027-0.387,0.066-0.541,0.203c-0.229,0.207-0.403,0.449-0.511,0.742c-0.135,0.348-0.096,0.596,0.209,0.789
		c0.168,0.107,0.338,0.209,0.512,0.314c-0.02,0.031-0.039,0.061-0.063,0.084c-0.452,0.48-0.993,0.836-1.563,1.156
		c-0.121,0.07-0.227,0.168-0.341,0.248c0.01,0.023,0.022,0.047,0.033,0.07c0.107-0.008,0.219,0,0.324-0.029
		C237.478,179.721,238.156,179.211,238.72,178.508z M237.904,177.389c-0.023-0.027-0.014-0.127,0.01-0.143
		c0.121-0.063,0.242-0.133,0.377-0.156c0.167-0.031,0.269,0.049,0.289,0.219c0.02,0.162,0.003,0.33,0.003,0.502
		C238.297,177.743,238.078,177.602,237.904,177.389z"/>
	<path fill="#FFCB05" d="M94.496,180.315c0.092,0.086,0.17,0.162,0.256,0.238c0.255-0.254,0.258-0.508,0.045-0.742
		c-0.035-0.039-0.072-0.09-0.072-0.137c0-0.314,0.023-0.631,0.014-0.943c-0.007-0.287-0.174-0.51-0.4-0.541
		c-0.206-0.027-0.387,0.068-0.537,0.205c-0.229,0.205-0.403,0.449-0.515,0.74c-0.135,0.35-0.096,0.6,0.213,0.793
		c0.164,0.104,0.334,0.205,0.508,0.313c-0.022,0.031-0.042,0.059-0.062,0.084c-0.453,0.479-0.997,0.836-1.564,1.158
		c-0.118,0.068-0.227,0.164-0.338,0.246c0.007,0.023,0.02,0.045,0.026,0.068c0.111-0.01,0.227,0,0.328-0.029
		C93.255,181.528,93.935,181.016,94.496,180.315z M93.682,179.194c-0.026-0.027-0.013-0.127,0.01-0.141
		c0.121-0.064,0.246-0.135,0.377-0.158c0.171-0.027,0.269,0.051,0.288,0.219c0.021,0.164,0.004,0.332,0.004,0.502
		C94.076,179.549,93.853,179.411,93.682,179.194z"/>
	<path fill="#FFCB05" d="M121.819,186.338c-0.118,0.068-0.227,0.164-0.338,0.248c0.01,0.021,0.02,0.043,0.03,0.066
		c0.111-0.01,0.223-0.002,0.327-0.029c0.859-0.24,1.534-0.754,2.099-1.453c0.088,0.084,0.17,0.16,0.252,0.238
		c0.256-0.254,0.26-0.508,0.043-0.742c-0.033-0.039-0.068-0.09-0.068-0.137c0.003-0.314,0.022-0.629,0.016-0.943
		c-0.01-0.287-0.177-0.512-0.403-0.539c-0.206-0.029-0.384,0.066-0.537,0.203c-0.229,0.205-0.403,0.449-0.515,0.74
		c-0.132,0.35-0.092,0.6,0.209,0.793c0.168,0.104,0.338,0.205,0.512,0.314c-0.02,0.029-0.039,0.057-0.063,0.082
		C122.93,185.659,122.389,186.014,121.819,186.338z M123.121,184.049c-0.023-0.029-0.01-0.127,0.01-0.141
		c0.121-0.064,0.249-0.135,0.38-0.158c0.164-0.029,0.266,0.051,0.286,0.219c0.02,0.162,0.003,0.33,0.003,0.504
		C123.517,184.405,123.294,184.264,123.121,184.049z"/>
	<path fill="#FFCB05" d="M168.657,184.946c0.394-0.125,0.81-0.209,0.94-0.688c0-0.004,0.01-0.008,0.01-0.01
		c0.057-0.117,0.119-0.232,0.184-0.367c-0.052-0.002-0.059-0.006-0.071-0.004c-0.968,0.307-1.938,0.619-2.908,0.922
		c-0.278,0.084-0.521,0.191-0.604,0.502c-0.01,0.043-0.049,0.076-0.069,0.117c-0.062,0.119-0.124,0.24-0.203,0.396
		c0.105-0.021,0.164-0.027,0.217-0.043C166.985,185.497,167.821,185.219,168.657,184.946z"/>
	<path fill="#FFCB05" d="M185.948,196.918c-0.97,0.309-1.938,0.621-2.908,0.922c-0.278,0.084-0.521,0.191-0.606,0.502
		c-0.013,0.043-0.053,0.076-0.068,0.115c-0.063,0.121-0.121,0.242-0.203,0.402c0.104-0.023,0.164-0.029,0.216-0.047
		c0.836-0.275,1.672-0.551,2.505-0.826c0.391-0.125,0.81-0.209,0.941-0.686c0-0.006,0.006-0.006,0.01-0.012
		c0.059-0.115,0.117-0.234,0.187-0.367C185.967,196.918,185.955,196.917,185.948,196.918z"/>
	<path fill="#FFCB05" d="M200.525,179.405c0.003-0.004,0.013-0.006,0.013-0.012c0.056-0.115,0.114-0.232,0.184-0.365
		c-0.053-0.004-0.065-0.008-0.072-0.004c-0.97,0.307-1.938,0.617-2.908,0.92c-0.278,0.084-0.521,0.191-0.603,0.504
		c-0.017,0.041-0.05,0.074-0.072,0.115c-0.06,0.119-0.121,0.24-0.197,0.4c0.099-0.023,0.158-0.029,0.21-0.049
		c0.836-0.273,1.672-0.551,2.505-0.822C199.977,179.965,200.393,179.883,200.525,179.405z"/>
	<path fill="#FFCB05" d="M214.197,184.334c0-0.004,0.01-0.004,0.01-0.012c0.062-0.115,0.117-0.23,0.184-0.367
		c-0.05,0-0.06-0.004-0.069,0c-0.971,0.305-1.938,0.617-2.911,0.918c-0.272,0.086-0.519,0.193-0.604,0.504
		c-0.01,0.043-0.049,0.076-0.068,0.113c-0.063,0.123-0.118,0.242-0.2,0.4c0.104-0.021,0.16-0.027,0.216-0.045
		c0.83-0.273,1.666-0.551,2.505-0.824C213.649,184.895,214.065,184.813,214.197,184.334z"/>
	<path fill="#FFCB05" d="M249.434,181.172c0-0.002,0.007-0.004,0.007-0.012c0.063-0.115,0.118-0.23,0.188-0.365
		c-0.05-0.004-0.063-0.006-0.076-0.004c-0.964,0.307-1.934,0.621-2.904,0.92c-0.279,0.088-0.521,0.193-0.604,0.506
		c-0.014,0.041-0.049,0.074-0.068,0.113c-0.063,0.121-0.125,0.242-0.204,0.4c0.102-0.023,0.161-0.029,0.214-0.047
		c0.836-0.273,1.672-0.551,2.508-0.822C248.88,181.733,249.303,181.649,249.434,181.172z"/>
	<path fill="#FFCB05" d="M142.72,187.301c-0.275,0.086-0.521,0.193-0.604,0.504c-0.01,0.039-0.049,0.076-0.069,0.115
		c-0.062,0.121-0.121,0.242-0.203,0.4c0.105-0.023,0.164-0.029,0.217-0.047c0.833-0.273,1.665-0.553,2.505-0.824
		c0.387-0.127,0.81-0.209,0.94-0.689c0-0.002,0.01-0.006,0.01-0.01c0.06-0.115,0.118-0.234,0.184-0.367
		c-0.052,0-0.062-0.004-0.071-0.002C144.661,186.69,143.694,187,142.72,187.301z"/>
	<path fill="#FFCB05" d="M104.472,186.049c-0.279,0.088-0.521,0.191-0.607,0.506c-0.01,0.041-0.045,0.072-0.068,0.113
		c-0.059,0.121-0.121,0.242-0.2,0.398c0.105-0.021,0.164-0.027,0.217-0.045c0.833-0.273,1.665-0.551,2.505-0.822
		c0.39-0.129,0.807-0.213,0.938-0.689c0.004-0.004,0.01-0.004,0.014-0.012c0.059-0.115,0.117-0.23,0.184-0.365
		c-0.053-0.004-0.066-0.006-0.072-0.004C106.41,185.436,105.446,185.75,104.472,186.049z"/>
	<path fill="#FFCB05" d="M211.453,186.883c-0.076,0.039-0.135,0.053-0.171,0.09c-0.285,0.311-0.348,0.68-0.246,1.08
		c0.036,0.158,0.147,0.268,0.288,0.309c0.315,0.096,0.617,0.063,0.859-0.18c0.111-0.111,0.207-0.24,0.309-0.367
		c0.029,0.023,0.059,0.047,0.092,0.072c0.291,0.268,0.764,0.244,1.025-0.057c0.299-0.346,0.364-0.754,0.315-1.188
		c-0.017-0.127-0.02-0.27-0.167-0.355c-0.05,0.098-0.089,0.195-0.145,0.279c-0.092,0.146-0.111,0.277-0.036,0.445
		c0.092,0.215,0.056,0.252-0.161,0.348c-0.032,0.016-0.072,0.033-0.111,0.041c-0.301,0.064-0.57-0.053-0.547-0.422
		c0.006-0.076-0.01-0.156-0.03-0.232c-0.006-0.037-0.052-0.1-0.065-0.098c-0.046,0.018-0.104,0.045-0.121,0.084
		c-0.033,0.07-0.043,0.15-0.056,0.23c-0.046,0.406-0.275,0.676-0.652,0.813c-0.348,0.127-0.594-0.094-0.512-0.455
		C211.354,187.19,211.4,187.059,211.453,186.883z"/>
	<path fill="#FFCB05" d="M262.985,179.725c0.036,0.16,0.147,0.27,0.292,0.313c0.314,0.092,0.616,0.059,0.858-0.184
		c0.108-0.111,0.2-0.24,0.309-0.367c0.026,0.021,0.056,0.051,0.085,0.074c0.299,0.264,0.768,0.242,1.029-0.061
		c0.302-0.34,0.367-0.75,0.315-1.188c-0.017-0.127-0.017-0.27-0.164-0.355c-0.05,0.102-0.089,0.195-0.147,0.281
		c-0.089,0.146-0.108,0.277-0.033,0.445c0.092,0.213,0.056,0.252-0.16,0.348c-0.039,0.016-0.072,0.033-0.111,0.043
		c-0.302,0.061-0.577-0.053-0.548-0.424c0.003-0.078-0.013-0.156-0.029-0.234c-0.007-0.037-0.056-0.096-0.069-0.094
		c-0.043,0.014-0.104,0.041-0.118,0.082c-0.036,0.07-0.049,0.152-0.056,0.229c-0.049,0.408-0.275,0.68-0.652,0.814
		c-0.351,0.125-0.594-0.094-0.512-0.455c0.026-0.133,0.076-0.262,0.128-0.436c-0.071,0.037-0.131,0.049-0.167,0.086
		C262.949,178.956,262.886,179.323,262.985,179.725z"/>
	<path fill="#FFCB05" d="M158.267,183.071c-0.076,0.037-0.135,0.051-0.168,0.088c-0.288,0.313-0.351,0.68-0.252,1.08
		c0.036,0.16,0.147,0.268,0.292,0.311c0.314,0.096,0.616,0.063,0.858-0.182c0.111-0.109,0.203-0.238,0.309-0.367
		c0.026,0.023,0.059,0.049,0.085,0.074c0.299,0.268,0.771,0.24,1.033-0.059c0.298-0.344,0.364-0.752,0.312-1.186
		c-0.014-0.131-0.017-0.273-0.164-0.355c-0.053,0.096-0.089,0.193-0.145,0.279c-0.092,0.145-0.111,0.275-0.039,0.445
		c0.095,0.213,0.059,0.25-0.157,0.348c-0.04,0.016-0.072,0.031-0.111,0.041c-0.302,0.063-0.577-0.053-0.552-0.424
		c0.011-0.076-0.006-0.158-0.025-0.232c-0.007-0.039-0.053-0.1-0.066-0.098c-0.045,0.02-0.104,0.045-0.124,0.086
		c-0.029,0.07-0.039,0.15-0.053,0.229c-0.046,0.408-0.275,0.678-0.649,0.814c-0.354,0.125-0.596-0.096-0.514-0.455
		C158.166,183.374,158.214,183.245,158.267,183.071z"/>
	<path fill="#FFCB05" d="M157.712,186.563c-0.02,0.039-0.029,0.082-0.039,0.123c0.01,0.012,0.023,0.023,0.033,0.035
		c0.256-0.111,0.515-0.221,0.771-0.338c0.561-0.25,1.118-0.502,1.675-0.762c0.141-0.064,0.321-0.115,0.4-0.234
		c0.145-0.221,0.223-0.482,0.334-0.727c-0.01-0.012-0.02-0.025-0.029-0.037c-0.102,0.043-0.203,0.076-0.305,0.121
		c-0.617,0.275-1.232,0.559-1.855,0.822c-0.61,0.256-0.617,0.244-0.908,0.836C157.762,186.456,157.732,186.506,157.712,186.563z"/>
</g>
</svg>
