<?xml version="1.0" encoding="utf-8"?>
<!-- Generator: Adobe Illustrator 16.0.0, SVG Export Plug-In . SVG Version: 6.00 Build 0)  -->
<!DOCTYPE svg PUBLIC "-//W3C//DTD SVG 1.1//EN" "http://www.w3.org/Graphics/SVG/1.1/DTD/svg11.dtd">
<svg version="1.1" id="Layer_1" xmlns="http://www.w3.org/2000/svg" xmlns:xlink="http://www.w3.org/1999/xlink" x="0px" y="0px"
	 width="878.956px" height="160.493px" viewBox="0 0 878.956 160.493" enable-background="new 0 0 878.956 160.493"
	 xml:space="preserve">
<path fill="#4A291A" d="M161.525,35.203c0,0,1.4,0.21,2.24,0.839c0.839,0.629,1.957,1.959,3.635,2.378
	c1.68,0.42,1.889,2.238,5.036-1.225c3.147-3.462,6.925-7.029,8.813-9.337c1.889-2.309,3.147-7.974,3.776-10.911
	c0,0-0.524-2.413,0.524-3.147c1.05-0.734,1.05-0.734,1.889-0.63c0.84,0.105,0.314,2.413,0.314,3.672
	c0,1.259,0.443,2.459,0.443,2.459s2.18-4.453,2.81-5.397c0.63-0.944,1.469-0.419,1.469,0.84c0,1.259-0.944,3.462-1.259,4.196
	s0.449,1.072,0.449,1.072s1.544-1.492,2.174-2.541c0.629-1.049,1.783-1.259,1.783,0.314c0,0.699-0.537,1.561-1.135,2.305
	c-0.747,0.934-0.035,1.131-0.035,1.131l0.596-0.21l0.574-0.604c0,0,0.105-0.419,0,1.469c-0.105,1.889,0.466,6.085,0.046,7.869
	s-0.36,6.924-0.57,7.554c-0.21,0.629-1.958-0.14-1.958-0.14s-0.383,1.713-0.697,3.077c-0.315,1.364-1.19,1.818-1.82,2.657
	c-0.629,0.839-1.118,0.28-1.118,0.28s-0.806-0.105-1.017,1.259c-0.209,1.364-0.068,2.169-1.223,3.218
	c-1.154,1.049-2.134,0.979-2.658,0.349c-0.525-0.63,1.049-1.574,0,0c-1.05,1.574-2.309,1.993-3.567,1.993s-1.108,0-2.442-0.524
	c-1.335-0.524-2.698-1.469-2.698-1.469s0.524,0.944,1.153,1.993c0.63,1.049,1.672,2.064,3.98,2.903s3.364,0.139,5.567,1.503
	c2.203,1.364,3.252,2.413,3.462,3.462s0.944,2.413-0.42,2.518c-1.363,0.105-1.396,0.7-1.396,0.7s-0.807-0.176-0.492,0.769
	c0.315,0.944-0.209,1.993-1.049,1.993c-0.839,0-1.783,0-1.783,0s-0.63-0.104-0.734,0.839c-0.105,0.944-0.524,1.364-1.574,1.154
	c-1.049-0.21-2.308-1.154-2.308-1.154l-1.154,1.207c0,0-1.154,0.157-2.308-0.682c-1.154-0.839-1.469-1.259-1.784-1.469
	c-0.314-0.21-1.573-0.84-1.573-0.84s-0.944,1.154-1.679,1.154s-1.364,0-1.993-1.154c-0.63-1.154-1.538-0.839-1.853-0.839
	c-0.315,0-1.085-1.049-1.819-1.574c-0.734-0.525-1.26-0.105-1.154-1.364c0.104-1.259,0.734-3.147,1.049-3.882
	c0.314-0.735,0.42-0.735,0.734-1.364s0.84,0.105,0,0s-3.043-0.629-5.246-1.469s-3.882-1.749-5.455-2.798
	c-1.574-1.049-3.682-2.447-5.046-3.497c-1.364-1.049-5.354-2.321-5.354-2.321s-5.391-1.351-6.649-1.718s-4.773-0.892-5.718-1.993
	c-0.944-1.102-1.94-3.2-2.046-3.515c-0.104-0.315-0.701-1.836-0.701-1.836s2.117,0,4.636,1.154c2.518,1.154,4.563,2.098,5.665,2.728
	s2.413,0.997,3.672,1.521c1.26,0.524,3.253,0.349,4.826,0.664c1.574,0.315,2.833,0.141,3.777,0.141s0.124,0.14,1.541,0.14
	c1.416,0,1.396,0.472,2.76,0.472c1.364,0,1.68-0.158,2.519-0.21c0.839-0.053,0.892-0.367,0.892-0.367l-0.104-1.102l-0.42,0.839
	c0,0-0.944,0.63-1.154-0.367c-0.21-0.997-0.419-2.098-0.419-3.095s-0.63-1.154,0.419-1.731
	C160.215,34.941,160.368,34.259,161.525,35.203z"/>
<path fill="#4A291A" d="M97.705,27.931c0,0,5.035,3.218,8.537,3.777c3.495,0.559,8.669,3.775,9.928,12.869s7.416,6.714,10.636,6.995
	c3.213,0.28,4.413,2.936,4.302,6.015c-0.105,3.079-1.509,2.659-1.509,2.659l0.42,2.657c0,0-1.541-4.057-4.334-4.057
	c-2.8,0-6.853,0.98-8.675,4.057c-1.816,3.077-4.617,4.756-4.617,4.756s-0.977,2.377-1.953,2.098
	c-0.984-0.279-2.663-1.958-2.801-0.979c-0.138,0.979,1.535,6.015,0,6.435c-1.541,0.419-2.8,1.819-2.8,0.561
	s-0.138-6.157-0.839-3.498c-0.695,2.659,0.563,8.114-1.26,9.373c-1.816,1.259-3.074,0-3.074,0s-0.139,1.816-1.961,1.958
	c-1.816,0.141-3.357,0-3.357,0s-1.396,1.96-2.518,1.4c-1.115-0.561-1.535-4.898-1.535-6.436s-2.518-2.096,0-3.636
	c2.519-1.54,0.275-1.4,2.374-2.659c2.099-1.259,2.519-2.099,3.776-5.036c1.26-2.938,1.26-3.497,1.823-5.595
	c0.558-2.099,1.259-3.218,0.275-3.638c-0.977-0.42-1.679-1.156-2.655-1.487c-0.977-0.332-1.396,0.369-1.396-2.01
	c0-2.379-1.403-1.82-1.403-3.218c0-1.398,0.839-1.959,0-2.938c-0.84-0.979-0.84-0.979-1.679-1.398
	c-0.84-0.419-1.259,0.42-1.259-1.259s-2.374-2.237-2.794-2.237s2.794-0.141,2.518-1.959c-0.281-1.818-2.242,3.077-4.897-1.12
	c-2.655-4.196-3.777-6.573-3.777-6.573l-2.518-2.379l3.357-0.141c0,0-6.433-1.958-6.573-2.797c-0.142-0.839,6.714,0.839,6.714,0.839
	l-7.554-2.938c0,0-1.541-2.797,4.056-0.979c5.593,1.818,5.593,3.638,8.95,3.357c1.64-0.138,4.695-0.894,6.741-0.564
	c3.829,0.618,7.947,3.93,7.53,3.641C97.43,28.771,97.705,27.931,97.705,27.931z"/>
<path fill-rule="evenodd" clip-rule="evenodd" fill="#4A291A" d="M269.646,142.319c-16.96-5.652-34.729-5.525-52.696-5.684
	c1.171,0.596,2.338,1.192,3.508,1.789c-35.323-1.641-70.64-4.063-106.406,0.461c2.794-3.447,0.892-4.619-1.603-5.191
	c-2.069-0.475-4.24-0.68-6.371-0.689c-12.688-0.061-25.379-0.031-38.07-0.031c-0.06,0.455-0.125,0.907-0.184,1.361
	c4.779,1.105,9.563,2.211,14.347,3.316c-0.02,0.097-0.036,0.191-0.053,0.289c-19.432,0-38.864,0-58.3,0
	c-0.138-0.315-0.281-0.632-0.426-0.947c5.107-2.307,10.17-4.721,15.337-6.888c4.065-1.706,8.616-2.532,12.288-4.812
	c3.403-2.111,6.524-5.247,8.715-8.615c3.718-5.707,8.275-9.959,13.81-14.064c9.085-6.739,19.753-6.039,29.565-9.072
	c4.295-1.328,8.434-3.251,12.482-5.228c2.986-1.459,5.688-3.501,8.58-5.18c2.134-1.241,4.262-2.896,6.53,0.129
	c0.512,0.684,2.275,0.672,3.433,0.592c7.328-0.516,14.295-1.337,20.754-6.018c7.433-5.383,15.996-6.901,24.422-1.236
	c6.666,4.482,13.236,9.109,19.967,13.488c1.813,1.181,4.039,1.759,6.121,2.485c7.236,2.521,11.879,7.967,16.107,13.966
	c1.61,2.287,3.334,4.563,5.357,6.469c2.6,2.451,4.207,1.75,5.065-2.529c4.62,4.545,9.099,8.672,13.245,13.106
	c4.577,4.892,9.59,8.855,16.324,10.293c1.036,0.222,2.033,1.167,2.797,2.007C266.023,137.79,267.598,139.834,269.646,142.319z
	 M122.461,133.706c1.787,0.332,2.797,0.693,3.807,0.68c6.705-0.08,13.413-0.502,20.107-0.328
	c18.836,0.488,37.842-2.549,56.471,2.631c1,0.277,3.092-0.064,3.232-0.541c1.437-4.93,5.853-4.206,9.232-4.706
	c6.352-0.94,12.836-1.001,19.196-1.906c1.534-0.218,2.8-2.31,4.193-3.54c-1.396-1.555-2.603-4.172-4.229-4.465
	c-4.462-0.805-7.593-3.248-10.377-6.396c-4.789-5.418-9.426-10.973-14.238-16.37c-0.912-1.026-2.344-1.589-3.537-2.364
	c-0.256,0.289-0.509,0.579-0.762,0.867c2.705,4.115,5.407,8.231,8.111,12.345c-0.39,0.414-0.78,0.826-1.17,1.24
	c-1.954-1.318-4.282-2.309-5.797-4.018c-4.613-5.202-8.793-10.789-13.38-16.017c-2.865-3.267-5.265-7.273-11.314-8.91
	c2.705,8.604,5.099,16.226,7.495,23.846c-0.367,0.148-0.731,0.294-1.095,0.441c-0.922-1.699-1.925-3.359-2.745-5.104
	c-2.789-5.934-5.451-11.929-8.327-17.821c-0.439-0.898-1.764-1.364-2.679-2.031c-0.551,1.089-1.472,2.141-1.576,3.271
	c-0.243,2.518-0.076,5.075-0.076,7.616c-0.521,0.116-1.039,0.233-1.557,0.349c-0.741-0.953-1.656-1.816-2.19-2.872
	c-1.331-2.626-2.561-5.31-3.692-8.026c-0.888-2.131-2.33-2.708-4.071-1.341c-4.263,3.347-8.498,6.749-12.534,10.358
	c-5.072,4.531-9.938,9.288-14.882,13.958c-0.78,0.734-1.505,1.526-2.255,2.291c0.235,0.32,0.472,0.643,0.704,0.961
	c12.187-0.566,21.967-6.043,29.882-15.72c0.049,1.877-0.357,3.22-0.83,4.539c-1.773,4.977-2.318,10.033,0.249,14.811
	c0.896,1.667,2.958,2.706,4.485,4.032c1.19-1.486,2.81-2.805,3.469-4.498c1.105-2.846,1.42-5.992,2.439-8.883
	c0.416-1.184,1.8-2.026,2.747-3.025c0.905,0.989,2.206,1.832,2.636,2.997c0.781,2.114,1.043,4.419,1.521,6.644
	c1.181,5.481,3.318,10.011,9.344,11.921c2.22,0.703,3.968,2.896,5.932,4.41c-0.193,0.419-0.387,0.837-0.58,1.256
	c-1.394,0.246-2.797,0.756-4.178,0.697c-9.501-0.395-19.012-0.736-28.487-1.48c-3.37-0.264-6.675-1.522-9.97-2.472
	c-2.246-0.647-4.396-2.11-6.637-2.216c-5.213-0.252-10.465-0.079-15.682,0.25c-5.885,0.375-11.74,1.109-18.176,1.74
	c2.442-1.572,4.452-2.652,6.193-4.066c1.114-0.902,1.832-2.297,2.728-3.471c-1.469-0.457-2.925-1.245-4.406-1.307
	c-4.203-0.182-8.419-0.064-13.858-0.064c2.288-2.649,3.685-4.564,5.38-6.166c4.548-4.305,9.367-8.331,13.771-12.774
	c1.573-1.588,2.255-4.061,3.347-6.131c-2.017,0.697-4.036,1.38-6.042,2.104c-0.367,0.133-0.669,0.444-1.017,0.646
	c-7.029,4.1-13.822,8.335-22.202,9.844c-6.729,1.21-13.266,4.109-16.954,10.885c-0.298-0.297-0.593-0.595-0.895-0.892
	c3.102-3.556,6.199-7.11,9.298-10.666c-2.452-0.351-4.898-0.295-6.853,0.715c-9.104,4.713-15.875,11.729-19.675,21.364
	c-1.406,3.563-4.107,5.486-7.57,6.472c-5.022,1.428-10.111,2.626-15.127,4.065c-2.033,0.584-3.954,1.543-5.928,2.331
	c6.124,2.011,31.356,0.417,33.684-1.487c-1.373-0.754-2.668-1.462-3.96-2.17c0.056-0.438,0.111-0.875,0.164-1.312
	c21.455,0,42.91,0,63.945,0C124.491,131.026,123.73,132.03,122.461,133.706z"/>
<path fill-rule="evenodd" clip-rule="evenodd" fill="#4A291A" d="M88.479,116.17c0,0,0.873-0.84,3.357-5.035
	c2.485-4.195-7.271-5.036-9.511,0c-2.239,5.035-8.39,8.393-12.312,10.072c-3.914,1.678-17.074,4.807-17.074,4.807
	s18.195,0.889,26.589,0c8.394-0.891,15.108,5.596,15.665,0.395C95.754,121.208,98.636,116.128,88.479,116.17z"/>
<rect x="269.256" y="94.26" fill="#4A291A" width="74.699" height="1.416"/>
<rect x="774.198" y="94.26" fill="#4A291A" width="74.703" height="1.416"/>
<g>
	<path fill="#4A291A" d="M286.126,50.358h-8.545l-1.71,2.13l-1.953,2.359c-0.379,0.504-0.657,0.964-0.835,1.372
		c-0.136,0.315-0.202,0.631-0.202,0.942c0,0.329,0.171,0.632,0.518,0.912s0.919,0.442,1.721,0.482v0.758h-8.242l0.204-0.758
		c0.732-0.123,1.384-0.382,1.953-0.776c0.761-0.548,1.853-1.675,3.277-3.385l19.553-23.512h0.916l-0.916,22.754
		c-0.041,1.188-0.062,1.907-0.062,2.152c0,0.93,0.188,1.604,0.56,2.03c0.372,0.425,0.995,0.67,1.863,0.736l-0.204,0.758h-11.944
		l0.224-0.758c1.181-0.11,1.859-0.206,2.034-0.285c0.381-0.193,0.725-0.592,1.039-1.201c0.312-0.605,0.502-1.662,0.569-3.165
		L286.126,50.358z M286.126,48.674l0.53-9.058l-7.673,9.058H286.126z"/>
	<path fill="#4A291A" d="M311.885,30.883l-6.736,23.082c-0.393,1.368-0.59,2.219-0.59,2.561c0,0.18,0.06,0.329,0.174,0.452
		c0.115,0.122,0.241,0.184,0.376,0.184c0.244,0,0.474-0.097,0.693-0.285c0.651-0.535,1.377-1.438,2.177-2.705l0.794,0.368
		c-1.29,2.078-2.559,3.561-3.806,4.446c-0.854,0.604-1.765,0.902-2.728,0.902c-0.895,0-1.606-0.24-2.137-0.728
		c-0.528-0.481-0.794-1.069-0.794-1.753c0-0.505,0.165-1.315,0.488-2.438l5.494-18.899c0.298-1.039,0.449-1.732,0.449-2.074
		c0-0.325-0.143-0.587-0.428-0.776c-0.381-0.276-0.957-0.39-1.729-0.351l0.223-0.776l6.857-1.21H311.885z"/>
	<path fill="#4A291A" d="M348.343,30.883l-2.299,9.43h-0.671c-0.148-1.478-0.414-2.661-0.794-3.547
		c-0.57-1.285-1.326-2.275-2.269-2.972c-0.943-0.697-1.964-1.048-3.063-1.048c-1.059,0-1.983,0.408-2.777,1.219
		c-0.793,0.815-1.189,1.736-1.189,2.757c0,1.013,0.273,2.008,0.824,2.986c0.549,0.978,1.848,2.446,3.896,4.415
		c1.64,1.574,2.743,2.924,3.306,4.06c0.563,1.135,0.845,2.367,0.845,3.691c0,1.49-0.394,2.863-1.18,4.121
		c-0.787,1.258-1.932,2.231-3.429,2.92c-1.499,0.688-3.198,1.034-5.097,1.034c-1.168,0-2.637-0.175-4.406-0.521
		c-1.771-0.351-2.947-0.521-3.531-0.521c-0.46,0-0.874,0.07-1.24,0.215s-0.82,0.421-1.363,0.828h-0.794l2.462-10.597h0.773
		c0.178,1.859,0.55,3.442,1.12,4.744c0.57,1.307,1.384,2.323,2.442,3.056c1.057,0.732,2.264,1.097,3.621,1.097
		c1.342,0,2.464-0.447,3.367-1.342c0.9-0.895,1.352-1.947,1.352-3.148c0-1.025-0.253-2.008-0.762-2.95s-1.668-2.319-3.479-4.121
		c-1.81-1.806-3.063-3.415-3.755-4.84c-0.501-1.052-0.751-2.17-0.751-3.363c0-2.061,0.806-3.845,2.422-5.349
		c1.612-1.504,3.722-2.253,6.325-2.253c1.183,0,2.734,0.263,4.661,0.798c1.124,0.315,1.918,0.474,2.381,0.474
		c0.392,0,0.745-0.088,1.059-0.259c0.312-0.171,0.678-0.509,1.099-1.013H348.343z"/>
	<path fill="#4A291A" d="M368.832,40.598l-3.947,13.635l-0.408,1.657c-0.039,0.206-0.059,0.355-0.059,0.451
		c0,0.167,0.057,0.308,0.173,0.43c0.113,0.123,0.232,0.189,0.354,0.189c0.285,0,0.678-0.22,1.18-0.658
		c0.204-0.18,0.693-0.807,1.467-1.885l0.713,0.368c-0.965,1.775-1.993,3.073-3.085,3.884c-1.092,0.812-2.269,1.219-3.529,1.219
		c-0.773,0-1.363-0.201-1.771-0.604c-0.406-0.403-0.61-0.912-0.61-1.525c0-0.535,0.218-1.526,0.651-2.973l0.489-1.662
		c-1.574,2.719-3.087,4.647-4.538,5.783c-0.842,0.653-1.738,0.981-2.688,0.981c-1.247,0-2.147-0.517-2.705-1.547
		c-0.556-1.03-0.835-2.196-0.835-3.494c0-1.93,0.583-4.139,1.751-6.634c1.167-2.494,2.699-4.498,4.598-6.015
		c1.561-1.258,3.024-1.885,4.395-1.885c0.761,0,1.37,0.219,1.833,0.667c0.46,0.443,0.8,1.254,1.017,2.429l0.732-2.521
		L368.832,40.598z M362.321,44.496c0-1.109-0.17-1.907-0.508-2.403c-0.246-0.337-0.579-0.508-0.998-0.508
		c-0.42,0-0.854,0.202-1.302,0.614c-0.909,0.846-1.889,2.564-2.941,5.155c-1.05,2.592-1.576,4.827-1.576,6.712
		c0,0.724,0.118,1.25,0.354,1.57c0.239,0.32,0.5,0.482,0.785,0.482c0.609,0,1.228-0.355,1.851-1.065
		c0.896-1.013,1.703-2.249,2.422-3.714C361.684,48.77,362.321,46.491,362.321,44.496z"/>
	<path fill="#4A291A" d="M382.278,43.286l-2.38,9.47c-1.112,4.468-2.196,7.708-3.256,9.715c-1.059,2.013-2.295,3.499-3.713,4.459
		c-1.418,0.965-3.043,1.447-4.873,1.447c-1.153,0-2.001-0.224-2.543-0.667c-0.544-0.442-0.815-0.969-0.815-1.569
		c0-0.561,0.226-1.043,0.673-1.455c0.447-0.408,1.037-0.614,1.769-0.614c0.611,0,1.079,0.158,1.405,0.474
		c0.325,0.312,0.489,0.711,0.489,1.188c0,0.438-0.104,0.763-0.307,0.973c-0.204,0.211-0.306,0.352-0.306,0.422l0.102,0.144
		c0.083,0.066,0.178,0.102,0.285,0.102c0.407,0,0.754-0.132,1.039-0.391c0.719-0.64,1.254-1.42,1.606-2.337
		c0.245-0.626,0.713-2.288,1.405-4.98l4.149-16.379h-2.828l0.671-2.398c1.018,0.013,1.758-0.118,2.219-0.39
		c0.46-0.276,0.949-0.89,1.465-1.846c1.492-2.775,3.066-4.766,4.721-5.967c1.655-1.201,3.499-1.802,5.535-1.802
		c1.303,0,2.247,0.25,2.836,0.758c0.593,0.504,0.886,1.162,0.886,1.968c0,0.71-0.196,1.271-0.589,1.688s-0.882,0.627-1.465,0.627
		c-0.543,0-0.99-0.171-1.344-0.513c-0.353-0.342-0.527-0.75-0.527-1.232c0-0.337,0.111-0.702,0.335-1.083
		c0.224-0.386,0.335-0.645,0.335-0.78c0-0.149-0.05-0.271-0.153-0.368c-0.101-0.097-0.232-0.145-0.396-0.145
		c-0.801,0-1.62,0.5-2.462,1.495c-1.384,1.6-2.494,4.13-3.336,7.589h2.95l-0.713,2.398H382.278z"/>
	<path fill="#4A291A" d="M406.878,40.598l-3.948,13.635l-0.407,1.657c-0.04,0.206-0.06,0.355-0.06,0.451
		c0,0.167,0.057,0.308,0.173,0.43c0.114,0.123,0.232,0.189,0.355,0.189c0.285,0,0.678-0.22,1.18-0.658
		c0.203-0.18,0.692-0.807,1.466-1.885l0.713,0.368c-0.965,1.775-1.992,3.073-3.085,3.884c-1.091,0.812-2.269,1.219-3.528,1.219
		c-0.774,0-1.363-0.201-1.771-0.604c-0.405-0.403-0.609-0.912-0.609-1.525c0-0.535,0.217-1.526,0.651-2.973l0.488-1.662
		c-1.573,2.719-3.087,4.647-4.537,5.783c-0.842,0.653-1.738,0.981-2.688,0.981c-1.247,0-2.148-0.517-2.705-1.547
		s-0.835-2.196-0.835-3.494c0-1.93,0.583-4.139,1.752-6.634c1.165-2.494,2.697-4.498,4.596-6.015
		c1.561-1.258,3.025-1.885,4.396-1.885c0.761,0,1.37,0.219,1.832,0.667c0.46,0.443,0.801,1.254,1.018,2.429l0.732-2.521
		L406.878,40.598z M400.367,44.496c0-1.109-0.171-1.907-0.508-2.403c-0.246-0.337-0.579-0.508-0.998-0.508
		c-0.421,0-0.854,0.202-1.302,0.614c-0.91,0.846-1.89,2.564-2.941,5.155c-1.051,2.592-1.576,4.827-1.576,6.712
		c0,0.724,0.117,1.25,0.354,1.57c0.239,0.32,0.5,0.482,0.785,0.482c0.609,0,1.227-0.355,1.85-1.065
		c0.897-1.013,1.704-2.249,2.423-3.714C399.729,48.77,400.367,46.491,400.367,44.496z"/>
	<path fill="#4A291A" d="M429.38,40.598l-3.948,13.635l-0.408,1.657c-0.039,0.206-0.059,0.355-0.059,0.451
		c0,0.167,0.057,0.308,0.173,0.43c0.114,0.123,0.232,0.189,0.355,0.189c0.284,0,0.677-0.22,1.179-0.658
		c0.204-0.18,0.693-0.807,1.467-1.885l0.712,0.368c-0.964,1.775-1.992,3.073-3.084,3.884c-1.091,0.812-2.269,1.219-3.529,1.219
		c-0.773,0-1.363-0.201-1.771-0.604c-0.405-0.403-0.609-0.912-0.609-1.525c0-0.535,0.217-1.526,0.65-2.973l0.489-1.662
		c-1.574,2.719-3.087,4.647-4.538,5.783c-0.842,0.653-1.737,0.981-2.687,0.981c-1.248,0-2.149-0.517-2.706-1.547
		s-0.834-2.196-0.834-3.494c0-1.93,0.583-4.139,1.751-6.634c1.166-2.494,2.698-4.498,4.597-6.015
		c1.561-1.258,3.024-1.885,4.395-1.885c0.762,0,1.37,0.219,1.833,0.667c0.461,0.443,0.8,1.254,1.018,2.429l0.731-2.521
		L429.38,40.598z M422.869,44.496c0-1.109-0.171-1.907-0.509-2.403c-0.245-0.337-0.579-0.508-0.997-0.508
		c-0.422,0-0.855,0.202-1.302,0.614c-0.91,0.846-1.891,2.564-2.942,5.155c-1.05,2.592-1.576,4.827-1.576,6.712
		c0,0.724,0.119,1.25,0.355,1.57c0.239,0.32,0.5,0.482,0.784,0.482c0.609,0,1.228-0.355,1.851-1.065
		c0.896-1.013,1.703-2.249,2.422-3.714C422.231,48.77,422.869,46.491,422.869,44.496z"/>
	<path fill="#4A291A" d="M456.399,44.308h10.092l2.238-7.769c0.298-1.066,0.447-1.876,0.447-2.438c0-0.548-0.183-0.964-0.548-1.25
		c-0.369-0.289-1.25-0.482-2.646-0.574l0.224-0.758h13.714l-0.224,0.758c-1.344,0-2.361,0.285-3.052,0.859
		c-0.692,0.574-1.282,1.71-1.771,3.402l-5.128,17.794c-0.34,1.162-0.509,1.995-0.509,2.499c0,0.509,0.185,0.891,0.551,1.148
		c0.474,0.355,1.335,0.549,2.582,0.575l-0.202,0.758h-13.45l0.305-0.758c1.302,0,2.263-0.255,2.88-0.768s1.185-1.666,1.699-3.455
		l2.381-8.281H455.93l-2.358,8.281c-0.34,1.136-0.509,1.973-0.509,2.521c0,0.491,0.206,0.895,0.62,1.201
		c0.412,0.307,1.23,0.474,2.451,0.5l-0.204,0.758h-13.266l0.223-0.758c1.305,0,2.256-0.255,2.861-0.768
		c0.602-0.513,1.161-1.666,1.677-3.455l5.129-17.794c0.298-1.026,0.447-1.829,0.447-2.42c0-0.557-0.18-0.982-0.539-1.267
		c-0.359-0.289-1.219-0.482-2.573-0.574l0.224-0.758h13.489l-0.305,0.758c-1.249,0-2.191,0.268-2.83,0.807
		c-0.638,0.543-1.221,1.692-1.749,3.455L456.399,44.308z"/>
	<path fill="#4A291A" d="M498.048,40.598l-3.947,13.635l-0.408,1.657c-0.04,0.206-0.06,0.355-0.06,0.451
		c0,0.167,0.058,0.308,0.174,0.43c0.113,0.123,0.232,0.189,0.354,0.189c0.285,0,0.678-0.22,1.18-0.658
		c0.204-0.18,0.692-0.807,1.467-1.885l0.713,0.368c-0.965,1.775-1.993,3.073-3.085,3.884c-1.092,0.812-2.269,1.219-3.529,1.219
		c-0.773,0-1.363-0.201-1.771-0.604c-0.405-0.403-0.609-0.912-0.609-1.525c0-0.535,0.218-1.526,0.651-2.973l0.489-1.662
		c-1.574,2.719-3.087,4.647-4.538,5.783c-0.842,0.653-1.738,0.981-2.688,0.981c-1.247,0-2.148-0.517-2.705-1.547
		s-0.835-2.196-0.835-3.494c0-1.93,0.583-4.139,1.751-6.634c1.167-2.494,2.699-4.498,4.597-6.015
		c1.562-1.258,3.025-1.885,4.396-1.885c0.761,0,1.37,0.219,1.833,0.667c0.46,0.443,0.8,1.254,1.017,2.429l0.732-2.521
		L498.048,40.598z M491.537,44.496c0-1.109-0.17-1.907-0.508-2.403c-0.246-0.337-0.579-0.508-0.998-0.508
		c-0.42,0-0.854,0.202-1.302,0.614c-0.909,0.846-1.89,2.564-2.942,5.155c-1.049,2.592-1.576,4.827-1.576,6.712
		c0,0.724,0.119,1.25,0.355,1.57c0.239,0.32,0.5,0.482,0.785,0.482c0.609,0,1.228-0.355,1.851-1.065
		c0.896-1.013,1.702-2.249,2.422-3.714C490.899,48.77,491.537,46.491,491.537,44.496z"/>
	<path fill="#4A291A" d="M511.679,40.313l-4.334,16.133c-0.896,3.293-1.9,5.897-3.012,7.809c-0.773,1.342-1.809,2.363-3.104,3.064
		c-1.293,0.706-2.626,1.057-3.998,1.057c-1.138,0-1.984-0.224-2.532-0.676c-0.55-0.451-0.824-0.964-0.824-1.538
		c0-0.575,0.229-1.083,0.682-1.526c0.454-0.447,1.035-0.666,1.738-0.666c0.544,0,0.972,0.145,1.282,0.438
		c0.314,0.294,0.47,0.648,0.47,1.057c0,0.395-0.185,0.794-0.55,1.188c-0.149,0.166-0.224,0.289-0.224,0.368
		c0,0.097,0.044,0.184,0.131,0.258c0.091,0.075,0.222,0.114,0.397,0.114c0.598,0,1.113-0.342,1.547-1.025
		c0.299-0.452,0.827-2.148,1.587-5.086l4.15-15.783c0.298-1.135,0.449-1.846,0.449-2.135c0-0.271-0.151-0.535-0.449-0.789
		c-0.299-0.25-0.69-0.377-1.18-0.377c-0.149,0-0.326,0.004-0.528,0.018l0.224-0.776l6.856-1.126H511.679z M509.969,30.883
		c0.842,0,1.555,0.294,2.138,0.89c0.582,0.596,0.874,1.315,0.874,2.161c0,0.837-0.296,1.547-0.886,2.144
		c-0.589,0.596-1.3,0.89-2.126,0.89c-0.842,0-1.557-0.294-2.146-0.89c-0.59-0.597-0.886-1.307-0.886-2.144
		c0-0.846,0.296-1.565,0.886-2.161S509.127,30.883,509.969,30.883z"/>
	<path fill="#4A291A" d="M524.923,40.313l-4.334,16.133c-0.896,3.293-1.9,5.897-3.012,7.809c-0.774,1.342-1.809,2.363-3.104,3.064
		c-1.293,0.706-2.625,1.057-3.998,1.057c-1.138,0-1.983-0.224-2.531-0.676c-0.551-0.451-0.824-0.964-0.824-1.538
		c0-0.575,0.228-1.083,0.682-1.526c0.454-0.447,1.034-0.666,1.738-0.666c0.543,0,0.971,0.145,1.282,0.438
		c0.313,0.294,0.469,0.648,0.469,1.057c0,0.395-0.184,0.794-0.55,1.188c-0.149,0.166-0.224,0.289-0.224,0.368
		c0,0.097,0.044,0.184,0.132,0.258c0.089,0.075,0.221,0.114,0.396,0.114c0.599,0,1.113-0.342,1.548-1.025
		c0.298-0.452,0.826-2.148,1.587-5.086l4.149-15.783c0.298-1.135,0.449-1.846,0.449-2.135c0-0.271-0.151-0.535-0.449-0.789
		c-0.298-0.25-0.69-0.377-1.18-0.377c-0.148,0-0.326,0.004-0.528,0.018l0.225-0.776l6.855-1.126H524.923z M523.213,30.883
		c0.842,0,1.554,0.294,2.137,0.89c0.584,0.596,0.875,1.315,0.875,2.161c0,0.837-0.296,1.547-0.885,2.144
		c-0.591,0.596-1.301,0.89-2.127,0.89c-0.842,0-1.557-0.294-2.146-0.89c-0.59-0.597-0.886-1.307-0.886-2.144
		c0-0.846,0.296-1.565,0.886-2.161C521.656,31.177,522.371,30.883,523.213,30.883z"/>
	<path fill="#4A291A" d="M571.208,40.598l-3.948,13.635l-0.407,1.657c-0.039,0.206-0.059,0.355-0.059,0.451
		c0,0.167,0.057,0.308,0.173,0.43c0.113,0.123,0.232,0.189,0.354,0.189c0.285,0,0.678-0.22,1.18-0.658
		c0.204-0.18,0.693-0.807,1.466-1.885l0.713,0.368c-0.964,1.775-1.992,3.073-3.084,3.884c-1.092,0.812-2.27,1.219-3.529,1.219
		c-0.773,0-1.363-0.201-1.771-0.604c-0.406-0.403-0.61-0.912-0.61-1.525c0-0.535,0.218-1.526,0.651-2.973l0.489-1.662
		c-1.574,2.719-3.087,4.647-4.538,5.783c-0.842,0.653-1.738,0.981-2.687,0.981c-1.248,0-2.149-0.517-2.706-1.547
		s-0.835-2.196-0.835-3.494c0-1.93,0.583-4.139,1.752-6.634c1.166-2.494,2.698-4.498,4.596-6.015
		c1.562-1.258,3.025-1.885,4.396-1.885c0.761,0,1.37,0.219,1.833,0.667c0.46,0.443,0.8,1.254,1.018,2.429l0.731-2.521
		L571.208,40.598z M564.697,44.496c0-1.109-0.17-1.907-0.508-2.403c-0.246-0.337-0.579-0.508-0.998-0.508
		c-0.421,0-0.854,0.202-1.302,0.614c-0.91,0.846-1.89,2.564-2.941,5.155c-1.051,2.592-1.576,4.827-1.576,6.712
		c0,0.724,0.118,1.25,0.354,1.57c0.24,0.32,0.5,0.482,0.785,0.482c0.609,0,1.228-0.355,1.851-1.065
		c0.896-1.013,1.703-2.249,2.422-3.714C564.061,48.77,564.697,46.491,564.697,44.496z"/>
	<path fill="#4A291A" d="M584.878,40.313l-2.522,8.794c1.696-2.569,2.963-4.327,3.805-5.27c1.234-1.368,2.299-2.297,3.193-2.789
		c0.896-0.491,1.739-0.736,2.523-0.736c0.706,0,1.311,0.263,1.813,0.789c0.499,0.526,0.752,1.21,0.752,2.061
		c0,0.763-0.163,1.692-0.489,2.789l-2.604,8.751c-0.217,0.767-0.324,1.267-0.324,1.494c0,0.141,0.051,0.264,0.151,0.373
		c0.103,0.109,0.208,0.162,0.315,0.162c0.137,0,0.278-0.053,0.428-0.162c0.476-0.398,0.956-0.955,1.444-1.684
		c0.123-0.188,0.318-0.478,0.59-0.859l0.774,0.47c-1.995,3.376-4.091,5.063-6.287,5.063c-0.842,0-1.5-0.22-1.976-0.653
		c-0.474-0.438-0.71-0.986-0.71-1.64c0-0.574,0.162-1.43,0.486-2.564l2.546-8.751c0.175-0.575,0.263-1,0.263-1.271
		c0-0.154-0.062-0.285-0.183-0.403c-0.123-0.114-0.266-0.171-0.427-0.171c-0.516,0-1.141,0.355-1.872,1.065
		c-1.873,1.802-3.683,4.489-5.435,8.053l-1.668,6.09h-5.188l3.805-13.161c0.367-1.297,0.551-2.218,0.551-2.766
		c0-0.232-0.055-0.425-0.164-0.583c-0.107-0.158-0.283-0.281-0.529-0.368c-0.242-0.092-0.705-0.136-1.383-0.136l0.224-0.78
		l6.857-1.206H584.878z"/>
	<path fill="#4A291A" d="M621.318,30.883l-6.61,22.938c-0.422,1.434-0.632,2.302-0.632,2.604c0,0.149,0.053,0.28,0.162,0.39
		c0.109,0.11,0.224,0.163,0.347,0.163c0.23,0,0.495-0.114,0.794-0.347c0.501-0.386,1.111-1.109,1.83-2.175l0.732,0.391
		c-1.912,3.362-4.014,5.041-6.307,5.041c-0.813,0-1.443-0.215-1.884-0.644c-0.44-0.43-0.659-0.982-0.659-1.653
		c0-0.64,0.175-1.557,0.528-2.744l0.608-2.092c-1.693,3.021-3.167,5.029-4.414,6.028c-0.949,0.736-1.872,1.104-2.767,1.104
		c-1.017,0-1.876-0.416-2.573-1.249c-0.699-0.833-1.048-2.052-1.048-3.647c0-2.039,0.447-4.047,1.342-6.028
		c0.896-1.981,1.929-3.634,3.104-4.963c1.173-1.324,2.291-2.271,3.356-2.836c1.065-0.57,2.113-0.851,3.143-0.851
		c0.531,0,1.002,0.11,1.416,0.324c0.413,0.22,0.885,0.631,1.415,1.232l1.506-5.104c0.366-1.258,0.548-2.161,0.548-2.709
		c0-0.324-0.123-0.604-0.366-0.837c-0.243-0.232-0.569-0.351-0.976-0.351c-0.19,0-0.428,0.022-0.712,0.062l0.201-0.798l6.694-1.25
		H621.318z M612.366,43.878c0-0.833-0.162-1.442-0.489-1.824c-0.323-0.382-0.705-0.575-1.14-0.575c-0.434,0-0.9,0.228-1.402,0.675
		c-0.963,0.877-1.971,2.635-3.021,5.283c-1.053,2.644-1.578,4.866-1.578,6.672c0,0.654,0.115,1.141,0.346,1.456
		c0.23,0.312,0.489,0.469,0.773,0.469c0.475,0,0.95-0.219,1.426-0.657c1.15-1.035,2.288-2.823,3.406-5.357
		C611.808,47.482,612.366,45.438,612.366,43.878z"/>
	<path fill="#4A291A" d="M657.536,31.519h9.339l-0.183,0.758c-1.072,0.079-1.9,0.342-2.483,0.776
		c-0.937,0.697-1.633,1.846-2.096,3.446l-3.661,12.749c-1.14,3.976-2.687,6.756-4.641,8.334c-1.953,1.578-4.435,2.367-7.446,2.367
		c-1.71,0-3.216-0.245-4.518-0.736c-1.303-0.491-2.258-1.048-2.869-1.661c-0.609-0.614-1.079-1.377-1.403-2.284
		c-0.327-0.912-0.488-1.671-0.488-2.289c0-0.969,0.271-2.402,0.813-4.305L641.4,36.5c0.312-1.092,0.47-1.907,0.47-2.442
		c0-0.517-0.195-0.92-0.581-1.206c-0.387-0.289-1.285-0.482-2.696-0.574l0.224-0.758h13.755l-0.243,0.758
		c-1.331,0-2.344,0.285-3.043,0.859s-1.284,1.697-1.761,3.363l-3.52,12.175c-0.583,2.038-0.875,3.669-0.875,4.901
		c0,1.122,0.447,2.1,1.344,2.933c0.895,0.833,2.142,1.25,3.744,1.25c1.464,0,2.709-0.272,3.733-0.812
		c1.023-0.539,1.874-1.293,2.554-2.267c0.894-1.298,1.694-3.156,2.4-5.572l3.601-12.608c0.205-0.724,0.306-1.324,0.306-1.807
		c0-0.846-0.298-1.495-0.895-1.946c-0.421-0.315-1.289-0.469-2.604-0.469L657.536,31.519z"/>
	<path fill="#4A291A" d="M676.009,40.313l-2.606,8.812c1.752-2.705,3.025-4.529,3.825-5.471c1.182-1.381,2.154-2.284,2.92-2.705
		c0.767-0.425,1.536-0.636,2.311-0.636c0.881,0,1.519,0.263,1.914,0.798c0.392,0.535,0.589,1.123,0.589,1.762
		c0,0.671-0.184,1.653-0.55,2.951l-0.916,3.301c1.765-2.731,3.031-4.551,3.805-5.454c1.194-1.39,2.231-2.336,3.113-2.827
		c0.611-0.355,1.263-0.531,1.953-0.531c0.719,0,1.319,0.241,1.802,0.728c0.482,0.482,0.721,1.114,0.721,1.894
		c0,0.877-0.201,2.008-0.609,3.402l-2.258,7.646c-0.34,1.136-0.508,1.868-0.508,2.197c0,0.109,0.043,0.21,0.131,0.307
		c0.088,0.096,0.187,0.145,0.296,0.145c0.149,0,0.276-0.049,0.386-0.145c0.488-0.395,1.004-0.978,1.546-1.74
		c0.122-0.167,0.307-0.421,0.55-0.764l0.693,0.452c-0.937,1.762-1.965,3.056-3.085,3.875c-1.118,0.82-2.152,1.232-3.102,1.232
		c-0.828,0-1.492-0.229-1.995-0.688c-0.502-0.456-0.752-0.995-0.752-1.609c0-0.587,0.169-1.478,0.509-2.665l2.3-7.997
		c0.311-1.104,0.467-1.793,0.467-2.069c0-0.096-0.048-0.188-0.143-0.276c-0.094-0.088-0.19-0.131-0.284-0.131
		c-0.176,0-0.354,0.039-0.528,0.123c-0.259,0.136-0.656,0.491-1.19,1.065c-0.538,0.575-1.308,1.6-2.311,3.086
		c-1.004,1.481-1.699,2.639-2.085,3.472c-0.388,0.833-0.77,1.916-1.151,3.24l-1.24,4.222h-5.147l3.807-13.385
		c0.201-0.723,0.304-1.223,0.304-1.499c0-0.092-0.044-0.184-0.134-0.263c-0.088-0.083-0.18-0.123-0.273-0.123
		c-0.502,0-1.295,0.662-2.381,1.986c-1.655,2.052-3.161,4.52-4.519,7.4l-1.646,5.883h-5.188l3.825-13.179
		c0.379-1.302,0.57-2.222,0.57-2.771c0-0.215-0.056-0.403-0.165-0.561c-0.107-0.158-0.285-0.281-0.528-0.368
		c-0.243-0.092-0.713-0.136-1.403-0.136l0.202-0.78l6.94-1.206H676.009z"/>
	<path fill="#4A291A" d="M708.888,40.313l-3.073,11.521c2.523-5.62,4.423-9.075,5.697-10.377c0.747-0.763,1.534-1.144,2.36-1.144
		c0.569,0,1.03,0.206,1.384,0.623c0.353,0.417,0.53,1.008,0.53,1.776c0,1.324-0.32,2.437-0.958,3.34
		c-0.405,0.574-0.861,0.859-1.363,0.859c-0.542,0-0.949-0.25-1.221-0.759c-0.271-0.504-0.461-0.802-0.568-0.89
		c-0.109-0.088-0.226-0.136-0.346-0.136c-0.137,0-0.279,0.044-0.428,0.127c-0.298,0.162-0.688,0.562-1.171,1.197
		c-0.481,0.635-1.073,1.696-1.78,3.187c-0.705,1.491-1.256,2.754-1.648,3.784c-0.395,1.03-0.942,2.994-1.648,5.892h-4.923
		l3.356-13.59c0.245-1.013,0.368-1.679,0.368-2.008c0-0.368-0.066-0.657-0.195-0.864c-0.13-0.201-0.306-0.355-0.528-0.447
		c-0.224-0.097-0.688-0.145-1.395-0.145l0.185-0.597l6.144-1.35H708.888z"/>
	<path fill="#4A291A" d="M736.865,40.598l-3.948,13.635l-0.407,1.657c-0.04,0.206-0.06,0.355-0.06,0.451
		c0,0.167,0.058,0.308,0.173,0.43c0.114,0.123,0.232,0.189,0.355,0.189c0.285,0,0.678-0.22,1.179-0.658
		c0.204-0.18,0.693-0.807,1.468-1.885l0.711,0.368c-0.964,1.775-1.992,3.073-3.084,3.884c-1.091,0.812-2.269,1.219-3.529,1.219
		c-0.773,0-1.363-0.201-1.771-0.604c-0.405-0.403-0.609-0.912-0.609-1.525c0-0.535,0.217-1.526,0.65-2.973l0.489-1.662
		c-1.574,2.719-3.086,4.647-4.537,5.783c-0.842,0.653-1.738,0.981-2.688,0.981c-1.248,0-2.148-0.517-2.705-1.547
		c-0.558-1.03-0.836-2.196-0.836-3.494c0-1.93,0.584-4.139,1.752-6.634c1.166-2.494,2.698-4.498,4.597-6.015
		c1.562-1.258,3.024-1.885,4.396-1.885c0.761,0,1.37,0.219,1.832,0.667c0.461,0.443,0.8,1.254,1.018,2.429l0.731-2.521
		L736.865,40.598z M730.354,44.496c0-1.109-0.171-1.907-0.509-2.403c-0.245-0.337-0.578-0.508-0.997-0.508
		c-0.421,0-0.855,0.202-1.302,0.614c-0.91,0.846-1.891,2.564-2.942,5.155c-1.05,2.592-1.576,4.827-1.576,6.712
		c0,0.724,0.118,1.25,0.355,1.57c0.239,0.32,0.499,0.482,0.784,0.482c0.609,0,1.229-0.355,1.851-1.065
		c0.896-1.013,1.703-2.249,2.423-3.714C729.717,48.77,730.354,46.491,730.354,44.496z"/>
	<path fill="#4A291A" d="M758.165,31.519h22.199l-2.098,7.479h-0.732c0.028-0.395,0.042-0.746,0.042-1.044
		c0-1.42-0.414-2.525-1.241-3.31c-0.829-0.79-2.225-1.236-4.193-1.346l-6.145,20.934c-0.339,1.162-0.508,2.021-0.508,2.582
		c0,0.518,0.21,0.935,0.631,1.241s1.275,0.474,2.563,0.5l-0.182,0.758h-13.694l0.243-0.758c1.399,0,2.416-0.264,3.054-0.789
		c0.639-0.526,1.222-1.706,1.75-3.534l6.144-20.934c-2.115,0.07-3.886,0.535-5.309,1.394c-1.425,0.864-2.728,2.297-3.908,4.306
		h-0.794L758.165,31.519z"/>
	<path fill="#4A291A" d="M786.934,40.313l-3.073,11.521c2.522-5.62,4.424-9.075,5.697-10.377c0.747-0.763,1.534-1.144,2.36-1.144
		c0.57,0,1.031,0.206,1.384,0.623s0.53,1.008,0.53,1.776c0,1.324-0.32,2.437-0.958,3.34c-0.405,0.574-0.861,0.859-1.363,0.859
		c-0.541,0-0.948-0.25-1.221-0.759c-0.27-0.504-0.461-0.802-0.567-0.89c-0.11-0.088-0.226-0.136-0.347-0.136
		c-0.136,0-0.278,0.044-0.428,0.127c-0.298,0.162-0.688,0.562-1.17,1.197c-0.483,0.635-1.075,1.696-1.78,3.187
		c-0.706,1.491-1.256,2.754-1.648,3.784c-0.395,1.03-0.943,2.994-1.648,5.892h-4.924l3.356-13.59
		c0.245-1.013,0.368-1.679,0.368-2.008c0-0.368-0.065-0.657-0.195-0.864c-0.129-0.201-0.305-0.355-0.528-0.447
		c-0.224-0.097-0.688-0.145-1.394-0.145l0.184-0.597l6.145-1.35H786.934z"/>
	<path fill="#4A291A" d="M806.018,40.313L802.07,54.25c-0.191,0.645-0.285,1.088-0.285,1.333c0,0.123,0.046,0.219,0.143,0.289
		c0.107,0.109,0.236,0.162,0.386,0.162c0.625,0,1.458-0.561,2.503-1.679c1.493-1.627,3.059-3.963,4.7-7.015l1.852-6.27l5.147-0.184
		l-3.906,13.53c-0.326,1.148-0.489,1.802-0.489,1.968c0,0.11,0.052,0.22,0.154,0.338c0.101,0.114,0.206,0.171,0.315,0.171
		c0.188,0,0.372-0.079,0.548-0.245c0.489-0.395,1.134-1.192,1.934-2.398l0.692,0.496c-1.885,3.428-3.961,5.142-6.228,5.142
		c-0.839,0-1.501-0.215-1.983-0.644c-0.48-0.43-0.721-0.995-0.721-1.692c0-0.737,0.168-1.675,0.508-2.806l0.998-3.469
		c-1.766,2.583-3.048,4.327-3.848,5.23c-1.221,1.351-2.247,2.254-3.082,2.705c-0.833,0.451-1.631,0.675-2.392,0.675
		c-0.719,0-1.34-0.267-1.861-0.797c-0.521-0.535-0.782-1.211-0.782-2.03c0-0.697,0.168-1.636,0.509-2.811l2.299-8.198
		c0.38-1.342,0.57-2.24,0.57-2.705c0-0.206-0.055-0.386-0.165-0.543c-0.106-0.158-0.287-0.281-0.539-0.368
		c-0.25-0.092-0.715-0.136-1.392-0.136l0.202-0.78l6.939-1.206H806.018z"/>
	<path fill="#4A291A" d="M835.295,40.313l-0.895,6.331h-0.754c-0.107-1.64-0.607-2.929-1.494-3.871
		c-0.888-0.942-1.842-1.416-2.859-1.416c-0.624,0-1.14,0.184-1.547,0.552c-0.405,0.373-0.609,0.815-0.609,1.333
		c0,0.438,0.088,0.851,0.265,1.232c0.176,0.381,0.568,0.903,1.18,1.557c2.144,2.323,3.446,3.924,3.906,4.796
		c0.46,0.877,0.692,1.811,0.692,2.811c0,1.078-0.271,2.1-0.815,3.064c-0.541,0.964-1.353,1.735-2.431,2.314
		c-1.078,0.583-2.201,0.872-3.367,0.872c-0.787,0-1.756-0.157-2.908-0.469c-0.762-0.219-1.331-0.328-1.71-0.328
		c-0.341,0-0.605,0.052-0.794,0.153c-0.19,0.101-0.4,0.315-0.631,0.644h-0.752l0.997-6.825h0.65
		c0.474,1.652,0.919,2.832,1.334,3.537c0.411,0.702,0.964,1.264,1.657,1.68c0.691,0.417,1.355,0.627,1.994,0.627
		c0.745,0,1.363-0.237,1.85-0.71c0.489-0.47,0.734-1.035,0.734-1.688c0-0.645-0.159-1.267-0.479-1.867
		c-0.317-0.601-1.055-1.539-2.208-2.807c-1.587-1.735-2.63-3.077-3.132-4.02c-0.353-0.685-0.528-1.464-0.528-2.337
		c0-1.478,0.53-2.705,1.596-3.691c1.065-0.982,2.56-1.473,4.487-1.473c0.842,0,1.872,0.149,3.093,0.447
		c0.609,0.153,1.098,0.228,1.464,0.228c0.528,0,0.956-0.228,1.282-0.675H835.295z"/>
	<path fill="#4A291A" d="M849.62,35.311l-1.629,5.577h2.666l-0.712,2.354h-2.624l-3.398,11.89c-0.217,0.74-0.326,1.302-0.326,1.683
		c0,0.176,0.062,0.329,0.185,0.461c0.12,0.132,0.256,0.192,0.405,0.192c0.229,0,0.469-0.092,0.712-0.285
		c0.625-0.478,1.351-1.311,2.177-2.503l0.713,0.452c-0.937,1.639-1.967,2.845-3.094,3.607c-1.124,0.768-2.231,1.148-3.315,1.148
		c-0.924,0-1.639-0.236-2.146-0.705c-0.509-0.474-0.764-1.07-0.764-1.793c0-0.794,0.176-1.811,0.529-3.057l3.215-11.091h-2.766
		l0.405-1.517c1.736-0.64,3.202-1.394,4.396-2.253c1.194-0.859,2.633-2.249,4.313-4.161H849.62z"/>
</g>
<g>
	<path fill="#4A291A" d="M742.022,76.018c1.294-0.553,2.296-1.499,3.229-2.521c0.243-0.271,0.296-0.271,0.53,0.022
		c0.19,0.245,0.353,0.236,0.524-0.005c0.256-0.39,0.175-1.048-0.141-1.39c-0.09-0.092-0.171-0.219-0.178-0.338
		c-0.016-0.192,0.044-0.395,0.06-0.592c0.053-0.666,0.081-1.323-0.141-1.955c-0.265-0.775-0.838-0.986-1.561-0.618
		c-0.896,0.47-1.331,1.294-1.678,2.175c-0.302,0.715,0.029,1.223,0.522,1.557c0.361,0.236,0.752,0.447,1.164,0.696
		c-0.104,0.128-0.199,0.264-0.318,0.382c-0.94,0.947-2.029,1.692-3.193,2.35c-0.315,0.176-0.706,0.299-0.859,0.75
		c0.138,0,0.234,0.026,0.328,0C740.887,76.369,741.478,76.246,742.022,76.018z M743.625,70.7c-0.044-0.062,0-0.294,0.068-0.32
		c0.307-0.148,0.64-0.302,0.971-0.363c0.257-0.044,0.493,0.298,0.537,0.666c0,0.093,0,0.185,0,0.268c0,0.228,0,0.447,0,0.724
		C744.53,71.515,744.016,71.186,743.625,70.7z"/>
	<path fill="#4A291A" d="M566,89.438c0.081-0.873,0.127-1.763,0.309-2.622c0.17-0.851-0.19-1.152-0.927-1.425
		c-1.421-0.513-2.981-0.93-3.459-2.867c-0.553,1.85-0.868,3.644-1.118,5.437c-0.037,0.219,0.199,0.631,0.391,0.697
		c0.905,0.315,0.955,1.047,1.066,1.801c0.582,4.236,1.178,8.462,1.774,12.701c0.315,2.293,0.618,4.582,0.927,6.932
		c-2.76,0-5.351,0-7.948,0c-1.008-6.634-1.986-13.196-2.987-19.843c0.464,0.079,0.809,0.136,1.311,0.216
		c0.206-1.575,0.381-3.092,0.574-4.561c-1.701-0.96-3.894-0.978-4.454-3.362c-0.441,1.078-0.831,2.064-0.942,3.096
		c-0.139,1.227-0.947,2.7,0.876,3.524c0.206,0.101,0.222,0.724,0.272,1.101c0.611,4.147,1.201,8.29,1.775,12.438
		c0.338,2.438,0.646,4.871,1.009,7.479c-2.703,0-5.264-0.088-7.802,0.026c-1.567,0.07-2.826-0.386-3.975-1.395
		c-2.104-1.828-4.202-3.644-6.344-5.41c-1.782-1.477-3.696-2.731-6.006-3.204c-3.091-0.627-6.167,1.293-6.919,4.423
		c5.757-0.898,10.01,2.017,14.441,5.468c-0.539,0.048-0.752,0.083-0.957,0.083c-7.065,0-14.124,0.021-21.181-0.014
		c-2.987-0.021-4.033-1.508-3.306-4.581c1.083-0.176,2.217-0.333,3.344-0.574c0.419-0.097,1.03-0.338,1.124-0.645
		c0.391-1.145,0.59-2.342,0.898-3.709c-3.989,0.697-7.735,0.236-11.511-0.272c-1.802-0.245-3.693-0.205-5.525-0.044
		c-3.237,0.294-5.308,2.193-5.771,4.994c1.737-0.206,3.48-0.5,5.219-0.601c1.796-0.105,3.597-0.021,5.395-0.021
		c0.035,0.153,0.066,0.312,0.104,0.464c-1.333,0.754-2.664,1.478-3.975,2.249c-5.195,3.064-7.927,7.44-7.558,13.64
		c0.287,4.695,2.825,8.54,7.389,9.93c2.751,0.838,5.711,0.952,8.536,1.539c3.915,0.82,5.947-2.214,8.639-4.1
		c-3.075-0.285-6.115-0.135-9.116-0.32c-3.644-0.228-7.168-1.078-10.222-3.213c-4.218-2.959-4.933-8.391-1.555-12.24
		c3.452-3.95,8.302-5.239,13.189-6.805c-0.111,0.759-0.171,1.364-0.273,1.96c-0.824,4.727,0.752,6.638,5.579,6.638
		c16.543,0.004,33.102,0,49.661,0c0.456,0,0.934-0.049,1.567-0.075c0.065-8.215-2.143-16.05-2.885-24.178
		C565.646,90.718,565.935,90.266,566,89.438z"/>
	<path fill="#4A291A" d="M665.704,91.314c-0.206-2.223-0.565-4.437-0.838-6.655c-0.096,0.014-0.215,0.018-0.315,0.026
		c-0.627,1.259-1.236,2.512-1.841,3.788c-0.119,0.255-0.154,0.592-0.125,0.881c0.146,1.398,0.339,2.793,0.472,4.195
		c0.714,6.831,1.779,13.631,1.494,20.531c-0.016,0.303,0.051,0.614,0.123,1.219c1.701-2.477,2.672-4.875,2.481-7.545
		C666.758,102.261,666.221,96.79,665.704,91.314z"/>
	<path fill="#4A291A" d="M769.937,107.596c-0.287-4.572-0.708-9.136-1.171-13.695c-0.302-3.096-0.765-6.173-1.154-9.272
		c-0.825,1.117-1.458,2.267-1.951,3.463c-0.229,0.531-0.301,1.18-0.25,1.75c0.633,7.198,1.317,14.388,1.949,21.583
		c0.105,1.157,0.023,2.336,0.023,3.507C769.191,112.774,770.112,110.311,769.937,107.596z"/>
	<path fill="#4A291A" d="M454.345,90.854c-0.206-2.064-0.544-4.126-0.824-6.182c-0.162-0.031-0.324-0.066-0.486-0.102
		c-0.588,1.75-1.59,3.473-1.662,5.248c-0.097,2.481,0.588,4.977,0.766,7.479c0.396,5.673,0.684,11.342,1.015,17.011
		c0.022,0.241,0.088,0.478,0.153,0.789c1.789-1.938,2.716-4.993,2.495-7.638C455.359,101.919,454.86,96.382,454.345,90.854z"/>
	<path fill="#4A291A" d="M369.24,91.323c-1.398-0.719-2.679-1.377-4.047-2.087c-0.633,1.184-1.208,2.293-1.841,3.503
		c1.398,0.732,2.656,1.398,3.989,2.104C367.99,93.62,368.587,92.524,369.24,91.323z"/>
	<path fill="#4A291A" d="M705.702,93.042c1.415,0.724,2.673,1.368,3.983,2.052c0.653-1.263,1.228-2.372,1.839-3.551
		c-1.377-0.711-2.612-1.346-4.005-2.057C706.889,90.718,706.32,91.84,705.702,93.042z"/>
	<path fill="#4A291A" d="M683.293,88.561c1.348,0.71,2.591,1.351,3.961,2.064c0.669-1.267,1.236-2.372,1.854-3.555
		c-1.398-0.706-2.656-1.352-4.026-2.053C684.457,86.277,683.883,87.39,683.293,88.561z"/>
	<path fill="#4A291A" d="M508.273,120.771c0.641-1.236,1.229-2.354,1.861-3.568c-1.346-0.71-2.61-1.377-3.93-2.078
		c-0.641,1.219-1.243,2.332-1.89,3.564C505.683,119.412,506.95,120.074,508.273,120.771z"/>
	<path fill="#4A291A" d="M694.818,84.834c-1.398-0.71-2.7-1.377-4.055-2.074c-0.633,1.224-1.192,2.302-1.817,3.494
		c1.339,0.711,2.62,1.395,3.974,2.109C693.598,87.127,694.179,86.022,694.818,84.834z"/>
	<path fill="#4A291A" d="M363.53,93.549c-1.368-0.688-2.68-1.358-4.034-2.051c-0.633,1.249-1.189,2.376-1.795,3.555
		c1.311,0.681,2.517,1.303,3.959,2.065C362.277,95.944,362.883,94.787,363.53,93.549z"/>
	<path fill="#4A291A" d="M721.996,121.375c1.355,0.698,2.629,1.352,4.021,2.07c0.646-1.285,1.221-2.385,1.802-3.529
		c-1.361-0.741-2.591-1.399-3.908-2.104C723.254,119.022,722.645,120.167,721.996,121.375z"/>
	<path fill="#4A291A" d="M597.469,89.306c1.134,0.794,2.208,1.525,3.423,2.363c0.765-1.25,1.436-2.35,2.15-3.538
		c-1.215-0.771-2.351-1.486-3.556-2.245C598.78,87.083,598.131,88.167,597.469,89.306z"/>
	<path fill="#4A291A" d="M759.984,90.482c0.185-1.602,0.361-3.122,0.539-4.573c-1.738-0.974-3.924-1.014-4.526-3.411
		c-0.515,1.811-0.84,3.524-1.089,5.248c-0.037,0.28,0.131,0.819,0.315,0.877c0.995,0.302,0.995,1.108,1.111,1.889
		c0.177,1.264,0.346,2.525,0.523,3.797c0.75,5.227,1.478,10.457,2.214,15.779c-2.707,0-5.319,0-7.982,0
		c-0.987-6.63-1.974-13.184-2.981-19.966c1.008,0.509,1.383,0.18,1.458-0.587c0.108-0.97,0.277-1.93,0.265-2.89
		c-0.022-0.391-0.377-0.964-0.73-1.136c-1.436-0.675-3.128-0.995-3.618-3.021c-0.562,1.846-0.871,3.6-1.143,5.366
		c-0.037,0.236,0.146,0.701,0.324,0.759c1.169,0.377,1.074,1.385,1.206,2.262c0.597,4.191,1.171,8.383,1.76,12.573
		c0.294,2.201,0.597,4.402,0.912,6.73c-1.773,0-3.35,0-4.93,0c-5.389,0-5.329-0.074-9.397-3.525
		c-2.444-2.069-4.976-4.155-7.742-5.708c-3.762-2.1-7.686-0.403-9.038,3.647c2.745-0.268,5.373-0.157,7.727,1.118
		c2.273,1.236,4.437,2.679,6.659,4.029c-0.072,0.122-0.14,0.245-0.189,0.368c-5.998,0-11.989,0-18.053,0
		c-0.14-3.989,0.391-8.124-2.959-11.337c-0.428,0.854-0.736,1.67-1.184,2.41c-0.618,0.991-0.583,1.736,0.301,2.622
		c1.738,1.724,2.185,3.911,1.891,6.366c-4.636,0-9.168,0.035-13.718-0.039c-0.464-0.014-1.14-0.579-1.302-1.04
		c-0.546-1.478-1.008-3.007-1.332-4.551c-0.794-3.993-1.486-8-2.268-12.267c-1.228,1.451-2.098,2.775-1.611,4.472
		c0.279,0.982-0.103,1.299-0.86,1.706c-1.421,0.775-2.841,1.6-4.152,2.552c-1.743,1.279-3.392,2.713-4.208,4.818
		c-0.516,1.314-0.294,1.906,1.022,2.112c3.444,0.535,7.079,1.74,9.413-2.056c0.771,2.152,1.442,4.292,2.295,6.356
		c0.641,1.557,1.848,2.245,3.652,2.24c20.496-0.053,40.977-0.03,61.449-0.03c0.472,0,0.941-0.049,1.524-0.075
		c0.212-8.229-2.076-16.05-2.79-24.107C759.16,90.328,759.494,90.389,759.984,90.482z M688.813,104.971
		c-0.719-0.053-1.442-0.255-2.267-0.408c1.28-2.179,3.218-3.078,5.301-3.801C692.965,103.612,691.771,105.203,688.813,104.971z"/>
	<path fill="#4A291A" d="M657.228,90.467c0.146-1.311,0.339-2.568,0.384-3.831c0.013-0.382-0.384-0.964-0.73-1.127
		c-1.449-0.662-3.128-1.008-3.628-3.024c-0.543,1.827-0.884,3.586-1.118,5.344c-0.037,0.28,0.324,0.618,0.5,0.917
		c0.281,0.442,0.766,0.851,0.84,1.323c0.634,4.178,1.198,8.374,1.795,12.561c0.347,2.473,0.706,4.937,1.046,7.427
		c-2.76,0-5.373,0-7.971,0c-0.081-1.258-0.103-2.411-0.243-3.543c-0.338-2.753-2.17-4.726-4.748-5.138
		c-2.177-0.351-4.399-0.28-6.328,0.736c-2.42,1.25-4.718,2.745-6.984,4.271c-2.598,1.763-5.379,2.985-8.441,3.608
		c-3.297,0.657-5.313-0.25-6.895-3.24c-0.559-1.096-0.979-2.267-1.457-3.415c-0.132-0.009-0.272-0.013-0.421-0.026
		c-0.123,0.763-0.285,1.517-0.338,2.275c-0.035,0.57,0.103,1.136,0.118,1.709c0.021,1.681-0.699,2.64-2.348,2.776
		c-1.62,0.122-3.246,0.021-5.092,0.021c0-1.89,0.213-3.683-0.044-5.401c-0.325-2.061-0.752-4.191-1.671-6.037
		c-1.251-2.508-4.226-2.612-6.028-0.442c-1.191,1.42-1.92,3.068-2.075,4.932c-0.272,3.267,0.942,4.911,4.18,5.669
		c1.134,0.259,2.282,0.491,3.416,0.724c-0.818,0.39-1.627,0.574-2.43,0.583c-3.746,0.044-7.498,0.048-11.26,0.062
		c-1.664,0-2.458-0.474-2.848-2.131c-0.396-1.71-0.699-3.455-0.809-5.209c-0.274-4.011-0.31-8.026-0.611-12.029
		c-0.154-2.122-0.672-4.214-1.031-6.317c-0.131-0.009-0.265-0.018-0.39-0.031c-0.862,1.368-1.745,2.714-2.569,4.104
		c-0.125,0.198,0.067,0.618,0.178,0.903c0.58,1.486,1.523,2.934,1.721,4.477c0.474,3.529,0.48,7.124,0.87,10.675
		c0.265,2.442,0.706,4.871,1.317,7.252c0.447,1.753,1.78,2.6,3.672,2.586c6.771-0.048,13.519-0.013,20.268-0.013
		c1.486,0,2.9-0.197,4.158-1.104c0.271-0.185,0.854-0.197,1.148-0.022c1.581,0.917,3.297,1.14,5.086,1.131
		c12.547-0.018,25.079-0.004,37.62-0.004c0.522,0,1.021,0,1.706,0c0.289-8.277-2.083-16.099-2.729-24.17
		C656.381,90.328,656.705,90.384,657.228,90.467z M602.82,105.895c-0.986-0.157-2.011-0.184-2.944-0.495
		c-0.662-0.224-1.332-0.714-1.758-1.271c-0.68-0.864-0.442-2.17,0.351-2.731c0.965-0.662,1.988-0.465,2.6,0.381
		c0.831,1.171,1.405,2.534,2.083,3.811C603.042,105.694,602.93,105.791,602.82,105.895z M642.494,109.868
		c-0.391,0.101-0.78,0.224-1.18,0.229c-4.349,0.021-8.697,0.013-13.054,0.013c-0.053-0.145-0.103-0.289-0.146-0.43
		c2.929-1.236,5.813-2.573,8.801-3.661c1.905-0.696,3.915-0.402,5.808,0.364c0.867,0.359,1.539,0.911,1.471,1.951
		C644.143,109.381,643.325,109.658,642.494,109.868z"/>
	<path fill="#4A291A" d="M445.909,90.384c0.141-1.258,0.222-2.441,0.428-3.604c0.146-0.78-0.146-1.088-0.839-1.346
		c-1.449-0.54-3.091-0.898-3.582-2.915c-0.562,1.897-0.871,3.734-1.104,5.571c-0.031,0.197,0.346,0.435,0.508,0.663
		c0.316,0.478,0.794,0.941,0.875,1.459c0.743,4.924,1.427,9.86,2.11,14.797c0.237,1.67,0.443,3.362,0.655,5.125
		c-4.201,0-8.213,0.057-12.216-0.048c-0.949-0.031-1.883-0.645-2.76-0.961c0.787-0.907,1.348-1.582,1.944-2.235
		c2.171-2.407,1.617-4.932-1.548-5.704c-2.117-0.518-4.443-0.553-6.638-0.324c-2.767,0.275-4.121,3.078-3.104,5.729
		c2.192-1.275,3.437-0.854,4.474,1.565c-2.531,1.43-5.226,2.206-8.183,1.93c-0.399-2.978-1.811-5.401-3.297-7.805
		c-0.914-1.508-0.93-1.503-2.534-0.701c-2.56,1.28-4.415,3.341-6.113,5.56c-2.048,2.674-4.792,3.389-8.133,2.911
		c0.234-3.946-0.868-7.353-4.005-9.899c-1.249,2.117-1.648,3.933,0.252,6.041c1.758,1.96,2.589,4.516,1.617,7.27
		c-1.832,5.208-8.669,10.039-14.188,9.886c-1.749-0.049-3.473-0.487-5.224-0.732c-0.581-0.088-1.268-0.289-1.282,0.851
		c1.96,0.701,3.945,1.381,5.925,2.104c3.834,1.395,7.381,0.907,10.546-1.692c1.458-1.201,2.929-2.455,4.077-3.933
		c0.942-1.21,1.636-2.723,2.048-4.213c0.285-1.039,0.609-1.364,1.633-1.303c3.106,0.167,6.035-0.228,8.065-3.126
		c3.12,2.513,6.615,3.254,10.458,3.184c3.812-0.066,7.33-0.768,10.347-3.31c1.832,2.581,4.326,3.322,7.227,3.278
		c3.887-0.057,7.773-0.009,11.657-0.013c0.465,0,0.921-0.07,1.518-0.109c0.065-8.212-2.127-16.007-2.878-24.029
		C445.051,90.328,445.396,90.354,445.909,90.384z M408.29,107.326c0.153-0.285,0.221-0.623,0.427-0.795
		c0.853-0.709,1.743-1.381,2.626-2.056c0.581,0.785,1.268,1.517,1.724,2.372c0.462,0.863,0.699,1.854,1.154,3.121
		C411.733,109.635,409.923,108.785,408.29,107.326z"/>
	<path fill="#4A291A" d="M476.459,102.296c-1.699-0.171-2.965,0.759-3.569,2.209c-0.662,1.588-1.273,3.315-1.377,5.017
		c-0.169,2.779,1.509,4.437,4.372,4.813c0.744,0.109,1.479,0.166,2.628,0.289c-1.722,1.925-3.172,3.678-4.769,5.278
		c-1.781,1.789-3.937,3.152-6.462,3.311c-2.113,0.136-4.262-0.338-6.388-0.521c-0.471-0.049-0.958-0.005-1.429-0.005
		c-0.028,0.28-0.044,0.557-0.072,0.842c2.878,0.684,5.754,1.473,8.654,2.034c2.325,0.442,4.504-0.241,6.3-1.749
		c3.269-2.731,5.476-6.143,5.548-10.522c0.044-2.626-0.147-5.27-0.493-7.874C479.189,103.839,478.291,102.472,476.459,102.296z
		 M478.16,110.495c-1.075-0.259-2.252-0.338-3.195-0.851c-0.589-0.312-1.014-1.263-1.104-1.981
		c-0.043-0.407,0.708-1.254,1.165-1.302c0.661-0.07,1.661,0.196,2.045,0.692c0.677,0.842,0.986,1.968,1.457,2.977
		C478.402,110.183,478.277,110.341,478.16,110.495z"/>
	<path fill="#4A291A" d="M369.433,103.712c-1.966-1.381-4.07-2.56-6.182-3.88c-0.222,0.513-0.368,0.78-0.464,1.069
		c-0.943,2.793-1.914,5.581-2.789,8.4c-0.28,0.863-0.354,1.802-0.427,2.719c-0.104,1.262,0.559,2.086,1.677,2.568
		c1.876,0.815,3.783,0.653,5.69,0.145c2.317-0.622,3.693-2.152,4.209-4.449C371.699,107.821,371.78,105.374,369.433,103.712z
		 M368.409,110.118c-1.155,0.592-2.413,0.938-3.112,1.205c-2.532,0.009-3.73-1.679-3.084-3.52c0.096-0.29,0.242-0.574,0.398-0.833
		c1.074-1.728,1.303-1.807,3.06-0.838c0.993,0.548,1.979,1.145,2.872,1.846C369.58,108.811,369.552,109.522,368.409,110.118z"/>
	<path fill="#4A291A" d="M685.546,77.272c0.198,0.188,0.376,0.354,0.56,0.53c0.574-0.565,0.59-1.14,0.103-1.662
		c-0.065-0.083-0.153-0.201-0.153-0.302c0-0.711,0.051-1.421,0.035-2.122c-0.021-0.649-0.396-1.145-0.905-1.21
		c-0.463-0.062-0.868,0.145-1.214,0.451c-0.516,0.469-0.906,1.013-1.146,1.666c-0.303,0.78-0.215,1.342,0.469,1.775
		c0.377,0.237,0.759,0.465,1.148,0.702c-0.044,0.07-0.087,0.136-0.14,0.188c-1.016,1.083-2.229,1.876-3.51,2.6
		c-0.271,0.158-0.509,0.373-0.766,0.552c0.022,0.053,0.051,0.11,0.075,0.158c0.241-0.018,0.49,0,0.728-0.065
		C682.758,79.995,684.279,78.845,685.546,77.272z M683.714,74.759c-0.053-0.065-0.03-0.289,0.022-0.324
		c0.271-0.136,0.543-0.293,0.846-0.346c0.375-0.07,0.603,0.104,0.649,0.486c0.043,0.363,0.006,0.74,0.006,1.126
		C684.597,75.549,684.104,75.238,683.714,74.759z"/>
	<path fill="#4A291A" d="M361.809,81.327c0.206,0.188,0.382,0.36,0.574,0.53c0.573-0.569,0.579-1.14,0.102-1.665
		c-0.079-0.084-0.163-0.197-0.163-0.303c0-0.71,0.053-1.421,0.031-2.122c-0.015-0.645-0.39-1.14-0.899-1.21
		c-0.462-0.062-0.867,0.149-1.205,0.456c-0.515,0.465-0.905,1.008-1.155,1.661c-0.303,0.785-0.215,1.351,0.479,1.784
		c0.368,0.229,0.749,0.461,1.14,0.702c-0.051,0.065-0.095,0.127-0.138,0.188c-1.018,1.069-2.239,1.872-3.513,2.596
		c-0.265,0.157-0.508,0.367-0.758,0.552c0.015,0.058,0.044,0.105,0.059,0.153c0.25-0.021,0.509,0,0.736-0.065
		C359.025,84.045,360.551,82.901,361.809,81.327z M359.982,78.81c-0.059-0.065-0.027-0.289,0.022-0.319
		c0.271-0.141,0.553-0.299,0.846-0.352c0.384-0.061,0.603,0.11,0.647,0.487c0.046,0.368,0.008,0.745,0.008,1.127
		C360.867,79.608,360.366,79.292,359.982,78.81z"/>
	<path fill="#4A291A" d="M423.185,95.484c1.929-0.536,3.443-1.692,4.711-3.258c0.197,0.188,0.381,0.355,0.565,0.53
		c0.574-0.57,0.583-1.14,0.097-1.666c-0.074-0.083-0.153-0.197-0.153-0.303c0.006-0.71,0.05-1.416,0.035-2.121
		c-0.022-0.646-0.396-1.149-0.906-1.211c-0.462-0.062-0.861,0.149-1.205,0.457c-0.516,0.464-0.905,1.008-1.155,1.661
		c-0.296,0.785-0.206,1.351,0.47,1.784c0.376,0.232,0.758,0.461,1.148,0.701c-0.044,0.07-0.088,0.127-0.141,0.185
		c-1.016,1.074-2.229,1.872-3.51,2.6c-0.265,0.157-0.508,0.368-0.758,0.557c0.021,0.053,0.044,0.102,0.067,0.149
		C422.7,95.527,422.95,95.549,423.185,95.484z M426.063,89.709c-0.053-0.065-0.021-0.289,0.022-0.32
		c0.271-0.14,0.559-0.298,0.853-0.354c0.368-0.066,0.596,0.113,0.643,0.495c0.044,0.364,0.006,0.736,0.006,1.127
		C426.953,90.507,426.453,90.192,426.063,89.709z"/>
	<path fill="#4A291A" d="M528.276,91.722c0.884-0.285,1.817-0.474,2.111-1.548c0-0.004,0.021-0.013,0.021-0.021
		c0.128-0.259,0.268-0.522,0.412-0.824c-0.115-0.005-0.132-0.009-0.159-0.005c-2.173,0.684-4.352,1.39-6.528,2.064
		c-0.625,0.193-1.171,0.431-1.354,1.132c-0.022,0.097-0.11,0.171-0.156,0.258c-0.138,0.272-0.277,0.54-0.455,0.895
		c0.236-0.048,0.367-0.065,0.486-0.101C524.524,92.958,526.4,92.335,528.276,91.722z"/>
	<path fill="#4A291A" d="M567.09,118.592c-2.178,0.697-4.35,1.394-6.528,2.073c-0.625,0.188-1.169,0.426-1.361,1.127
		c-0.028,0.092-0.118,0.166-0.153,0.254c-0.141,0.276-0.272,0.549-0.456,0.903c0.234-0.053,0.368-0.065,0.484-0.101
		c1.876-0.618,3.753-1.236,5.622-1.854c0.877-0.28,1.817-0.47,2.114-1.539c0-0.018,0.013-0.018,0.021-0.026
		c0.132-0.263,0.263-0.525,0.418-0.824C567.133,118.592,567.104,118.587,567.09,118.592z"/>
	<path fill="#4A291A" d="M597.697,80.828c0.884-0.29,1.816-0.474,2.113-1.548c0.006-0.009,0.028-0.009,0.028-0.026
		c0.125-0.259,0.257-0.518,0.412-0.82c-0.118-0.009-0.146-0.013-0.162-0.009c-2.177,0.688-4.349,1.39-6.528,2.065
		c-0.625,0.192-1.168,0.43-1.353,1.136c-0.037,0.092-0.111,0.162-0.162,0.254c-0.134,0.271-0.271,0.544-0.442,0.898
		c0.221-0.053,0.354-0.065,0.471-0.105C593.951,82.059,595.828,81.437,597.697,80.828z"/>
	<path fill="#4A291A" d="M628.393,91.889c0.877-0.281,1.811-0.47,2.107-1.54c0-0.013,0.021-0.013,0.021-0.025
		c0.139-0.264,0.263-0.522,0.412-0.824c-0.112-0.005-0.134-0.014-0.156-0.005c-2.179,0.688-4.349,1.386-6.534,2.065
		c-0.611,0.188-1.164,0.429-1.354,1.131c-0.021,0.092-0.109,0.166-0.154,0.25c-0.14,0.276-0.265,0.548-0.449,0.898
		c0.235-0.048,0.359-0.057,0.484-0.097C624.634,93.125,626.51,92.506,628.393,91.889z"/>
	<path fill="#4A291A" d="M707.484,84.795c0.868-0.285,1.817-0.475,2.111-1.544c0-0.009,0.016-0.013,0.016-0.026
		c0.14-0.263,0.265-0.521,0.42-0.819c-0.111-0.009-0.14-0.018-0.17-0.009c-2.164,0.688-4.341,1.39-6.52,2.064
		c-0.627,0.193-1.171,0.43-1.354,1.132c-0.031,0.092-0.11,0.166-0.154,0.254c-0.14,0.271-0.28,0.544-0.457,0.903
		c0.228-0.058,0.361-0.066,0.479-0.105C703.732,86.027,705.608,85.405,707.484,84.795z"/>
	<path fill="#4A291A" d="M474.201,97.337c0.868-0.28,1.816-0.469,2.11-1.543c0-0.008,0.022-0.013,0.022-0.021
		c0.134-0.264,0.265-0.526,0.411-0.825c-0.116-0.003-0.138-0.012-0.159-0.008c-2.173,0.692-4.343,1.39-6.528,2.069
		c-0.618,0.192-1.17,0.43-1.354,1.131c-0.022,0.088-0.109,0.167-0.156,0.254c-0.138,0.272-0.271,0.548-0.455,0.899
		c0.236-0.053,0.368-0.062,0.486-0.102C470.447,98.575,472.315,97.952,474.201,97.337z"/>
	<path fill="#4A291A" d="M388.347,94.532c0.874-0.285,1.81-0.473,2.104-1.547c0.009-0.005,0.022-0.009,0.031-0.022
		c0.132-0.259,0.263-0.521,0.412-0.824c-0.118-0.004-0.149-0.009-0.162-0.004c-2.179,0.688-4.343,1.39-6.528,2.064
		c-0.627,0.193-1.17,0.43-1.363,1.131c-0.022,0.093-0.101,0.167-0.153,0.255c-0.132,0.271-0.272,0.543-0.449,0.898
		c0.236-0.053,0.368-0.062,0.486-0.104C384.594,95.764,386.461,95.141,388.347,94.532z"/>
	<path fill="#4A291A" d="M624.34,96.071c-0.172,0.083-0.303,0.118-0.384,0.197c-0.64,0.701-0.78,1.525-0.553,2.425
		c0.081,0.359,0.331,0.601,0.647,0.697c0.708,0.215,1.385,0.14,1.929-0.404c0.25-0.249,0.464-0.543,0.692-0.824
		c0.065,0.049,0.132,0.105,0.206,0.158c0.653,0.601,1.714,0.553,2.302-0.127c0.671-0.771,0.817-1.688,0.708-2.666
		c-0.037-0.285-0.044-0.604-0.375-0.798c-0.111,0.225-0.199,0.438-0.324,0.632c-0.206,0.329-0.25,0.622-0.081,0.995
		c0.206,0.482,0.125,0.569-0.361,0.78c-0.072,0.04-0.163,0.079-0.25,0.092c-0.676,0.145-1.281-0.118-1.229-0.942
		c0.014-0.176-0.021-0.355-0.067-0.525c-0.013-0.084-0.116-0.225-0.146-0.216c-0.104,0.035-0.235,0.097-0.272,0.189
		c-0.074,0.157-0.097,0.337-0.125,0.513c-0.103,0.912-0.618,1.521-1.464,1.823c-0.78,0.289-1.333-0.206-1.148-1.017
		C624.118,96.754,624.221,96.465,624.34,96.071z"/>
	<path fill="#4A291A" d="M740.668,80.7c0.706,0.211,1.383,0.132,1.928-0.407c0.242-0.25,0.448-0.544,0.691-0.824
		c0.06,0.049,0.125,0.109,0.191,0.166c0.671,0.593,1.723,0.54,2.311-0.135c0.678-0.769,0.824-1.688,0.708-2.666
		c-0.038-0.29-0.038-0.609-0.368-0.798c-0.112,0.224-0.2,0.438-0.331,0.627c-0.2,0.328-0.243,0.622-0.075,1.004
		c0.206,0.478,0.125,0.565-0.359,0.78c-0.087,0.03-0.162,0.07-0.25,0.092c-0.677,0.136-1.295-0.118-1.229-0.947
		c0.007-0.18-0.028-0.354-0.065-0.525c-0.016-0.088-0.125-0.22-0.156-0.215c-0.096,0.035-0.234,0.097-0.265,0.188
		c-0.081,0.153-0.11,0.337-0.125,0.513c-0.11,0.916-0.618,1.521-1.464,1.828c-0.787,0.276-1.333-0.21-1.149-1.025
		c0.06-0.299,0.171-0.588,0.287-0.979c-0.159,0.084-0.294,0.11-0.375,0.198c-0.64,0.701-0.78,1.525-0.559,2.429
		C740.094,80.358,740.344,80.604,740.668,80.7z"/>
	<path fill="#4A291A" d="M504.668,90.832c0.706,0.211,1.383,0.141,1.927-0.412c0.25-0.245,0.456-0.534,0.693-0.823
		c0.059,0.052,0.131,0.113,0.19,0.166c0.671,0.601,1.729,0.544,2.318-0.132c0.669-0.768,0.818-1.684,0.7-2.661
		c-0.031-0.289-0.037-0.613-0.368-0.798c-0.119,0.22-0.199,0.434-0.324,0.632c-0.207,0.32-0.25,0.617-0.088,0.995
		c0.213,0.478,0.132,0.561-0.354,0.78c-0.09,0.035-0.162,0.074-0.25,0.092c-0.677,0.145-1.295-0.118-1.238-0.951
		c0.024-0.171-0.013-0.351-0.057-0.522c-0.016-0.082-0.119-0.219-0.149-0.214c-0.101,0.039-0.234,0.097-0.278,0.188
		c-0.065,0.158-0.088,0.342-0.118,0.513c-0.104,0.916-0.618,1.525-1.458,1.828c-0.793,0.28-1.337-0.215-1.153-1.017
		c0.066-0.303,0.176-0.592,0.294-0.982c-0.171,0.079-0.303,0.114-0.377,0.192c-0.646,0.702-0.787,1.526-0.565,2.425
		C504.094,90.49,504.344,90.736,504.668,90.832z"/>
	<path fill="#4A291A" d="M505.427,94.948c1.258-0.564,2.51-1.13,3.759-1.709c0.316-0.149,0.722-0.263,0.899-0.526
		c0.324-0.5,0.499-1.083,0.749-1.631c-0.021-0.03-0.044-0.062-0.065-0.087c-0.228,0.096-0.456,0.175-0.684,0.275
		c-1.386,0.619-2.767,1.254-4.165,1.842c-1.37,0.574-1.385,0.552-2.039,1.876c-0.059,0.123-0.127,0.237-0.171,0.359
		c-0.043,0.088-0.065,0.185-0.087,0.276c0.021,0.026,0.053,0.058,0.074,0.084C504.271,95.458,504.853,95.208,505.427,94.948z"/>
</g>
</svg>
